<?xml version="1.0" encoding="UTF-8" standalone="no"?><svg xmlns="http://www.w3.org/2000/svg" xmlns:xlink="http://www.w3.org/1999/xlink" contentScriptType="application/ecmascript" contentStyleType="text/css" height="488px" preserveAspectRatio="none" style="width:728px;height:488px;" version="1.1" viewBox="0 0 728 488" width="728px" zoomAndPan="magnify"><defs><filter height="300%" id="fp2fp167tskpk" width="300%" x="-1" y="-1"><feGaussianBlur result="blurOut" stdDeviation="2.0"/><feColorMatrix in="blurOut" result="blurOut2" type="matrix" values="0 0 0 0 0 0 0 0 0 0 0 0 0 0 0 0 0 0 .4 0"/><feOffset dx="4.0" dy="4.0" in="blurOut2" result="blurOut3"/><feBlend in="SourceGraphic" in2="blurOut3" mode="normal"/></filter></defs><g><!--MD5=[e52486aa844d82c3887803c775395ac3]
class ClientLogicController--><rect fill="#FEFECE" filter="url(#fp2fp167tskpk)" height="252.875" id="ClientLogicController" style="stroke: #A80036; stroke-width: 1.5;" width="577" x="54.05" y="116"/><ellipse cx="274.3" cy="132" fill="#ADD1B2" rx="11" ry="11" style="stroke: #A80036; stroke-width: 1.0;"/><path d="M277.2688,137.6406 Q276.6906,137.9375 276.05,138.0781 Q275.4094,138.2344 274.7063,138.2344 Q272.2063,138.2344 270.8781,136.5938 Q269.5656,134.9375 269.5656,131.8125 Q269.5656,128.6875 270.8781,127.0313 Q272.2063,125.375 274.7063,125.375 Q275.4094,125.375 276.05,125.5313 Q276.7063,125.6875 277.2688,125.9844 L277.2688,128.7031 Q276.6438,128.125 276.05,127.8594 Q275.4563,127.5781 274.8313,127.5781 Q273.4875,127.5781 272.8,128.6563 Q272.1125,129.7188 272.1125,131.8125 Q272.1125,133.9063 272.8,134.9844 Q273.4875,136.0469 274.8313,136.0469 Q275.4563,136.0469 276.05,135.7813 Q276.6438,135.5 277.2688,134.9219 L277.2688,137.6406 Z "/><text fill="#000000" font-family="sans-serif" font-size="12" lengthAdjust="spacingAndGlyphs" textLength="128" x="294.8" y="136.1543">ClientLogicController</text><line style="stroke: #A80036; stroke-width: 1.5;" x1="55.05" x2="630.05" y1="148" y2="148"/><rect fill="none" height="6" style="stroke: #C82930; stroke-width: 1.0;" width="6" x="62.05" y="156"/><text fill="#000000" font-family="sans-serif" font-size="11" lengthAdjust="spacingAndGlyphs" textLength="137" x="74.05" y="162.2104">initialServerLatency : int</text><rect fill="none" height="6" style="stroke: #C82930; stroke-width: 1.0;" width="6" x="62.05" y="168.8047"/><text fill="#000000" font-family="sans-serif" font-size="11" lengthAdjust="spacingAndGlyphs" textLength="168" x="74.05" y="175.0151">bestServerLatency : int «get»</text><line style="stroke: #A80036; stroke-width: 1.5;" x1="55.05" x2="630.05" y1="181.6094" y2="181.6094"/><polygon fill="#FFFF44" points="65.05,187.6094,69.05,191.6094,65.05,195.6094,61.05,191.6094" style="stroke: #B38D22; stroke-width: 1.0;"/><text fill="#000000" font-family="sans-serif" font-size="11" lengthAdjust="spacingAndGlyphs" textLength="144" x="74.05" y="195.8198">«override» Awake() : void</text><polygon fill="#FFFF44" points="65.05,200.4141,69.05,204.4141,65.05,208.4141,61.05,204.4141" style="stroke: #B38D22; stroke-width: 1.0;"/><text fill="#000000" font-family="sans-serif" font-size="11" lengthAdjust="spacingAndGlyphs" textLength="148" x="74.05" y="208.6245">«override» Update() : void</text><ellipse cx="65.05" cy="218.2188" fill="#84BE84" rx="3" ry="3" style="stroke: #038048; stroke-width: 1.0;"/><text fill="#000000" font-family="sans-serif" font-size="11" lengthAdjust="spacingAndGlyphs" textLength="551" x="74.05" y="221.4292">StartClient(host:string, port:int, initialServerLatency:int, playerSetupData:PlayerSetupData) : void</text><polygon fill="#FFFF44" points="65.05,226.0234,69.05,230.0234,65.05,234.0234,61.05,230.0234" style="stroke: #B38D22; stroke-width: 1.0;"/><text fill="#000000" font-family="sans-serif" font-size="11" lengthAdjust="spacingAndGlyphs" textLength="234" x="74.05" y="234.2339">«override» TearDownGameScene() : void</text><rect fill="#F24D5C" height="6" style="stroke: #C82930; stroke-width: 1.0;" width="6" x="62.05" y="240.8281"/><text fill="#000000" font-family="sans-serif" font-size="11" lengthAdjust="spacingAndGlyphs" textLength="486" x="74.05" y="247.0386">AddPlayerFromInitialServerState(initialState:InitialPlayerState, isRemote:bool) : Player</text><rect fill="#F24D5C" height="6" style="stroke: #C82930; stroke-width: 1.0;" width="6" x="62.05" y="253.6328"/><text fill="#000000" font-family="sans-serif" font-size="11" lengthAdjust="spacingAndGlyphs" textLength="152" x="74.05" y="259.8433">InitializeLocalPlayer() : void</text><ellipse cx="65.05" cy="269.4375" fill="#84BE84" rx="3" ry="3" style="stroke: #038048; stroke-width: 1.0;"/><text fill="#000000" font-family="sans-serif" font-size="11" lengthAdjust="spacingAndGlyphs" textLength="174" x="74.05" y="272.6479">SampleInputs() : PlayerInputs?</text><ellipse cx="65.05" cy="282.2422" fill="#84BE84" rx="3" ry="3" style="stroke: #038048; stroke-width: 1.0;"/><text fill="#000000" font-family="sans-serif" font-size="11" lengthAdjust="spacingAndGlyphs" textLength="369" x="74.05" y="285.4526">SendInputs(command:NetCommand.PlayerInputCommand) : void</text><rect fill="#F24D5C" height="6" style="stroke: #C82930; stroke-width: 1.0;" width="6" x="62.05" y="292.0469"/><text fill="#000000" font-family="sans-serif" font-size="11" lengthAdjust="spacingAndGlyphs" textLength="313" x="74.05" y="298.2573">HandleWorldState(cmd:NetCommand.WorldState) : void</text><rect fill="#F24D5C" height="6" style="stroke: #C82930; stroke-width: 1.0;" width="6" x="62.05" y="304.8516"/><text fill="#000000" font-family="sans-serif" font-size="11" lengthAdjust="spacingAndGlyphs" textLength="333" x="74.05" y="311.062">HandleJoinAccepted(cmd:NetCommand.JoinAccepted) : void</text><rect fill="#F24D5C" height="6" style="stroke: #C82930; stroke-width: 1.0;" width="6" x="62.05" y="317.6563"/><text fill="#000000" font-family="sans-serif" font-size="11" lengthAdjust="spacingAndGlyphs" textLength="361" x="74.05" y="323.8667">HandleOtherPlayerJoined(cmd:NetCommand.PlayerJoined) : void</text><rect fill="#F24D5C" height="6" style="stroke: #C82930; stroke-width: 1.0;" width="6" x="62.05" y="330.4609"/><text fill="#000000" font-family="sans-serif" font-size="11" lengthAdjust="spacingAndGlyphs" textLength="335" x="74.05" y="336.6714">HandleOtherPlayerLeft(cmd:NetCommand.PlayerLeft) : void</text><polygon fill="#FFFF44" points="65.05,341.2656,69.05,345.2656,65.05,349.2656,61.05,345.2656" style="stroke: #B38D22; stroke-width: 1.0;"/><text fill="#000000" font-family="sans-serif" font-size="11" lengthAdjust="spacingAndGlyphs" textLength="285" x="74.05" y="349.4761">«override» OnPeerConnected(peer:NetPeer) : void</text><polygon fill="#FFFF44" points="65.05,354.0703,69.05,358.0703,65.05,362.0703,61.05,358.0703" style="stroke: #B38D22; stroke-width: 1.0;"/><text fill="#000000" font-family="sans-serif" font-size="11" lengthAdjust="spacingAndGlyphs" textLength="478" x="74.05" y="362.2808">«override» OnPeerDisconnected(peer:NetPeer, disconnectInfo:DisconnectInfo) : void</text><!--MD5=[676f25e776fbcc543819148b2a3275a2]
class BaseLogicController--><rect fill="#FEFECE" filter="url(#fp2fp167tskpk)" height="48" id="BaseLogicController" style="stroke: #A80036; stroke-width: 1.5;" width="156" x="264.55" y="8"/><ellipse cx="279.55" cy="24" fill="#ADD1B2" rx="11" ry="11" style="stroke: #A80036; stroke-width: 1.0;"/><path d="M282.5188,29.6406 Q281.9406,29.9375 281.3,30.0781 Q280.6594,30.2344 279.9563,30.2344 Q277.4563,30.2344 276.1281,28.5938 Q274.8156,26.9375 274.8156,23.8125 Q274.8156,20.6875 276.1281,19.0313 Q277.4563,17.375 279.9563,17.375 Q280.6594,17.375 281.3,17.5313 Q281.9563,17.6875 282.5188,17.9844 L282.5188,20.7031 Q281.8938,20.125 281.3,19.8594 Q280.7063,19.5781 280.0813,19.5781 Q278.7375,19.5781 278.05,20.6563 Q277.3625,21.7188 277.3625,23.8125 Q277.3625,25.9063 278.05,26.9844 Q278.7375,28.0469 280.0813,28.0469 Q280.7063,28.0469 281.3,27.7813 Q281.8938,27.5 282.5188,26.9219 L282.5188,29.6406 Z "/><text fill="#000000" font-family="sans-serif" font-size="12" lengthAdjust="spacingAndGlyphs" textLength="124" x="293.55" y="28.1543">BaseLogicController</text><line style="stroke: #A80036; stroke-width: 1.5;" x1="265.55" x2="419.55" y1="40" y2="40"/><line style="stroke: #A80036; stroke-width: 1.5;" x1="265.55" x2="419.55" y1="48" y2="48"/><!--MD5=[b991c4c455cd9950cce3bc0314f50a5e]
class NetPeer--><rect fill="#FEFECE" filter="url(#fp2fp167tskpk)" height="48" id="NetPeer" style="stroke: #A80036; stroke-width: 1.5;" width="83" x="17.05" y="429"/><ellipse cx="32.05" cy="445" fill="#ADD1B2" rx="11" ry="11" style="stroke: #A80036; stroke-width: 1.0;"/><path d="M35.0188,450.6406 Q34.4406,450.9375 33.8,451.0781 Q33.1594,451.2344 32.4563,451.2344 Q29.9562,451.2344 28.6281,449.5938 Q27.3156,447.9375 27.3156,444.8125 Q27.3156,441.6875 28.6281,440.0313 Q29.9562,438.375 32.4563,438.375 Q33.1594,438.375 33.8,438.5313 Q34.4563,438.6875 35.0188,438.9844 L35.0188,441.7031 Q34.3938,441.125 33.8,440.8594 Q33.2063,440.5781 32.5813,440.5781 Q31.2375,440.5781 30.55,441.6563 Q29.8625,442.7188 29.8625,444.8125 Q29.8625,446.9063 30.55,447.9844 Q31.2375,449.0469 32.5813,449.0469 Q33.2063,449.0469 33.8,448.7813 Q34.3938,448.5 35.0188,447.9219 L35.0188,450.6406 Z "/><text fill="#000000" font-family="sans-serif" font-size="12" lengthAdjust="spacingAndGlyphs" textLength="51" x="46.05" y="449.1543">NetPeer</text><line style="stroke: #A80036; stroke-width: 1.5;" x1="18.05" x2="99.05" y1="461" y2="461"/><line style="stroke: #A80036; stroke-width: 1.5;" x1="18.05" x2="99.05" y1="469" y2="469"/><!--MD5=[6629f3ce9ff4d4777f711d36e83c3aea]
class ClientPlayerInput--><rect fill="#FEFECE" filter="url(#fp2fp167tskpk)" height="48" id="ClientPlayerInput" style="stroke: #A80036; stroke-width: 1.5;" width="137" x="135.05" y="429"/><ellipse cx="150.05" cy="445" fill="#ADD1B2" rx="11" ry="11" style="stroke: #A80036; stroke-width: 1.0;"/><path d="M153.0188,450.6406 Q152.4406,450.9375 151.8,451.0781 Q151.1594,451.2344 150.4563,451.2344 Q147.9563,451.2344 146.6281,449.5938 Q145.3156,447.9375 145.3156,444.8125 Q145.3156,441.6875 146.6281,440.0313 Q147.9563,438.375 150.4563,438.375 Q151.1594,438.375 151.8,438.5313 Q152.4563,438.6875 153.0188,438.9844 L153.0188,441.7031 Q152.3938,441.125 151.8,440.8594 Q151.2063,440.5781 150.5813,440.5781 Q149.2375,440.5781 148.55,441.6563 Q147.8625,442.7188 147.8625,444.8125 Q147.8625,446.9063 148.55,447.9844 Q149.2375,449.0469 150.5813,449.0469 Q151.2063,449.0469 151.8,448.7813 Q152.3938,448.5 153.0188,447.9219 L153.0188,450.6406 Z "/><text fill="#000000" font-family="sans-serif" font-size="12" lengthAdjust="spacingAndGlyphs" textLength="105" x="164.05" y="449.1543">ClientPlayerInput</text><line style="stroke: #A80036; stroke-width: 1.5;" x1="136.05" x2="271.05" y1="461" y2="461"/><line style="stroke: #A80036; stroke-width: 1.5;" x1="136.05" x2="271.05" y1="469" y2="469"/><!--MD5=[2cb47ba637a0d19583e6199456f6ad0b]
class Player--><rect fill="#FEFECE" filter="url(#fp2fp167tskpk)" height="48" id="Player" style="stroke: #A80036; stroke-width: 1.5;" width="70" x="307.55" y="429"/><ellipse cx="322.55" cy="445" fill="#ADD1B2" rx="11" ry="11" style="stroke: #A80036; stroke-width: 1.0;"/><path d="M325.5188,450.6406 Q324.9406,450.9375 324.3,451.0781 Q323.6594,451.2344 322.9563,451.2344 Q320.4563,451.2344 319.1281,449.5938 Q317.8156,447.9375 317.8156,444.8125 Q317.8156,441.6875 319.1281,440.0313 Q320.4563,438.375 322.9563,438.375 Q323.6594,438.375 324.3,438.5313 Q324.9563,438.6875 325.5188,438.9844 L325.5188,441.7031 Q324.8938,441.125 324.3,440.8594 Q323.7063,440.5781 323.0813,440.5781 Q321.7375,440.5781 321.05,441.6563 Q320.3625,442.7188 320.3625,444.8125 Q320.3625,446.9063 321.05,447.9844 Q321.7375,449.0469 323.0813,449.0469 Q323.7063,449.0469 324.3,448.7813 Q324.8938,448.5 325.5188,447.9219 L325.5188,450.6406 Z "/><text fill="#000000" font-family="sans-serif" font-size="12" lengthAdjust="spacingAndGlyphs" textLength="38" x="336.55" y="449.1543">Player</text><line style="stroke: #A80036; stroke-width: 1.5;" x1="308.55" x2="376.55" y1="461" y2="461"/><line style="stroke: #A80036; stroke-width: 1.5;" x1="308.55" x2="376.55" y1="469" y2="469"/><!--MD5=[691046a611354af986a4fe4555e8cf96]
class PlayerSetupData--><rect fill="#FEFECE" filter="url(#fp2fp167tskpk)" height="48" id="PlayerSetupData" style="stroke: #A80036; stroke-width: 1.5;" width="137" x="413.05" y="429"/><ellipse cx="428.05" cy="445" fill="#ADD1B2" rx="11" ry="11" style="stroke: #A80036; stroke-width: 1.0;"/><path d="M431.0188,450.6406 Q430.4406,450.9375 429.8,451.0781 Q429.1594,451.2344 428.4563,451.2344 Q425.9563,451.2344 424.6281,449.5938 Q423.3156,447.9375 423.3156,444.8125 Q423.3156,441.6875 424.6281,440.0313 Q425.9563,438.375 428.4563,438.375 Q429.1594,438.375 429.8,438.5313 Q430.4563,438.6875 431.0188,438.9844 L431.0188,441.7031 Q430.3938,441.125 429.8,440.8594 Q429.2063,440.5781 428.5813,440.5781 Q427.2375,440.5781 426.55,441.6563 Q425.8625,442.7188 425.8625,444.8125 Q425.8625,446.9063 426.55,447.9844 Q427.2375,449.0469 428.5813,449.0469 Q429.2063,449.0469 429.8,448.7813 Q430.3938,448.5 431.0188,447.9219 L431.0188,450.6406 Z "/><text fill="#000000" font-family="sans-serif" font-size="12" lengthAdjust="spacingAndGlyphs" textLength="105" x="442.05" y="449.1543">PlayerSetupData</text><line style="stroke: #A80036; stroke-width: 1.5;" x1="414.05" x2="549.05" y1="461" y2="461"/><line style="stroke: #A80036; stroke-width: 1.5;" x1="414.05" x2="549.05" y1="469" y2="469"/><!--MD5=[1863f3d90d6cd2be70f23b94a50c9bc6]
class ClientSimulation--><rect fill="#FEFECE" filter="url(#fp2fp167tskpk)" height="48" id="ClientSimulation" style="stroke: #A80036; stroke-width: 1.5;" width="132" x="585.55" y="429"/><ellipse cx="600.55" cy="445" fill="#ADD1B2" rx="11" ry="11" style="stroke: #A80036; stroke-width: 1.0;"/><path d="M603.5188,450.6406 Q602.9406,450.9375 602.3,451.0781 Q601.6594,451.2344 600.9563,451.2344 Q598.4563,451.2344 597.1281,449.5938 Q595.8156,447.9375 595.8156,444.8125 Q595.8156,441.6875 597.1281,440.0313 Q598.4563,438.375 600.9563,438.375 Q601.6594,438.375 602.3,438.5313 Q602.9563,438.6875 603.5188,438.9844 L603.5188,441.7031 Q602.8938,441.125 602.3,440.8594 Q601.7063,440.5781 601.0813,440.5781 Q599.7375,440.5781 599.05,441.6563 Q598.3625,442.7188 598.3625,444.8125 Q598.3625,446.9063 599.05,447.9844 Q599.7375,449.0469 601.0813,449.0469 Q601.7063,449.0469 602.3,448.7813 Q602.8938,448.5 603.5188,447.9219 L603.5188,450.6406 Z "/><text fill="#000000" font-family="sans-serif" font-size="12" lengthAdjust="spacingAndGlyphs" textLength="100" x="614.55" y="449.1543">ClientSimulation</text><line style="stroke: #A80036; stroke-width: 1.5;" x1="586.55" x2="716.55" y1="461" y2="461"/><line style="stroke: #A80036; stroke-width: 1.5;" x1="586.55" x2="716.55" y1="469" y2="469"/><!--MD5=[53f7512f6d0fdf77a5e63bebfbb9fda4]
reverse link BaseLogicController to ClientLogicController--><path d="M342.55,76.21 C342.55,88.18 342.55,101.81 342.55,115.99 " fill="none" id="BaseLogicController&lt;-ClientLogicController" style="stroke: #A80036; stroke-width: 1.0;"/><polygon fill="none" points="335.55,76.11,342.55,56.11,349.55,76.11,335.55,76.11" style="stroke: #A80036; stroke-width: 1.0;"/><!--MD5=[7aa190daa7609f5b912c034c4150e585]
link ClientLogicController to NetPeer--><path d="M171.2,369.3 C142.11,390.65 114.74,410.75 94.26,425.78 " fill="none" id="ClientLogicController-&gt;NetPeer" style="stroke: #A80036; stroke-width: 1.0;"/><polygon fill="#A80036" points="90,428.91,99.6221,426.8089,94.0307,425.9513,94.8882,420.3599,90,428.91" style="stroke: #A80036; stroke-width: 1.0;"/><text fill="#000000" font-family="sans-serif" font-size="13" lengthAdjust="spacingAndGlyphs" textLength="69" x="20.2184" y="417.899">serverPeer</text><!--MD5=[737ff17ee1d4278ce8bc50fbc92f85d6]
link ClientLogicController to ClientPlayerInput--><path d="M258.69,369.3 C244.86,390.03 231.84,409.57 221.92,424.45 " fill="none" id="ClientLogicController-&gt;ClientPlayerInput" style="stroke: #A80036; stroke-width: 1.0;"/><polygon fill="#A80036" points="218.94,428.91,227.2605,423.6403,221.7135,424.7497,220.6041,419.2027,218.94,428.91" style="stroke: #A80036; stroke-width: 1.0;"/><text fill="#000000" font-family="sans-serif" font-size="13" lengthAdjust="spacingAndGlyphs" textLength="100" x="110.0712" y="417.899">localPlayerInput</text><!--MD5=[eead5a4a18cd8ff9c545cf4328aea41c]
link ClientLogicController to Player--><path d="M342.55,369.3 C342.55,389.67 342.55,408.9 342.55,423.68 " fill="none" id="ClientLogicController-&gt;Player" style="stroke: #A80036; stroke-width: 1.0;"/><polygon fill="#A80036" points="342.55,428.91,346.55,419.91,342.55,423.91,338.55,419.91,342.55,428.91" style="stroke: #A80036; stroke-width: 1.0;"/><text fill="#000000" font-family="sans-serif" font-size="13" lengthAdjust="spacingAndGlyphs" textLength="68" x="274.5149" y="418.0324">localPlayer</text><!--MD5=[3f25c4cb07d16ff7683307022dd537c0]
link ClientLogicController to PlayerSetupData--><path d="M426.41,369.3 C440.24,390.03 453.26,409.57 463.18,424.45 " fill="none" id="ClientLogicController-&gt;PlayerSetupData" style="stroke: #A80036; stroke-width: 1.0;"/><polygon fill="#A80036" points="466.16,428.91,464.4959,419.2027,463.3865,424.7497,457.8395,423.6403,466.16,428.91" style="stroke: #A80036; stroke-width: 1.0;"/><text fill="#000000" font-family="sans-serif" font-size="13" lengthAdjust="spacingAndGlyphs" textLength="108" x="375.9976" y="417.899">playerSetupData</text><!--MD5=[ee3db748c8cad6c5e5571293f65a2aa7]
link ClientLogicController to ClientSimulation--><path d="M528.98,369.3 C560.77,390.74 590.67,410.92 612.98,425.97 " fill="none" id="ClientLogicController-&gt;ClientSimulation" style="stroke: #A80036; stroke-width: 1.0;"/><polygon fill="#A80036" points="617.33,428.91,612.1132,420.5563,613.1874,426.1102,607.6335,427.1844,617.33,428.91" style="stroke: #A80036; stroke-width: 1.0;"/><text fill="#000000" font-family="sans-serif" font-size="13" lengthAdjust="spacingAndGlyphs" textLength="66" x="547.1136" y="417.9826">simulation</text><!--MD5=[b0bb7b28c46ab9aec522eca1dd273bfc]
@startuml
class ClientLogicController {
    - initialServerLatency : int
    - bestServerLatency : int <<get>>
    # <<override>> Awake() : void
    # <<override>> Update() : void
    + StartClient(host:string, port:int, initialServerLatency:int, playerSetupData:PlayerSetupData) : void
    # <<override>> TearDownGameScene() : void
    - AddPlayerFromInitialServerState(initialState:InitialPlayerState, isRemote:bool) : Player
    - InitializeLocalPlayer() : void
    + SampleInputs() : PlayerInputs?
    + SendInputs(command:NetCommand.PlayerInputCommand) : void
    - HandleWorldState(cmd:NetCommand.WorldState) : void
    - HandleJoinAccepted(cmd:NetCommand.JoinAccepted) : void
    - HandleOtherPlayerJoined(cmd:NetCommand.PlayerJoined) : void
    - HandleOtherPlayerLeft(cmd:NetCommand.PlayerLeft) : void
    # <<override>> OnPeerConnected(peer:NetPeer) : void
    # <<override>> OnPeerDisconnected(peer:NetPeer, disconnectInfo:DisconnectInfo) : void
}
BaseLogicController <|- - ClientLogicController
ClientLogicController - -> "serverPeer" NetPeer
ClientLogicController - -> "localPlayerInput" ClientPlayerInput
ClientLogicController - -> "localPlayer" Player
ClientLogicController - -> "playerSetupData" PlayerSetupData
ClientLogicController - -> "simulation" ClientSimulation
@enduml

PlantUML version 1.2020.08(Sun Apr 26 14:08:22 GMT 2020)
(GPL source distribution)
Java Runtime: OpenJDK Runtime Environment
JVM: OpenJDK 64-Bit Server VM
Java Version: 15-ea+10
Operating System: Linux
Default Encoding: UTF-8
Language: en
Country: US
--></g></svg>