<?xml version="1.0" encoding="UTF-8" standalone="no"?><svg xmlns="http://www.w3.org/2000/svg" xmlns:xlink="http://www.w3.org/1999/xlink" contentScriptType="application/ecmascript" contentStyleType="text/css" height="239px" preserveAspectRatio="none" style="width:563px;height:239px;" version="1.1" viewBox="0 0 563 239" width="563px" zoomAndPan="magnify"><defs><filter height="300%" id="f101jo5di6qeap" width="300%" x="-1" y="-1"><feGaussianBlur result="blurOut" stdDeviation="2.0"/><feColorMatrix in="blurOut" result="blurOut2" type="matrix" values="0 0 0 0 0 0 0 0 0 0 0 0 0 0 0 0 0 0 .4 0"/><feOffset dx="4.0" dy="4.0" in="blurOut2" result="blurOut3"/><feBlend in="SourceGraphic" in2="blurOut3" mode="normal"/></filter></defs><g><!--MD5=[e824fc3c35e995b527f0add5626e80d6]
class ClientSimulationAdjuster--><rect fill="#FEFECE" filter="url(#f101jo5di6qeap)" height="112.0234" id="ClientSimulationAdjuster" style="stroke: #A80036; stroke-width: 1.5;" width="413" x="6" y="116"/><ellipse cx="132.25" cy="132" fill="#ADD1B2" rx="11" ry="11" style="stroke: #A80036; stroke-width: 1.0;"/><path d="M135.2188,137.6406 Q134.6406,137.9375 134,138.0781 Q133.3594,138.2344 132.6563,138.2344 Q130.1563,138.2344 128.8281,136.5938 Q127.5156,134.9375 127.5156,131.8125 Q127.5156,128.6875 128.8281,127.0313 Q130.1563,125.375 132.6563,125.375 Q133.3594,125.375 134,125.5313 Q134.6563,125.6875 135.2188,125.9844 L135.2188,128.7031 Q134.5938,128.125 134,127.8594 Q133.4063,127.5781 132.7813,127.5781 Q131.4375,127.5781 130.75,128.6563 Q130.0625,129.7188 130.0625,131.8125 Q130.0625,133.9063 130.75,134.9844 Q131.4375,136.0469 132.7813,136.0469 Q133.4063,136.0469 134,135.7813 Q134.5938,135.5 135.2188,134.9219 L135.2188,137.6406 Z "/><text fill="#000000" font-family="sans-serif" font-size="12" lengthAdjust="spacingAndGlyphs" textLength="152" x="152.75" y="136.1543">ClientSimulationAdjuster</text><line style="stroke: #A80036; stroke-width: 1.5;" x1="7" x2="418" y1="148" y2="148"/><ellipse cx="17" cy="159" fill="none" rx="3" ry="3" style="stroke: #038048; stroke-width: 1.0;"/><text fill="#000000" font-family="sans-serif" font-size="11" lengthAdjust="spacingAndGlyphs" textLength="203" x="26" y="162.2104">AdjustedInterval : float «get» = 1.0f</text><rect fill="none" height="6" style="stroke: #C82930; stroke-width: 1.0;" width="6" x="14" y="168.8047"/><text fill="#000000" font-family="sans-serif" font-size="11" lengthAdjust="spacingAndGlyphs" textLength="158" x="26" y="175.0151">estimatedMissedInputs : int</text><line style="stroke: #A80036; stroke-width: 1.5;" x1="7" x2="418" y1="181.6094" y2="181.6094"/><ellipse cx="17" cy="192.6094" fill="#84BE84" rx="3" ry="3" style="stroke: #038048; stroke-width: 1.0;"/><text fill="#000000" font-family="sans-serif" font-size="11" lengthAdjust="spacingAndGlyphs" textLength="387" x="26" y="195.8198">GuessClientTick(receivedServerTick:uint, serverLatencyMs:int) : uint</text><ellipse cx="17" cy="205.4141" fill="#84BE84" rx="3" ry="3" style="stroke: #038048; stroke-width: 1.0;"/><text fill="#000000" font-family="sans-serif" font-size="11" lengthAdjust="spacingAndGlyphs" textLength="259" x="26" y="208.6245">NotifyActualTickLead(actualTickLead:int) : void</text><ellipse cx="17" cy="218.2188" fill="#84BE84" rx="3" ry="3" style="stroke: #038048; stroke-width: 1.0;"/><text fill="#000000" font-family="sans-serif" font-size="11" lengthAdjust="spacingAndGlyphs" textLength="102" x="26" y="221.4292">Monitoring() : void</text><!--MD5=[3bc6eb639e085eee81a982c5889412d1]
class ISimulationAdjuster--><rect fill="#FEFECE" filter="url(#f101jo5di6qeap)" height="48" id="ISimulationAdjuster" style="stroke: #A80036; stroke-width: 1.5;" width="152" x="136.5" y="8"/><ellipse cx="151.5" cy="24" fill="#ADD1B2" rx="11" ry="11" style="stroke: #A80036; stroke-width: 1.0;"/><path d="M154.4688,29.6406 Q153.8906,29.9375 153.25,30.0781 Q152.6094,30.2344 151.9063,30.2344 Q149.4063,30.2344 148.0781,28.5938 Q146.7656,26.9375 146.7656,23.8125 Q146.7656,20.6875 148.0781,19.0313 Q149.4063,17.375 151.9063,17.375 Q152.6094,17.375 153.25,17.5313 Q153.9063,17.6875 154.4688,17.9844 L154.4688,20.7031 Q153.8438,20.125 153.25,19.8594 Q152.6563,19.5781 152.0313,19.5781 Q150.6875,19.5781 150,20.6563 Q149.3125,21.7188 149.3125,23.8125 Q149.3125,25.9063 150,26.9844 Q150.6875,28.0469 152.0313,28.0469 Q152.6563,28.0469 153.25,27.7813 Q153.8438,27.5 154.4688,26.9219 L154.4688,29.6406 Z "/><text fill="#000000" font-family="sans-serif" font-size="12" lengthAdjust="spacingAndGlyphs" textLength="120" x="165.5" y="28.1543">ISimulationAdjuster</text><line style="stroke: #A80036; stroke-width: 1.5;" x1="137.5" x2="287.5" y1="40" y2="40"/><line style="stroke: #A80036; stroke-width: 1.5;" x1="137.5" x2="287.5" y1="48" y2="48"/><!--MD5=[c0aad78264ddd70947ad708086fa83ba]
class Stopwatch--><rect fill="#FEFECE" filter="url(#f101jo5di6qeap)" height="48" id="Stopwatch" style="stroke: #A80036; stroke-width: 1.5;" width="98" x="454.5" y="148"/><ellipse cx="469.5" cy="164" fill="#ADD1B2" rx="11" ry="11" style="stroke: #A80036; stroke-width: 1.0;"/><path d="M472.4688,169.6406 Q471.8906,169.9375 471.25,170.0781 Q470.6094,170.2344 469.9063,170.2344 Q467.4063,170.2344 466.0781,168.5938 Q464.7656,166.9375 464.7656,163.8125 Q464.7656,160.6875 466.0781,159.0313 Q467.4063,157.375 469.9063,157.375 Q470.6094,157.375 471.25,157.5313 Q471.9063,157.6875 472.4688,157.9844 L472.4688,160.7031 Q471.8438,160.125 471.25,159.8594 Q470.6563,159.5781 470.0313,159.5781 Q468.6875,159.5781 468,160.6563 Q467.3125,161.7188 467.3125,163.8125 Q467.3125,165.9063 468,166.9844 Q468.6875,168.0469 470.0313,168.0469 Q470.6563,168.0469 471.25,167.7813 Q471.8438,167.5 472.4688,166.9219 L472.4688,169.6406 Z "/><text fill="#000000" font-family="sans-serif" font-size="12" lengthAdjust="spacingAndGlyphs" textLength="66" x="483.5" y="168.1543">Stopwatch</text><line style="stroke: #A80036; stroke-width: 1.5;" x1="455.5" x2="551.5" y1="180" y2="180"/><line style="stroke: #A80036; stroke-width: 1.5;" x1="455.5" x2="551.5" y1="188" y2="188"/><!--MD5=[c06120916a812f81181767a33dd2a99e]
reverse link ISimulationAdjuster to ClientSimulationAdjuster--><path d="M212.5,76.25 C212.5,88.82 212.5,102.73 212.5,115.93 " fill="none" id="ISimulationAdjuster&lt;-ClientSimulationAdjuster" style="stroke: #A80036; stroke-width: 1.0;"/><polygon fill="none" points="205.5,76.1,212.5,56.1,219.5,76.1,205.5,76.1" style="stroke: #A80036; stroke-width: 1.0;"/><!--MD5=[af06fa26a8ddd213b47862512b99911b]
link ClientSimulationAdjuster to Stopwatch--><path d="M431.1,172 C431.1,172 438.3,172 441.28,172 " fill="none" id="ClientSimulationAdjuster-Stopwatch" style="stroke: #A80036; stroke-width: 1.0;"/><polygon fill="#A80036" points="454.38,172,445.38,168,449.38,172,445.38,176,454.38,172" style="stroke: #A80036; stroke-width: 1.0;"/><line style="stroke: #A80036; stroke-width: 1.0;" x1="449.38" x2="441.38" y1="172" y2="172"/><polygon fill="#FFFFFF" points="419.1,172,425.1,176,431.1,172,425.1,168,419.1,172" style="stroke: #A80036; stroke-width: 1.0;"/><text fill="#000000" font-family="sans-serif" font-size="13" lengthAdjust="spacingAndGlyphs" textLength="121" x="373.3251" y="216.1322">droppedInputTimer</text><!--MD5=[9f2c9df2527516d937327f76cb53b988]
@startuml
class ClientSimulationAdjuster {
    + AdjustedInterval : float <<get>> = 1.0f
    - estimatedMissedInputs : int
    + GuessClientTick(receivedServerTick:uint, serverLatencyMs:int) : uint
    + NotifyActualTickLead(actualTickLead:int) : void
    + Monitoring() : void
}
ISimulationAdjuster <|- - ClientSimulationAdjuster
ClientSimulationAdjuster o-> "droppedInputTimer" Stopwatch
@enduml

PlantUML version 1.2020.08(Sun Apr 26 14:08:22 GMT 2020)
(GPL source distribution)
Java Runtime: OpenJDK Runtime Environment
JVM: OpenJDK 64-Bit Server VM
Java Version: 15-ea+10
Operating System: Linux
Default Encoding: UTF-8
Language: en
Country: US
--></g></svg>