<?xml version="1.0" encoding="UTF-8" standalone="no"?><svg xmlns="http://www.w3.org/2000/svg" xmlns:xlink="http://www.w3.org/1999/xlink" contentScriptType="application/ecmascript" contentStyleType="text/css" height="187px" preserveAspectRatio="none" style="width:211px;height:187px;" version="1.1" viewBox="0 0 211 187" width="211px" zoomAndPan="magnify"><defs><filter height="300%" id="f1kv2hrkfplesl" width="300%" x="-1" y="-1"><feGaussianBlur result="blurOut" stdDeviation="2.0"/><feColorMatrix in="blurOut" result="blurOut2" type="matrix" values="0 0 0 0 0 0 0 0 0 0 0 0 0 0 0 0 0 0 .4 0"/><feOffset dx="4.0" dy="4.0" in="blurOut2" result="blurOut3"/><feBlend in="SourceGraphic" in2="blurOut3" mode="normal"/></filter></defs><g><!--MD5=[6629f3ce9ff4d4777f711d36e83c3aea]
class ClientPlayerInput--><rect fill="#FEFECE" filter="url(#f1kv2hrkfplesl)" height="60.8047" id="ClientPlayerInput" style="stroke: #A80036; stroke-width: 1.5;" width="194" x="6" y="116"/><ellipse cx="46.65" cy="132" fill="#ADD1B2" rx="11" ry="11" style="stroke: #A80036; stroke-width: 1.0;"/><path d="M49.6188,137.6406 Q49.0406,137.9375 48.4,138.0781 Q47.7594,138.2344 47.0563,138.2344 Q44.5563,138.2344 43.2281,136.5938 Q41.9156,134.9375 41.9156,131.8125 Q41.9156,128.6875 43.2281,127.0313 Q44.5563,125.375 47.0563,125.375 Q47.7594,125.375 48.4,125.5313 Q49.0563,125.6875 49.6188,125.9844 L49.6188,128.7031 Q48.9938,128.125 48.4,127.8594 Q47.8063,127.5781 47.1813,127.5781 Q45.8375,127.5781 45.15,128.6563 Q44.4625,129.7188 44.4625,131.8125 Q44.4625,133.9063 45.15,134.9844 Q45.8375,136.0469 47.1813,136.0469 Q47.8063,136.0469 48.4,135.7813 Q48.9938,135.5 49.6188,134.9219 L49.6188,137.6406 Z "/><text fill="#000000" font-family="sans-serif" font-size="12" lengthAdjust="spacingAndGlyphs" textLength="105" x="66.35" y="136.1543">ClientPlayerInput</text><line style="stroke: #A80036; stroke-width: 1.5;" x1="7" x2="199" y1="148" y2="148"/><line style="stroke: #A80036; stroke-width: 1.5;" x1="7" x2="199" y1="156" y2="156"/><ellipse cx="17" cy="167" fill="#84BE84" rx="3" ry="3" style="stroke: #038048; stroke-width: 1.0;"/><text fill="#000000" font-family="sans-serif" font-size="11" lengthAdjust="spacingAndGlyphs" textLength="168" x="26" y="170.2104">SampleInputs() : PlayerInputs</text><!--MD5=[83b3cf3d23d77c6f1e1b5291a241bc2a]
class MonoBehaviour--><rect fill="#FEFECE" filter="url(#f1kv2hrkfplesl)" height="48" id="MonoBehaviour" style="stroke: #A80036; stroke-width: 1.5;" width="128" x="39" y="8"/><ellipse cx="54" cy="24" fill="#ADD1B2" rx="11" ry="11" style="stroke: #A80036; stroke-width: 1.0;"/><path d="M56.9688,29.6406 Q56.3906,29.9375 55.75,30.0781 Q55.1094,30.2344 54.4063,30.2344 Q51.9063,30.2344 50.5781,28.5938 Q49.2656,26.9375 49.2656,23.8125 Q49.2656,20.6875 50.5781,19.0313 Q51.9063,17.375 54.4063,17.375 Q55.1094,17.375 55.75,17.5313 Q56.4063,17.6875 56.9688,17.9844 L56.9688,20.7031 Q56.3438,20.125 55.75,19.8594 Q55.1563,19.5781 54.5313,19.5781 Q53.1875,19.5781 52.5,20.6563 Q51.8125,21.7188 51.8125,23.8125 Q51.8125,25.9063 52.5,26.9844 Q53.1875,28.0469 54.5313,28.0469 Q55.1563,28.0469 55.75,27.7813 Q56.3438,27.5 56.9688,26.9219 L56.9688,29.6406 Z "/><text fill="#000000" font-family="sans-serif" font-size="12" lengthAdjust="spacingAndGlyphs" textLength="96" x="68" y="28.1543">MonoBehaviour</text><line style="stroke: #A80036; stroke-width: 1.5;" x1="40" x2="166" y1="40" y2="40"/><line style="stroke: #A80036; stroke-width: 1.5;" x1="40" x2="166" y1="48" y2="48"/><!--MD5=[6833738b73d982ff033513fc0067eadd]
reverse link MonoBehaviour to ClientPlayerInput--><path d="M103,76.11 C103,89.31 103,103.54 103,115.65 " fill="none" id="MonoBehaviour&lt;-ClientPlayerInput" style="stroke: #A80036; stroke-width: 1.0;"/><polygon fill="none" points="96,76.04,103,56.04,110,76.04,96,76.04" style="stroke: #A80036; stroke-width: 1.0;"/><!--MD5=[4fcaca5311090dcb75f7896b6b2f2752]
@startuml
class ClientPlayerInput {
    + SampleInputs() : PlayerInputs
}
MonoBehaviour <|- - ClientPlayerInput
@enduml

PlantUML version 1.2020.08(Sun Apr 26 14:08:22 GMT 2020)
(GPL source distribution)
Java Runtime: OpenJDK Runtime Environment
JVM: OpenJDK 64-Bit Server VM
Java Version: 15-ea+10
Operating System: Linux
Default Encoding: UTF-8
Language: en
Country: US
--></g></svg>