<?xml version="1.0" encoding="UTF-8" standalone="no"?><svg xmlns="http://www.w3.org/2000/svg" xmlns:xlink="http://www.w3.org/1999/xlink" contentScriptType="application/ecmascript" contentStyleType="text/css" height="373px" preserveAspectRatio="none" style="width:395px;height:373px;" version="1.1" viewBox="0 0 395 373" width="395px" zoomAndPan="magnify"><defs><filter height="300%" id="f7kpe976oi0f1" width="300%" x="-1" y="-1"><feGaussianBlur result="blurOut" stdDeviation="2.0"/><feColorMatrix in="blurOut" result="blurOut2" type="matrix" values="0 0 0 0 0 0 0 0 0 0 0 0 0 0 0 0 0 0 .4 0"/><feOffset dx="4.0" dy="4.0" in="blurOut2" result="blurOut3"/><feBlend in="SourceGraphic" in2="blurOut3" mode="normal"/></filter></defs><g><!--MD5=[ea0207c09ac89a38fa1d974b54b28fe0]
class CPMCameraController--><rect fill="#FEFECE" filter="url(#f7kpe976oi0f1)" height="137.6328" id="CPMCameraController" style="stroke: #A80036; stroke-width: 1.5;" width="202" x="6" y="116"/><ellipse cx="36.75" cy="132" fill="#ADD1B2" rx="11" ry="11" style="stroke: #A80036; stroke-width: 1.0;"/><path d="M39.7188,137.6406 Q39.1406,137.9375 38.5,138.0781 Q37.8594,138.2344 37.1563,138.2344 Q34.6563,138.2344 33.3281,136.5938 Q32.0156,134.9375 32.0156,131.8125 Q32.0156,128.6875 33.3281,127.0313 Q34.6563,125.375 37.1563,125.375 Q37.8594,125.375 38.5,125.5313 Q39.1563,125.6875 39.7188,125.9844 L39.7188,128.7031 Q39.0938,128.125 38.5,127.8594 Q37.9063,127.5781 37.2813,127.5781 Q35.9375,127.5781 35.25,128.6563 Q34.5625,129.7188 34.5625,131.8125 Q34.5625,133.9063 35.25,134.9844 Q35.9375,136.0469 37.2813,136.0469 Q37.9063,136.0469 38.5,135.7813 Q39.0938,135.5 39.7188,134.9219 L39.7188,137.6406 Z "/><text fill="#000000" font-family="sans-serif" font-size="12" lengthAdjust="spacingAndGlyphs" textLength="135" x="54.25" y="136.1543">CPMCameraController</text><line style="stroke: #A80036; stroke-width: 1.5;" x1="7" x2="207" y1="148" y2="148"/><ellipse cx="17" cy="159" fill="none" rx="3" ry="3" style="stroke: #038048; stroke-width: 1.0;"/><text fill="#000000" font-family="sans-serif" font-size="11" lengthAdjust="spacingAndGlyphs" textLength="176" x="26" y="162.2104">playerHeadHeight : float = 1.5f</text><ellipse cx="17" cy="171.8047" fill="none" rx="3" ry="3" style="stroke: #038048; stroke-width: 1.0;"/><text fill="#000000" font-family="sans-serif" font-size="11" lengthAdjust="spacingAndGlyphs" textLength="166" x="26" y="175.0151">xMouseSensitivity : float = 2f</text><ellipse cx="17" cy="184.6094" fill="none" rx="3" ry="3" style="stroke: #038048; stroke-width: 1.0;"/><text fill="#000000" font-family="sans-serif" font-size="11" lengthAdjust="spacingAndGlyphs" textLength="166" x="26" y="187.8198">yMouseSensitivity : float = 2f</text><rect fill="none" height="6" style="stroke: #C82930; stroke-width: 1.0;" width="6" x="14" y="194.4141"/><text fill="#000000" font-family="sans-serif" font-size="11" lengthAdjust="spacingAndGlyphs" textLength="99" x="26" y="200.6245">rotX : float = 0.0f</text><rect fill="none" height="6" style="stroke: #C82930; stroke-width: 1.0;" width="6" x="14" y="207.2188"/><text fill="#000000" font-family="sans-serif" font-size="11" lengthAdjust="spacingAndGlyphs" textLength="99" x="26" y="213.4292">rotY : float = 0.0f</text><line style="stroke: #A80036; stroke-width: 1.5;" x1="7" x2="207" y1="220.0234" y2="220.0234"/><ellipse cx="17" cy="231.0234" fill="#84BE84" rx="3" ry="3" style="stroke: #038048; stroke-width: 1.0;"/><text fill="#000000" font-family="sans-serif" font-size="11" lengthAdjust="spacingAndGlyphs" textLength="170" x="26" y="234.2339">PlayerPositionUpdated() : void</text><rect fill="#F24D5C" height="6" style="stroke: #C82930; stroke-width: 1.0;" width="6" x="14" y="240.8281"/><text fill="#000000" font-family="sans-serif" font-size="11" lengthAdjust="spacingAndGlyphs" textLength="107" x="26" y="247.0386">LateUpdate() : void</text><!--MD5=[f8a0d069522c3638247d8785ec7addf3]
class DoubleBuffer`1--><rect fill="#FEFECE" filter="url(#f7kpe976oi0f1)" height="48" id="DoubleBuffer`1" style="stroke: #A80036; stroke-width: 1.5;" width="138" x="243" y="161"/><ellipse cx="258" cy="177" fill="#ADD1B2" rx="11" ry="11" style="stroke: #A80036; stroke-width: 1.0;"/><path d="M260.9688,182.6406 Q260.3906,182.9375 259.75,183.0781 Q259.1094,183.2344 258.4063,183.2344 Q255.9063,183.2344 254.5781,181.5938 Q253.2656,179.9375 253.2656,176.8125 Q253.2656,173.6875 254.5781,172.0313 Q255.9063,170.375 258.4063,170.375 Q259.1094,170.375 259.75,170.5313 Q260.4063,170.6875 260.9688,170.9844 L260.9688,173.7031 Q260.3438,173.125 259.75,172.8594 Q259.1563,172.5781 258.5313,172.5781 Q257.1875,172.5781 256.5,173.6563 Q255.8125,174.7188 255.8125,176.8125 Q255.8125,178.9063 256.5,179.9844 Q257.1875,181.0469 258.5313,181.0469 Q259.1563,181.0469 259.75,180.7813 Q260.3438,180.5 260.9688,179.9219 L260.9688,182.6406 Z "/><text fill="#000000" font-family="sans-serif" font-size="12" lengthAdjust="spacingAndGlyphs" textLength="95" x="272" y="181.1543">DoubleBuffer`1</text><rect fill="#FFFFFF" height="15.9688" style="stroke: #000000; stroke-width: 1.0; stroke-dasharray: 2.0,2.0;" width="9" x="375" y="158"/><text fill="#000000" font-family="sans-serif" font-size="12" font-style="italic" lengthAdjust="spacingAndGlyphs" textLength="7" x="376" y="170.1387">T</text><line style="stroke: #A80036; stroke-width: 1.5;" x1="244" x2="380" y1="193" y2="193"/><line style="stroke: #A80036; stroke-width: 1.5;" x1="244" x2="380" y1="201" y2="201"/><!--MD5=[83b3cf3d23d77c6f1e1b5291a241bc2a]
class MonoBehaviour--><rect fill="#FEFECE" filter="url(#f7kpe976oi0f1)" height="48" id="MonoBehaviour" style="stroke: #A80036; stroke-width: 1.5;" width="128" x="43" y="8"/><ellipse cx="58" cy="24" fill="#ADD1B2" rx="11" ry="11" style="stroke: #A80036; stroke-width: 1.0;"/><path d="M60.9688,29.6406 Q60.3906,29.9375 59.75,30.0781 Q59.1094,30.2344 58.4063,30.2344 Q55.9063,30.2344 54.5781,28.5938 Q53.2656,26.9375 53.2656,23.8125 Q53.2656,20.6875 54.5781,19.0313 Q55.9063,17.375 58.4063,17.375 Q59.1094,17.375 59.75,17.5313 Q60.4063,17.6875 60.9688,17.9844 L60.9688,20.7031 Q60.3438,20.125 59.75,19.8594 Q59.1563,19.5781 58.5313,19.5781 Q57.1875,19.5781 56.5,20.6563 Q55.8125,21.7188 55.8125,23.8125 Q55.8125,25.9063 56.5,26.9844 Q57.1875,28.0469 58.5313,28.0469 Q59.1563,28.0469 59.75,27.7813 Q60.3438,27.5 60.9688,26.9219 L60.9688,29.6406 Z "/><text fill="#000000" font-family="sans-serif" font-size="12" lengthAdjust="spacingAndGlyphs" textLength="96" x="72" y="28.1543">MonoBehaviour</text><line style="stroke: #A80036; stroke-width: 1.5;" x1="44" x2="170" y1="40" y2="40"/><line style="stroke: #A80036; stroke-width: 1.5;" x1="44" x2="170" y1="48" y2="48"/><!--MD5=[004b1d6c4ca8aad4ba8b586a335ed4f3]
class Transform--><rect fill="#FEFECE" filter="url(#f7kpe976oi0f1)" height="48" id="Transform" style="stroke: #A80036; stroke-width: 1.5;" width="95" x="59.5" y="314"/><ellipse cx="74.5" cy="330" fill="#ADD1B2" rx="11" ry="11" style="stroke: #A80036; stroke-width: 1.0;"/><path d="M77.4688,335.6406 Q76.8906,335.9375 76.25,336.0781 Q75.6094,336.2344 74.9063,336.2344 Q72.4063,336.2344 71.0781,334.5938 Q69.7656,332.9375 69.7656,329.8125 Q69.7656,326.6875 71.0781,325.0313 Q72.4063,323.375 74.9063,323.375 Q75.6094,323.375 76.25,323.5313 Q76.9063,323.6875 77.4688,323.9844 L77.4688,326.7031 Q76.8438,326.125 76.25,325.8594 Q75.6563,325.5781 75.0313,325.5781 Q73.6875,325.5781 73,326.6563 Q72.3125,327.7188 72.3125,329.8125 Q72.3125,331.9063 73,332.9844 Q73.6875,334.0469 75.0313,334.0469 Q75.6563,334.0469 76.25,333.7813 Q76.8438,333.5 77.4688,332.9219 L77.4688,335.6406 Z "/><text fill="#000000" font-family="sans-serif" font-size="12" lengthAdjust="spacingAndGlyphs" textLength="63" x="88.5" y="334.1543">Transform</text><line style="stroke: #A80036; stroke-width: 1.5;" x1="60.5" x2="153.5" y1="346" y2="346"/><line style="stroke: #A80036; stroke-width: 1.5;" x1="60.5" x2="153.5" y1="354" y2="354"/><!--MD5=[32e88740f17a80c829b7f1f805b999d3]
reverse link MonoBehaviour to CPMCameraController--><path d="M107,76.56 C107,88.87 107,102.57 107,115.96 " fill="none" id="MonoBehaviour&lt;-CPMCameraController" style="stroke: #A80036; stroke-width: 1.0;"/><polygon fill="none" points="100,76.26,107,56.26,114,76.26,100,76.26" style="stroke: #A80036; stroke-width: 1.0;"/><!--MD5=[0d1335039e80686bd29eb5aa928e963b]
link CPMCameraController to Transform--><path d="M107,254.43 C107,273.64 107,293.47 107,308.87 " fill="none" id="CPMCameraController-&gt;Transform" style="stroke: #A80036; stroke-width: 1.0;"/><polygon fill="#A80036" points="107,313.92,111,304.92,107,308.92,103,304.92,107,313.92" style="stroke: #A80036; stroke-width: 1.0;"/><text fill="#000000" font-family="sans-serif" font-size="13" lengthAdjust="spacingAndGlyphs" textLength="76" x="21.2625" y="302.9115">followTarget</text><!--MD5=[fd313ab90e8f135cb0d6cb09c5e85aae]
link CPMCameraController to DoubleBuffer`1--><path d="M220.3,185 C220.3,185 226.79,185 229.45,185 " fill="none" id="CPMCameraController-DoubleBuffer`1" style="stroke: #A80036; stroke-width: 1.0;"/><polygon fill="#A80036" points="242.73,185,233.73,181,237.73,185,233.73,189,242.73,185" style="stroke: #A80036; stroke-width: 1.0;"/><line style="stroke: #A80036; stroke-width: 1.0;" x1="237.73" x2="229.73" y1="185" y2="185"/><polygon fill="#FFFFFF" points="208.3,185,214.3,189,220.3,185,214.3,181,208.3,185" style="stroke: #A80036; stroke-width: 1.0;"/><text fill="#000000" font-family="sans-serif" font-size="13" lengthAdjust="spacingAndGlyphs" textLength="160" x="202.484" y="150.0408">positionBuffer&lt;Vector3&gt;</text><!--MD5=[83a9c839898c39e2cafb544a2000eafc]
@startuml
class CPMCameraController {
    + playerHeadHeight : float = 1.5f
    + xMouseSensitivity : float = 2f
    + yMouseSensitivity : float = 2f
    - rotX : float = 0.0f
    - rotY : float = 0.0f
    + PlayerPositionUpdated() : void
    - LateUpdate() : void
}
class "DoubleBuffer`1"<T> {
}
MonoBehaviour <|- - CPMCameraController
CPMCameraController - -> "followTarget" Transform
CPMCameraController o-> "positionBuffer<Vector3>" "DoubleBuffer`1"
@enduml

PlantUML version 1.2020.08(Sun Apr 26 14:08:22 GMT 2020)
(GPL source distribution)
Java Runtime: OpenJDK Runtime Environment
JVM: OpenJDK 64-Bit Server VM
Java Version: 15-ea+10
Operating System: Linux
Default Encoding: UTF-8
Language: en
Country: US
--></g></svg>