<?xml version="1.0" encoding="UTF-8" standalone="no"?><svg xmlns="http://www.w3.org/2000/svg" xmlns:xlink="http://www.w3.org/1999/xlink" contentScriptType="application/ecmascript" contentStyleType="text/css" height="309px" preserveAspectRatio="none" style="width:466px;height:309px;" version="1.1" viewBox="0 0 466 309" width="466px" zoomAndPan="magnify"><defs><filter height="300%" id="fltuouxhsqe96" width="300%" x="-1" y="-1"><feGaussianBlur result="blurOut" stdDeviation="2.0"/><feColorMatrix in="blurOut" result="blurOut2" type="matrix" values="0 0 0 0 0 0 0 0 0 0 0 0 0 0 0 0 0 0 .4 0"/><feOffset dx="4.0" dy="4.0" in="blurOut2" result="blurOut3"/><feBlend in="SourceGraphic" in2="blurOut3" mode="normal"/></filter></defs><g><!--MD5=[333279ad957c9a6a4154f067b787c774]
class DebugPlayerInput--><rect fill="#FEFECE" filter="url(#fltuouxhsqe96)" height="73.6094" id="DebugPlayerInput" style="stroke: #A80036; stroke-width: 1.5;" width="143" x="144.5" y="116"/><ellipse cx="159.5" cy="132" fill="#ADD1B2" rx="11" ry="11" style="stroke: #A80036; stroke-width: 1.0;"/><path d="M162.4688,137.6406 Q161.8906,137.9375 161.25,138.0781 Q160.6094,138.2344 159.9063,138.2344 Q157.4063,138.2344 156.0781,136.5938 Q154.7656,134.9375 154.7656,131.8125 Q154.7656,128.6875 156.0781,127.0313 Q157.4063,125.375 159.9063,125.375 Q160.6094,125.375 161.25,125.5313 Q161.9063,125.6875 162.4688,125.9844 L162.4688,128.7031 Q161.8438,128.125 161.25,127.8594 Q160.6563,127.5781 160.0313,127.5781 Q158.6875,127.5781 158,128.6563 Q157.3125,129.7188 157.3125,131.8125 Q157.3125,133.9063 158,134.9844 Q158.6875,136.0469 160.0313,136.0469 Q160.6563,136.0469 161.25,135.7813 Q161.8438,135.5 162.4688,134.9219 L162.4688,137.6406 Z "/><text fill="#000000" font-family="sans-serif" font-size="12" lengthAdjust="spacingAndGlyphs" textLength="111" x="173.5" y="136.1543">DebugPlayerInput</text><line style="stroke: #A80036; stroke-width: 1.5;" x1="145.5" x2="286.5" y1="148" y2="148"/><line style="stroke: #A80036; stroke-width: 1.5;" x1="145.5" x2="286.5" y1="156" y2="156"/><rect fill="#F24D5C" height="6" style="stroke: #C82930; stroke-width: 1.0;" width="6" x="152.5" y="164"/><text fill="#000000" font-family="sans-serif" font-size="11" lengthAdjust="spacingAndGlyphs" textLength="71" x="164.5" y="170.2104">Start() : void</text><ellipse cx="155.5" cy="179.8047" fill="#84BE84" rx="3" ry="3" style="stroke: #038048; stroke-width: 1.0;"/><text fill="#000000" font-family="sans-serif" font-size="11" lengthAdjust="spacingAndGlyphs" textLength="83" x="164.5" y="183.0151">Update() : void</text><!--MD5=[83b3cf3d23d77c6f1e1b5291a241bc2a]
class MonoBehaviour--><rect fill="#FEFECE" filter="url(#fltuouxhsqe96)" height="48" id="MonoBehaviour" style="stroke: #A80036; stroke-width: 1.5;" width="128" x="152" y="8"/><ellipse cx="167" cy="24" fill="#ADD1B2" rx="11" ry="11" style="stroke: #A80036; stroke-width: 1.0;"/><path d="M169.9688,29.6406 Q169.3906,29.9375 168.75,30.0781 Q168.1094,30.2344 167.4063,30.2344 Q164.9063,30.2344 163.5781,28.5938 Q162.2656,26.9375 162.2656,23.8125 Q162.2656,20.6875 163.5781,19.0313 Q164.9063,17.375 167.4063,17.375 Q168.1094,17.375 168.75,17.5313 Q169.4063,17.6875 169.9688,17.9844 L169.9688,20.7031 Q169.3438,20.125 168.75,19.8594 Q168.1563,19.5781 167.5313,19.5781 Q166.1875,19.5781 165.5,20.6563 Q164.8125,21.7188 164.8125,23.8125 Q164.8125,25.9063 165.5,26.9844 Q166.1875,28.0469 167.5313,28.0469 Q168.1563,28.0469 168.75,27.7813 Q169.3438,27.5 169.9688,26.9219 L169.9688,29.6406 Z "/><text fill="#000000" font-family="sans-serif" font-size="12" lengthAdjust="spacingAndGlyphs" textLength="96" x="181" y="28.1543">MonoBehaviour</text><line style="stroke: #A80036; stroke-width: 1.5;" x1="153" x2="279" y1="40" y2="40"/><line style="stroke: #A80036; stroke-width: 1.5;" x1="153" x2="279" y1="48" y2="48"/><!--MD5=[064f7a74fee85463ec1a30143664ee17]
class GameObject--><rect fill="#FEFECE" filter="url(#fltuouxhsqe96)" height="48" id="GameObject" style="stroke: #A80036; stroke-width: 1.5;" width="108" x="6" y="250"/><ellipse cx="21" cy="266" fill="#ADD1B2" rx="11" ry="11" style="stroke: #A80036; stroke-width: 1.0;"/><path d="M23.9688,271.6406 Q23.3906,271.9375 22.75,272.0781 Q22.1094,272.2344 21.4063,272.2344 Q18.9063,272.2344 17.5781,270.5938 Q16.2656,268.9375 16.2656,265.8125 Q16.2656,262.6875 17.5781,261.0313 Q18.9063,259.375 21.4063,259.375 Q22.1094,259.375 22.75,259.5313 Q23.4063,259.6875 23.9688,259.9844 L23.9688,262.7031 Q23.3438,262.125 22.75,261.8594 Q22.1563,261.5781 21.5313,261.5781 Q20.1875,261.5781 19.5,262.6563 Q18.8125,263.7188 18.8125,265.8125 Q18.8125,267.9063 19.5,268.9844 Q20.1875,270.0469 21.5313,270.0469 Q22.1563,270.0469 22.75,269.7813 Q23.3438,269.5 23.9688,268.9219 L23.9688,271.6406 Z "/><text fill="#000000" font-family="sans-serif" font-size="12" lengthAdjust="spacingAndGlyphs" textLength="76" x="35" y="270.1543">GameObject</text><line style="stroke: #A80036; stroke-width: 1.5;" x1="7" x2="113" y1="282" y2="282"/><line style="stroke: #A80036; stroke-width: 1.5;" x1="7" x2="113" y1="290" y2="290"/><!--MD5=[d7c09c2ef0556dd515b6819707a16934]
class IPlayerController--><rect fill="#FEFECE" filter="url(#fltuouxhsqe96)" height="48" id="IPlayerController" style="stroke: #A80036; stroke-width: 1.5;" width="134" x="149" y="250"/><ellipse cx="164" cy="266" fill="#ADD1B2" rx="11" ry="11" style="stroke: #A80036; stroke-width: 1.0;"/><path d="M166.9688,271.6406 Q166.3906,271.9375 165.75,272.0781 Q165.1094,272.2344 164.4063,272.2344 Q161.9063,272.2344 160.5781,270.5938 Q159.2656,268.9375 159.2656,265.8125 Q159.2656,262.6875 160.5781,261.0313 Q161.9063,259.375 164.4063,259.375 Q165.1094,259.375 165.75,259.5313 Q166.4063,259.6875 166.9688,259.9844 L166.9688,262.7031 Q166.3438,262.125 165.75,261.8594 Q165.1563,261.5781 164.5313,261.5781 Q163.1875,261.5781 162.5,262.6563 Q161.8125,263.7188 161.8125,265.8125 Q161.8125,267.9063 162.5,268.9844 Q163.1875,270.0469 164.5313,270.0469 Q165.1563,270.0469 165.75,269.7813 Q166.3438,269.5 166.9688,268.9219 L166.9688,271.6406 Z "/><text fill="#000000" font-family="sans-serif" font-size="12" lengthAdjust="spacingAndGlyphs" textLength="102" x="178" y="270.1543">IPlayerController</text><line style="stroke: #A80036; stroke-width: 1.5;" x1="150" x2="282" y1="282" y2="282"/><line style="stroke: #A80036; stroke-width: 1.5;" x1="150" x2="282" y1="290" y2="290"/><!--MD5=[6629f3ce9ff4d4777f711d36e83c3aea]
class ClientPlayerInput--><rect fill="#FEFECE" filter="url(#fltuouxhsqe96)" height="48" id="ClientPlayerInput" style="stroke: #A80036; stroke-width: 1.5;" width="137" x="318.5" y="250"/><ellipse cx="333.5" cy="266" fill="#ADD1B2" rx="11" ry="11" style="stroke: #A80036; stroke-width: 1.0;"/><path d="M336.4688,271.6406 Q335.8906,271.9375 335.25,272.0781 Q334.6094,272.2344 333.9063,272.2344 Q331.4063,272.2344 330.0781,270.5938 Q328.7656,268.9375 328.7656,265.8125 Q328.7656,262.6875 330.0781,261.0313 Q331.4063,259.375 333.9063,259.375 Q334.6094,259.375 335.25,259.5313 Q335.9063,259.6875 336.4688,259.9844 L336.4688,262.7031 Q335.8438,262.125 335.25,261.8594 Q334.6563,261.5781 334.0313,261.5781 Q332.6875,261.5781 332,262.6563 Q331.3125,263.7188 331.3125,265.8125 Q331.3125,267.9063 332,268.9844 Q332.6875,270.0469 334.0313,270.0469 Q334.6563,270.0469 335.25,269.7813 Q335.8438,269.5 336.4688,268.9219 L336.4688,271.6406 Z "/><text fill="#000000" font-family="sans-serif" font-size="12" lengthAdjust="spacingAndGlyphs" textLength="105" x="347.5" y="270.1543">ClientPlayerInput</text><line style="stroke: #A80036; stroke-width: 1.5;" x1="319.5" x2="454.5" y1="282" y2="282"/><line style="stroke: #A80036; stroke-width: 1.5;" x1="319.5" x2="454.5" y1="290" y2="290"/><!--MD5=[05a207041529eb8ec1dd6c3486229959]
reverse link MonoBehaviour to DebugPlayerInput--><path d="M216,76.43 C216,89.33 216,103.32 216,115.71 " fill="none" id="MonoBehaviour&lt;-DebugPlayerInput" style="stroke: #A80036; stroke-width: 1.0;"/><polygon fill="none" points="209,76.23,216,56.23,223,76.23,209,76.23" style="stroke: #A80036; stroke-width: 1.0;"/><!--MD5=[71c055eb708cbb2335235599eeaf36e8]
link DebugPlayerInput to GameObject--><path d="M168.77,190.03 C144.8,208.32 116.2,230.13 94.35,246.8 " fill="none" id="DebugPlayerInput-&gt;GameObject" style="stroke: #A80036; stroke-width: 1.0;"/><polygon fill="#A80036" points="90.35,249.85,99.9321,247.5732,94.3258,246.8181,95.081,241.2118,90.35,249.85" style="stroke: #A80036; stroke-width: 1.0;"/><text fill="#000000" font-family="sans-serif" font-size="13" lengthAdjust="spacingAndGlyphs" textLength="39" x="54.1303" y="238.8236">player</text><!--MD5=[bf644aecef7a9589129ce976f6ab2fbf]
link DebugPlayerInput to IPlayerController--><path d="M216,190.03 C216,207.48 216,228.15 216,244.49 " fill="none" id="DebugPlayerInput-&gt;IPlayerController" style="stroke: #A80036; stroke-width: 1.0;"/><polygon fill="#A80036" points="216,249.85,220,240.85,216,244.85,212,240.85,216,249.85" style="stroke: #A80036; stroke-width: 1.0;"/><text fill="#000000" font-family="sans-serif" font-size="13" lengthAdjust="spacingAndGlyphs" textLength="101" x="114.6269" y="239.0017">playerController</text><!--MD5=[e038f35608bef2c9b1f79d061fa2737f]
link DebugPlayerInput to ClientPlayerInput--><path d="M267.77,190.03 C294.05,208.32 325.4,230.13 349.35,246.8 " fill="none" id="DebugPlayerInput-&gt;ClientPlayerInput" style="stroke: #A80036; stroke-width: 1.0;"/><polygon fill="#A80036" points="353.73,249.85,348.633,241.4226,349.6278,246.9913,344.0591,247.9861,353.73,249.85" style="stroke: #A80036; stroke-width: 1.0;"/><text fill="#000000" font-family="sans-serif" font-size="13" lengthAdjust="spacingAndGlyphs" textLength="105" x="270.5702" y="238.8236">clientPlayerInput</text><!--MD5=[df19d7c451e67ca735621e11bb3cbe61]
@startuml
class DebugPlayerInput {
    - Start() : void
    + Update() : void
}
MonoBehaviour <|- - DebugPlayerInput
DebugPlayerInput - -> "player" GameObject
DebugPlayerInput - -> "playerController" IPlayerController
DebugPlayerInput - -> "clientPlayerInput" ClientPlayerInput
@enduml

PlantUML version 1.2020.08(Sun Apr 26 14:08:22 GMT 2020)
(GPL source distribution)
Java Runtime: OpenJDK Runtime Environment
JVM: OpenJDK 64-Bit Server VM
Java Version: 15-ea+10
Operating System: Linux
Default Encoding: UTF-8
Language: en
Country: US
--></g></svg>