<?xml version="1.0" encoding="UTF-8" standalone="no"?><svg xmlns="http://www.w3.org/2000/svg" xmlns:xlink="http://www.w3.org/1999/xlink" contentScriptType="application/ecmascript" contentStyleType="text/css" height="213px" preserveAspectRatio="none" style="width:426px;height:213px;" version="1.1" viewBox="0 0 426 213" width="426px" zoomAndPan="magnify"><defs><filter height="300%" id="fiusbq0y6awph" width="300%" x="-1" y="-1"><feGaussianBlur result="blurOut" stdDeviation="2.0"/><feColorMatrix in="blurOut" result="blurOut2" type="matrix" values="0 0 0 0 0 0 0 0 0 0 0 0 0 0 0 0 0 0 .4 0"/><feOffset dx="4.0" dy="4.0" in="blurOut2" result="blurOut3"/><feBlend in="SourceGraphic" in2="blurOut3" mode="normal"/></filter></defs><g><!--MD5=[6f9d93183f26f6504ac8d53f7b944db7]
class InterpolationController--><rect fill="#FEFECE" filter="url(#fiusbq0y6awph)" height="86.4141" id="InterpolationController" style="stroke: #A80036; stroke-width: 1.5;" width="233" x="6" y="116"/><ellipse cx="48" cy="132" fill="#ADD1B2" rx="11" ry="11" style="stroke: #A80036; stroke-width: 1.0;"/><path d="M50.9688,137.6406 Q50.3906,137.9375 49.75,138.0781 Q49.1094,138.2344 48.4063,138.2344 Q45.9063,138.2344 44.5781,136.5938 Q43.2656,134.9375 43.2656,131.8125 Q43.2656,128.6875 44.5781,127.0313 Q45.9063,125.375 48.4063,125.375 Q49.1094,125.375 49.75,125.5313 Q50.4063,125.6875 50.9688,125.9844 L50.9688,128.7031 Q50.3438,128.125 49.75,127.8594 Q49.1563,127.5781 48.5313,127.5781 Q47.1875,127.5781 46.5,128.6563 Q45.8125,129.7188 45.8125,131.8125 Q45.8125,133.9063 46.5,134.9844 Q47.1875,136.0469 48.5313,136.0469 Q49.1563,136.0469 49.75,135.7813 Q50.3438,135.5 50.9688,134.9219 L50.9688,137.6406 Z "/><text fill="#000000" font-family="sans-serif" font-size="12" lengthAdjust="spacingAndGlyphs" textLength="141" x="68" y="136.1543">InterpolationController</text><line style="stroke: #A80036; stroke-width: 1.5;" x1="7" x2="238" y1="148" y2="148"/><ellipse cx="17" cy="159" fill="none" rx="3" ry="3" style="stroke: #038048; stroke-width: 1.0;"/><text fill="#000000" font-family="sans-serif" font-size="11" lengthAdjust="spacingAndGlyphs" text-decoration="underline" textLength="207" x="26" y="162.2104">InterpolationFactor : float «get» = 1f</text><line style="stroke: #A80036; stroke-width: 1.5;" x1="7" x2="238" y1="168.8047" y2="168.8047"/><rect fill="#F24D5C" height="6" style="stroke: #C82930; stroke-width: 1.0;" width="6" x="14" y="176.8047"/><text fill="#000000" font-family="sans-serif" font-size="11" lengthAdjust="spacingAndGlyphs" textLength="112" x="26" y="183.0151">FixedUpdate() : void</text><rect fill="#F24D5C" height="6" style="stroke: #C82930; stroke-width: 1.0;" width="6" x="14" y="189.6094"/><text fill="#000000" font-family="sans-serif" font-size="11" lengthAdjust="spacingAndGlyphs" textLength="83" x="26" y="195.8198">Update() : void</text><!--MD5=[f8a0d069522c3638247d8785ec7addf3]
class DoubleBuffer`1--><rect fill="#FEFECE" filter="url(#fiusbq0y6awph)" height="48" id="DoubleBuffer`1" style="stroke: #A80036; stroke-width: 1.5;" width="138" x="274.5" y="135"/><ellipse cx="289.5" cy="151" fill="#ADD1B2" rx="11" ry="11" style="stroke: #A80036; stroke-width: 1.0;"/><path d="M292.4688,156.6406 Q291.8906,156.9375 291.25,157.0781 Q290.6094,157.2344 289.9063,157.2344 Q287.4063,157.2344 286.0781,155.5938 Q284.7656,153.9375 284.7656,150.8125 Q284.7656,147.6875 286.0781,146.0313 Q287.4063,144.375 289.9063,144.375 Q290.6094,144.375 291.25,144.5313 Q291.9063,144.6875 292.4688,144.9844 L292.4688,147.7031 Q291.8438,147.125 291.25,146.8594 Q290.6563,146.5781 290.0313,146.5781 Q288.6875,146.5781 288,147.6563 Q287.3125,148.7188 287.3125,150.8125 Q287.3125,152.9063 288,153.9844 Q288.6875,155.0469 290.0313,155.0469 Q290.6563,155.0469 291.25,154.7813 Q291.8438,154.5 292.4688,153.9219 L292.4688,156.6406 Z "/><text fill="#000000" font-family="sans-serif" font-size="12" lengthAdjust="spacingAndGlyphs" textLength="95" x="303.5" y="155.1543">DoubleBuffer`1</text><rect fill="#FFFFFF" height="15.9688" style="stroke: #000000; stroke-width: 1.0; stroke-dasharray: 2.0,2.0;" width="9" x="406.5" y="132"/><text fill="#000000" font-family="sans-serif" font-size="12" font-style="italic" lengthAdjust="spacingAndGlyphs" textLength="7" x="407.5" y="144.1387">T</text><line style="stroke: #A80036; stroke-width: 1.5;" x1="275.5" x2="411.5" y1="167" y2="167"/><line style="stroke: #A80036; stroke-width: 1.5;" x1="275.5" x2="411.5" y1="175" y2="175"/><!--MD5=[83b3cf3d23d77c6f1e1b5291a241bc2a]
class MonoBehaviour--><rect fill="#FEFECE" filter="url(#fiusbq0y6awph)" height="48" id="MonoBehaviour" style="stroke: #A80036; stroke-width: 1.5;" width="128" x="58.5" y="8"/><ellipse cx="73.5" cy="24" fill="#ADD1B2" rx="11" ry="11" style="stroke: #A80036; stroke-width: 1.0;"/><path d="M76.4688,29.6406 Q75.8906,29.9375 75.25,30.0781 Q74.6094,30.2344 73.9063,30.2344 Q71.4063,30.2344 70.0781,28.5938 Q68.7656,26.9375 68.7656,23.8125 Q68.7656,20.6875 70.0781,19.0313 Q71.4063,17.375 73.9063,17.375 Q74.6094,17.375 75.25,17.5313 Q75.9063,17.6875 76.4688,17.9844 L76.4688,20.7031 Q75.8438,20.125 75.25,19.8594 Q74.6563,19.5781 74.0313,19.5781 Q72.6875,19.5781 72,20.6563 Q71.3125,21.7188 71.3125,23.8125 Q71.3125,25.9063 72,26.9844 Q72.6875,28.0469 74.0313,28.0469 Q74.6563,28.0469 75.25,27.7813 Q75.8438,27.5 76.4688,26.9219 L76.4688,29.6406 Z "/><text fill="#000000" font-family="sans-serif" font-size="12" lengthAdjust="spacingAndGlyphs" textLength="96" x="87.5" y="28.1543">MonoBehaviour</text><line style="stroke: #A80036; stroke-width: 1.5;" x1="59.5" x2="185.5" y1="40" y2="40"/><line style="stroke: #A80036; stroke-width: 1.5;" x1="59.5" x2="185.5" y1="48" y2="48"/><!--MD5=[2600d3b5bf65b36b27ca7f652e555650]
reverse link MonoBehaviour to InterpolationController--><path d="M122.5,76.27 C122.5,89.12 122.5,103.17 122.5,115.94 " fill="none" id="MonoBehaviour&lt;-InterpolationController" style="stroke: #A80036; stroke-width: 1.0;"/><polygon fill="none" points="115.5,76.22,122.5,56.22,129.5,76.22,115.5,76.22" style="stroke: #A80036; stroke-width: 1.0;"/><!--MD5=[3ac227ab3ad10065d5f3711e57a102e0]
link InterpolationController to DoubleBuffer`1--><path d="M251.04,159 C251.04,159 258.14,159 261.11,159 " fill="none" id="InterpolationController-DoubleBuffer`1" style="stroke: #A80036; stroke-width: 1.0;"/><polygon fill="#A80036" points="274.13,159,265.13,155,269.13,159,265.13,163,274.13,159" style="stroke: #A80036; stroke-width: 1.0;"/><line style="stroke: #A80036; stroke-width: 1.0;" x1="269.13" x2="261.13" y1="159" y2="159"/><polygon fill="#FFFFFF" points="239.04,159,245.04,163,251.04,159,245.04,155,239.04,159" style="stroke: #A80036; stroke-width: 1.0;"/><text fill="#000000" font-family="sans-serif" font-size="13" lengthAdjust="spacingAndGlyphs" textLength="158" x="238.9418" y="124.1375">timestampBuffer&lt;float&gt;</text><!--MD5=[f9645a4249facead6bca93426a003839]
@startuml
class InterpolationController {
    + {static} InterpolationFactor : float <<get>> = 1f
    - FixedUpdate() : void
    - Update() : void
}
class "DoubleBuffer`1"<T> {
}
MonoBehaviour <|- - InterpolationController
InterpolationController o-> "timestampBuffer<float>" "DoubleBuffer`1"
@enduml

PlantUML version 1.2020.08(Sun Apr 26 14:08:22 GMT 2020)
(GPL source distribution)
Java Runtime: OpenJDK Runtime Environment
JVM: OpenJDK 64-Bit Server VM
Java Version: 15-ea+10
Operating System: Linux
Default Encoding: UTF-8
Language: en
Country: US
--></g></svg>