<?xml version="1.0" encoding="UTF-8" standalone="no"?><svg xmlns="http://www.w3.org/2000/svg" xmlns:xlink="http://www.w3.org/1999/xlink" contentScriptType="application/ecmascript" contentStyleType="text/css" height="360px" preserveAspectRatio="none" style="width:614px;height:360px;" version="1.1" viewBox="0 0 614 360" width="614px" zoomAndPan="magnify"><defs><filter height="300%" id="fr4ga9a0vk3dt" width="300%" x="-1" y="-1"><feGaussianBlur result="blurOut" stdDeviation="2.0"/><feColorMatrix in="blurOut" result="blurOut2" type="matrix" values="0 0 0 0 0 0 0 0 0 0 0 0 0 0 0 0 0 0 .4 0"/><feOffset dx="4.0" dy="4.0" in="blurOut2" result="blurOut3"/><feBlend in="SourceGraphic" in2="blurOut3" mode="normal"/></filter></defs><g><!--MD5=[3fc904f6117d766a0ea0bd05526230af]
class RemotePlayerController--><rect fill="#FEFECE" filter="url(#fr4ga9a0vk3dt)" height="124.8281" id="RemotePlayerController" style="stroke: #A80036; stroke-width: 1.5;" width="273" x="16.5" y="116"/><ellipse cx="75.25" cy="132" fill="#ADD1B2" rx="11" ry="11" style="stroke: #A80036; stroke-width: 1.0;"/><path d="M78.2188,137.6406 Q77.6406,137.9375 77,138.0781 Q76.3594,138.2344 75.6563,138.2344 Q73.1563,138.2344 71.8281,136.5938 Q70.5156,134.9375 70.5156,131.8125 Q70.5156,128.6875 71.8281,127.0313 Q73.1563,125.375 75.6563,125.375 Q76.3594,125.375 77,125.5313 Q77.6563,125.6875 78.2188,125.9844 L78.2188,128.7031 Q77.5938,128.125 77,127.8594 Q76.4063,127.5781 75.7813,127.5781 Q74.4375,127.5781 73.75,128.6563 Q73.0625,129.7188 73.0625,131.8125 Q73.0625,133.9063 73.75,134.9844 Q74.4375,136.0469 75.7813,136.0469 Q76.4063,136.0469 77,135.7813 Q77.5938,135.5 78.2188,134.9219 L78.2188,137.6406 Z "/><text fill="#000000" font-family="sans-serif" font-size="12" lengthAdjust="spacingAndGlyphs" textLength="147" x="95.75" y="136.1543">RemotePlayerController</text><line style="stroke: #A80036; stroke-width: 1.5;" x1="17.5" x2="288.5" y1="148" y2="148"/><rect fill="none" height="6" style="stroke: #C82930; stroke-width: 1.0;" width="6" x="24.5" y="156"/><text fill="#000000" font-family="sans-serif" font-size="11" lengthAdjust="spacingAndGlyphs" textLength="171" x="36.5" y="162.2104">lastState : PlayerState? = null</text><rect fill="none" height="6" style="stroke: #C82930; stroke-width: 1.0;" width="6" x="24.5" y="168.8047"/><text fill="#000000" font-family="sans-serif" font-size="11" lengthAdjust="spacingAndGlyphs" textLength="123" x="36.5" y="175.0151">stateTimer : float = 0</text><line style="stroke: #A80036; stroke-width: 1.5;" x1="17.5" x2="288.5" y1="181.6094" y2="181.6094"/><ellipse cx="27.5" cy="192.6094" fill="#84BE84" rx="3" ry="3" style="stroke: #038048; stroke-width: 1.0;"/><text fill="#000000" font-family="sans-serif" font-size="11" lengthAdjust="spacingAndGlyphs" textLength="241" x="36.5" y="195.8198">SetPlayerInputs(inputs:PlayerInputs) : void</text><ellipse cx="27.5" cy="205.4141" fill="#84BE84" rx="3" ry="3" style="stroke: #038048; stroke-width: 1.0;"/><text fill="#000000" font-family="sans-serif" font-size="11" lengthAdjust="spacingAndGlyphs" textLength="133" x="36.5" y="208.6245">Simulate(dt:float) : void</text><ellipse cx="27.5" cy="218.2188" fill="#84BE84" rx="3" ry="3" style="stroke: #038048; stroke-width: 1.0;"/><text fill="#000000" font-family="sans-serif" font-size="11" lengthAdjust="spacingAndGlyphs" textLength="175" x="36.5" y="221.4292">ToNetworkState() : PlayerState</text><ellipse cx="27.5" cy="231.0234" fill="#84BE84" rx="3" ry="3" style="stroke: #038048; stroke-width: 1.0;"/><text fill="#000000" font-family="sans-serif" font-size="11" lengthAdjust="spacingAndGlyphs" textLength="247" x="36.5" y="234.2339">ApplyNetworkState(state:PlayerState) : void</text><!--MD5=[da8c3974d335aac350241f92734c9c19]
class Queue`1--><rect fill="#FEFECE" filter="url(#fr4ga9a0vk3dt)" height="48" id="Queue`1" style="stroke: #A80036; stroke-width: 1.5;" width="98" x="325" y="154.5"/><ellipse cx="340" cy="170.5" fill="#ADD1B2" rx="11" ry="11" style="stroke: #A80036; stroke-width: 1.0;"/><path d="M342.9688,176.1406 Q342.3906,176.4375 341.75,176.5781 Q341.1094,176.7344 340.4063,176.7344 Q337.9063,176.7344 336.5781,175.0938 Q335.2656,173.4375 335.2656,170.3125 Q335.2656,167.1875 336.5781,165.5313 Q337.9063,163.875 340.4063,163.875 Q341.1094,163.875 341.75,164.0313 Q342.4063,164.1875 342.9688,164.4844 L342.9688,167.2031 Q342.3438,166.625 341.75,166.3594 Q341.1563,166.0781 340.5313,166.0781 Q339.1875,166.0781 338.5,167.1563 Q337.8125,168.2188 337.8125,170.3125 Q337.8125,172.4063 338.5,173.4844 Q339.1875,174.5469 340.5313,174.5469 Q341.1563,174.5469 341.75,174.2813 Q342.3438,174 342.9688,173.4219 L342.9688,176.1406 Z "/><text fill="#000000" font-family="sans-serif" font-size="12" lengthAdjust="spacingAndGlyphs" textLength="55" x="354" y="174.6543">Queue`1</text><rect fill="#FFFFFF" height="15.9688" style="stroke: #000000; stroke-width: 1.0; stroke-dasharray: 2.0,2.0;" width="9" x="417" y="151.5"/><text fill="#000000" font-family="sans-serif" font-size="12" font-style="italic" lengthAdjust="spacingAndGlyphs" textLength="7" x="418" y="163.6387">T</text><line style="stroke: #A80036; stroke-width: 1.5;" x1="326" x2="422" y1="186.5" y2="186.5"/><line style="stroke: #A80036; stroke-width: 1.5;" x1="326" x2="422" y1="194.5" y2="194.5"/><!--MD5=[83b3cf3d23d77c6f1e1b5291a241bc2a]
class MonoBehaviour--><rect fill="#FEFECE" filter="url(#fr4ga9a0vk3dt)" height="48" id="MonoBehaviour" style="stroke: #A80036; stroke-width: 1.5;" width="128" x="6" y="8"/><ellipse cx="21" cy="24" fill="#ADD1B2" rx="11" ry="11" style="stroke: #A80036; stroke-width: 1.0;"/><path d="M23.9688,29.6406 Q23.3906,29.9375 22.75,30.0781 Q22.1094,30.2344 21.4063,30.2344 Q18.9063,30.2344 17.5781,28.5938 Q16.2656,26.9375 16.2656,23.8125 Q16.2656,20.6875 17.5781,19.0313 Q18.9063,17.375 21.4063,17.375 Q22.1094,17.375 22.75,17.5313 Q23.4063,17.6875 23.9688,17.9844 L23.9688,20.7031 Q23.3438,20.125 22.75,19.8594 Q22.1563,19.5781 21.5313,19.5781 Q20.1875,19.5781 19.5,20.6563 Q18.8125,21.7188 18.8125,23.8125 Q18.8125,25.9063 19.5,26.9844 Q20.1875,28.0469 21.5313,28.0469 Q22.1563,28.0469 22.75,27.7813 Q23.3438,27.5 23.9688,26.9219 L23.9688,29.6406 Z "/><text fill="#000000" font-family="sans-serif" font-size="12" lengthAdjust="spacingAndGlyphs" textLength="96" x="35" y="28.1543">MonoBehaviour</text><line style="stroke: #A80036; stroke-width: 1.5;" x1="7" x2="133" y1="40" y2="40"/><line style="stroke: #A80036; stroke-width: 1.5;" x1="7" x2="133" y1="48" y2="48"/><!--MD5=[d7c09c2ef0556dd515b6819707a16934]
class IPlayerController--><rect fill="#FEFECE" filter="url(#fr4ga9a0vk3dt)" height="48" id="IPlayerController" style="stroke: #A80036; stroke-width: 1.5;" width="134" x="169" y="8"/><ellipse cx="184" cy="24" fill="#ADD1B2" rx="11" ry="11" style="stroke: #A80036; stroke-width: 1.0;"/><path d="M186.9688,29.6406 Q186.3906,29.9375 185.75,30.0781 Q185.1094,30.2344 184.4063,30.2344 Q181.9063,30.2344 180.5781,28.5938 Q179.2656,26.9375 179.2656,23.8125 Q179.2656,20.6875 180.5781,19.0313 Q181.9063,17.375 184.4063,17.375 Q185.1094,17.375 185.75,17.5313 Q186.4063,17.6875 186.9688,17.9844 L186.9688,20.7031 Q186.3438,20.125 185.75,19.8594 Q185.1563,19.5781 184.5313,19.5781 Q183.1875,19.5781 182.5,20.6563 Q181.8125,21.7188 181.8125,23.8125 Q181.8125,25.9063 182.5,26.9844 Q183.1875,28.0469 184.5313,28.0469 Q185.1563,28.0469 185.75,27.7813 Q186.3438,27.5 186.9688,26.9219 L186.9688,29.6406 Z "/><text fill="#000000" font-family="sans-serif" font-size="12" lengthAdjust="spacingAndGlyphs" textLength="102" x="198" y="28.1543">IPlayerController</text><line style="stroke: #A80036; stroke-width: 1.5;" x1="170" x2="302" y1="40" y2="40"/><line style="stroke: #A80036; stroke-width: 1.5;" x1="170" x2="302" y1="48" y2="48"/><!--MD5=[65d619c042c23702cef2ca07d67b1cf6]
class Vector3--><rect fill="#FEFECE" filter="url(#fr4ga9a0vk3dt)" height="48" id="Vector3" style="stroke: #A80036; stroke-width: 1.5;" width="81" x="112.5" y="301"/><ellipse cx="127.5" cy="317" fill="#ADD1B2" rx="11" ry="11" style="stroke: #A80036; stroke-width: 1.0;"/><path d="M130.4688,322.6406 Q129.8906,322.9375 129.25,323.0781 Q128.6094,323.2344 127.9063,323.2344 Q125.4063,323.2344 124.0781,321.5938 Q122.7656,319.9375 122.7656,316.8125 Q122.7656,313.6875 124.0781,312.0313 Q125.4063,310.375 127.9063,310.375 Q128.6094,310.375 129.25,310.5313 Q129.9063,310.6875 130.4688,310.9844 L130.4688,313.7031 Q129.8438,313.125 129.25,312.8594 Q128.6563,312.5781 128.0313,312.5781 Q126.6875,312.5781 126,313.6563 Q125.3125,314.7188 125.3125,316.8125 Q125.3125,318.9063 126,319.9844 Q126.6875,321.0469 128.0313,321.0469 Q128.6563,321.0469 129.25,320.7813 Q129.8438,320.5 130.4688,319.9219 L130.4688,322.6406 Z "/><text fill="#000000" font-family="sans-serif" font-size="12" lengthAdjust="spacingAndGlyphs" textLength="49" x="141.5" y="321.1543">Vector3</text><line style="stroke: #A80036; stroke-width: 1.5;" x1="113.5" x2="192.5" y1="333" y2="333"/><line style="stroke: #A80036; stroke-width: 1.5;" x1="113.5" x2="192.5" y1="341" y2="341"/><!--MD5=[4c7b140fed10e9877852f4b8dc88c33d]
class Quaternion--><rect fill="#FEFECE" filter="url(#fr4ga9a0vk3dt)" height="48" id="Quaternion" style="stroke: #A80036; stroke-width: 1.5;" width="102" x="229" y="301"/><ellipse cx="244" cy="317" fill="#ADD1B2" rx="11" ry="11" style="stroke: #A80036; stroke-width: 1.0;"/><path d="M246.9688,322.6406 Q246.3906,322.9375 245.75,323.0781 Q245.1094,323.2344 244.4063,323.2344 Q241.9063,323.2344 240.5781,321.5938 Q239.2656,319.9375 239.2656,316.8125 Q239.2656,313.6875 240.5781,312.0313 Q241.9063,310.375 244.4063,310.375 Q245.1094,310.375 245.75,310.5313 Q246.4063,310.6875 246.9688,310.9844 L246.9688,313.7031 Q246.3438,313.125 245.75,312.8594 Q245.1563,312.5781 244.5313,312.5781 Q243.1875,312.5781 242.5,313.6563 Q241.8125,314.7188 241.8125,316.8125 Q241.8125,318.9063 242.5,319.9844 Q243.1875,321.0469 244.5313,321.0469 Q245.1563,321.0469 245.75,320.7813 Q246.3438,320.5 246.9688,319.9219 L246.9688,322.6406 Z "/><text fill="#000000" font-family="sans-serif" font-size="12" lengthAdjust="spacingAndGlyphs" textLength="70" x="258" y="321.1543">Quaternion</text><line style="stroke: #A80036; stroke-width: 1.5;" x1="230" x2="330" y1="333" y2="333"/><line style="stroke: #A80036; stroke-width: 1.5;" x1="230" x2="330" y1="341" y2="341"/><!--MD5=[df4bf49eba96f220735b9064bdb5f5f3]
reverse link MonoBehaviour to RemotePlayerController--><path d="M93.5,73.9 C101.01,86.99 109.5,101.77 117.67,115.99 " fill="none" id="MonoBehaviour&lt;-RemotePlayerController" style="stroke: #A80036; stroke-width: 1.0;"/><polygon fill="none" points="87.23,77.05,83.34,56.22,99.37,70.07,87.23,77.05" style="stroke: #A80036; stroke-width: 1.0;"/><!--MD5=[2be61132ad8adab1a432f02412713c77]
reverse link IPlayerController to RemotePlayerController--><path d="M212.5,73.9 C204.99,86.99 196.5,101.77 188.33,115.99 " fill="none" id="IPlayerController&lt;-RemotePlayerController" style="stroke: #A80036; stroke-width: 1.0;"/><polygon fill="none" points="206.63,70.07,222.66,56.22,218.77,77.05,206.63,70.07" style="stroke: #A80036; stroke-width: 1.0;"/><!--MD5=[178758a8a8527156ac4ef221830fd75c]
link RemotePlayerController to Vector3--><path d="M140.37,241.2 C139.93,260.22 140.69,280.24 142.65,295.83 " fill="none" id="RemotePlayerController-&gt;Vector3" style="stroke: #A80036; stroke-width: 1.0;"/><polygon fill="#A80036" points="143.36,300.94,146.0623,291.4691,142.6609,295.9891,138.1409,292.5877,143.36,300.94" style="stroke: #A80036; stroke-width: 1.0;"/><text fill="#000000" font-family="sans-serif" font-size="13" lengthAdjust="spacingAndGlyphs" textLength="48" x="86.7398" y="289.9367">velocity</text><!--MD5=[178758a8a8527156ac4ef221830fd75c]
link RemotePlayerController to Vector3--><path d="M166.37,241.2 C166.84,260.22 166.03,280.24 163.96,295.83 " fill="none" id="RemotePlayerController-&gt;Vector3-1" style="stroke: #A80036; stroke-width: 1.0;"/><polygon fill="#A80036" points="163.2,300.94,168.4662,292.6173,163.9271,295.9931,160.5512,291.454,163.2,300.94" style="stroke: #A80036; stroke-width: 1.0;"/><text fill="#000000" font-family="sans-serif" font-size="13" lengthAdjust="spacingAndGlyphs" textLength="89" x="177.1258" y="289.8748">targetPosition</text><!--MD5=[23c16e800ed155edd5eac54698cb3698]
link RemotePlayerController to Quaternion--><path d="M207.23,241.2 C224.38,260.72 242.46,281.28 256.3,297.04 " fill="none" id="RemotePlayerController-&gt;Quaternion" style="stroke: #A80036; stroke-width: 1.0;"/><polygon fill="#A80036" points="259.73,300.94,256.7961,291.5383,256.4304,297.1833,250.7854,296.8176,259.73,300.94" style="stroke: #A80036; stroke-width: 1.0;"/><text fill="#000000" font-family="sans-serif" font-size="13" lengthAdjust="spacingAndGlyphs" textLength="92" x="266.3233" y="289.9367">targetRotation</text><!--MD5=[ac09859c62b98f836ec04f83a66b9c14]
link RemotePlayerController to Queue`1--><path d="M301.83,178.5 C301.83,178.5 308.57,178.5 311.41,178.5 " fill="none" id="RemotePlayerController-Queue`1" style="stroke: #A80036; stroke-width: 1.0;"/><polygon fill="#A80036" points="324.68,178.5,315.68,174.5,319.68,178.5,315.68,182.5,324.68,178.5" style="stroke: #A80036; stroke-width: 1.0;"/><line style="stroke: #A80036; stroke-width: 1.0;" x1="319.68" x2="311.68" y1="178.5" y2="178.5"/><polygon fill="#FFFFFF" points="289.83,178.5,295.83,182.5,301.83,178.5,295.83,174.5,289.83,178.5" style="stroke: #A80036; stroke-width: 1.0;"/><text fill="#000000" font-family="sans-serif" font-size="13" lengthAdjust="spacingAndGlyphs" textLength="171" x="431.411" y="153.6378">stateQueue&lt;PlayerState&gt;</text><!--MD5=[87bdf448dd1afabdb581494dc1253168]
@startuml
class RemotePlayerController {
    - lastState : PlayerState? = null
    - stateTimer : float = 0
    + SetPlayerInputs(inputs:PlayerInputs) : void
    + Simulate(dt:float) : void
    + ToNetworkState() : PlayerState
    + ApplyNetworkState(state:PlayerState) : void
}
class "Queue`1"<T> {
}
MonoBehaviour <|- - RemotePlayerController
IPlayerController <|- - RemotePlayerController
RemotePlayerController - -> "velocity" Vector3
RemotePlayerController - -> "targetPosition" Vector3
RemotePlayerController - -> "targetRotation" Quaternion
RemotePlayerController o-> "stateQueue<PlayerState>" "Queue`1"
@enduml

PlantUML version 1.2020.08(Sun Apr 26 14:08:22 GMT 2020)
(GPL source distribution)
Java Runtime: OpenJDK Runtime Environment
JVM: OpenJDK 64-Bit Server VM
Java Version: 15-ea+10
Operating System: Linux
Default Encoding: UTF-8
Language: en
Country: US
--></g></svg>