<?xml version="1.0" encoding="UTF-8" standalone="no"?><svg xmlns="http://www.w3.org/2000/svg" xmlns:xlink="http://www.w3.org/1999/xlink" contentScriptType="application/ecmascript" contentStyleType="text/css" height="118px" preserveAspectRatio="none" style="width:969px;height:118px;" version="1.1" viewBox="0 0 969 118" width="969px" zoomAndPan="magnify"><defs><filter height="300%" id="f1i5wjwn652brb" width="300%" x="-1" y="-1"><feGaussianBlur result="blurOut" stdDeviation="2.0"/><feColorMatrix in="blurOut" result="blurOut2" type="matrix" values="0 0 0 0 0 0 0 0 0 0 0 0 0 0 0 0 0 0 .4 0"/><feOffset dx="4.0" dy="4.0" in="blurOut2" result="blurOut3"/><feBlend in="SourceGraphic" in2="blurOut3" mode="normal"/></filter></defs><g><!--MD5=[60805ee2f1c06a5af721632316ae90e1]
class PlayerSimulationAdjuster--><rect fill="#FEFECE" filter="url(#f1i5wjwn652brb)" height="99.2188" id="PlayerSimulationAdjuster" style="stroke: #A80036; stroke-width: 1.5;" width="646" x="6" y="8"/><ellipse cx="247.25" cy="24" fill="#ADD1B2" rx="11" ry="11" style="stroke: #A80036; stroke-width: 1.0;"/><path d="M250.2188,29.6406 Q249.6406,29.9375 249,30.0781 Q248.3594,30.2344 247.6563,30.2344 Q245.1563,30.2344 243.8281,28.5938 Q242.5156,26.9375 242.5156,23.8125 Q242.5156,20.6875 243.8281,19.0313 Q245.1563,17.375 247.6563,17.375 Q248.3594,17.375 249,17.5313 Q249.6563,17.6875 250.2188,17.9844 L250.2188,20.7031 Q249.5938,20.125 249,19.8594 Q248.4063,19.5781 247.7813,19.5781 Q246.4375,19.5781 245.75,20.6563 Q245.0625,21.7188 245.0625,23.8125 Q245.0625,25.9063 245.75,26.9844 Q246.4375,28.0469 247.7813,28.0469 Q248.4063,28.0469 249,27.7813 Q249.5938,27.5 250.2188,26.9219 L250.2188,29.6406 Z "/><text fill="#000000" font-family="sans-serif" font-size="12" lengthAdjust="spacingAndGlyphs" textLength="155" x="267.75" y="28.1543">PlayerSimulationAdjuster</text><line style="stroke: #A80036; stroke-width: 1.5;" x1="7" x2="651" y1="40" y2="40"/><line style="stroke: #A80036; stroke-width: 1.5;" x1="7" x2="651" y1="48" y2="48"/><ellipse cx="17" cy="59" fill="#84BE84" rx="3" ry="3" style="stroke: #038048; stroke-width: 1.0;"/><text fill="#000000" font-family="sans-serif" font-size="11" lengthAdjust="spacingAndGlyphs" textLength="343" x="26" y="62.2104">PlayerSimulationAdjuster(handler:ServerSimulation.Handler)</text><ellipse cx="17" cy="71.8047" fill="#84BE84" rx="3" ry="3" style="stroke: #038048; stroke-width: 1.0;"/><text fill="#000000" font-family="sans-serif" font-size="11" lengthAdjust="spacingAndGlyphs" textLength="225" x="26" y="75.0151">NotifyDroppedInput(player:Player) : void</text><ellipse cx="17" cy="84.6094" fill="#84BE84" rx="3" ry="3" style="stroke: #038048; stroke-width: 1.0;"/><text fill="#000000" font-family="sans-serif" font-size="11" lengthAdjust="spacingAndGlyphs" textLength="620" x="26" y="87.8198">NotifyReceivedInput(command:NetCommand.PlayerInputCommand, player:Player, serverWorldTick:uint) : void</text><rect fill="#F24D5C" height="6" style="stroke: #C82930; stroke-width: 1.0;" width="6" x="14" y="94.4141"/><text fill="#000000" font-family="sans-serif" font-size="11" lengthAdjust="spacingAndGlyphs" textLength="377" x="26" y="100.6245">MaybeAdjust(player:Player, actualTickLead:int, tickOffset:int) : void</text><!--MD5=[2e1ff885372daab8d802f213ced6c836]
class Dictionary`2--><rect fill="#FEFECE" filter="url(#f1i5wjwn652brb)" height="48" id="Dictionary`2" style="stroke: #A80036; stroke-width: 1.5;" width="146" x="687" y="33.5"/><ellipse cx="702" cy="49.5" fill="#ADD1B2" rx="11" ry="11" style="stroke: #A80036; stroke-width: 1.0;"/><path d="M704.9688,55.1406 Q704.3906,55.4375 703.75,55.5781 Q703.1094,55.7344 702.4063,55.7344 Q699.9063,55.7344 698.5781,54.0938 Q697.2656,52.4375 697.2656,49.3125 Q697.2656,46.1875 698.5781,44.5313 Q699.9063,42.875 702.4063,42.875 Q703.1094,42.875 703.75,43.0313 Q704.4063,43.1875 704.9688,43.4844 L704.9688,46.2031 Q704.3438,45.625 703.75,45.3594 Q703.1563,45.0781 702.5313,45.0781 Q701.1875,45.0781 700.5,46.1563 Q699.8125,47.2188 699.8125,49.3125 Q699.8125,51.4063 700.5,52.4844 Q701.1875,53.5469 702.5313,53.5469 Q703.1563,53.5469 703.75,53.2813 Q704.3438,53 704.9688,52.4219 L704.9688,55.1406 Z "/><text fill="#000000" font-family="sans-serif" font-size="12" lengthAdjust="spacingAndGlyphs" textLength="76" x="716" y="53.6543">Dictionary`2</text><rect fill="#FFFFFF" height="15.9688" style="stroke: #000000; stroke-width: 1.0; stroke-dasharray: 2.0,2.0;" width="36" x="800" y="30.5"/><text fill="#000000" font-family="sans-serif" font-size="12" font-style="italic" lengthAdjust="spacingAndGlyphs" textLength="34" x="801" y="42.6387">T1,T2</text><line style="stroke: #A80036; stroke-width: 1.5;" x1="688" x2="832" y1="65.5" y2="65.5"/><line style="stroke: #A80036; stroke-width: 1.5;" x1="688" x2="832" y1="73.5" y2="73.5"/><!--MD5=[e08556c0a4e905b541b853dfb81e0954]
link PlayerSimulationAdjuster to Dictionary`2--><path d="M664.0535,83.1771 C664.0535,83.1771 671.03,81.83 673.96,81.23 " fill="none" id="PlayerSimulationAdjuster-Dictionary`2" style="stroke: #A80036; stroke-width: 1.0;"/><polygon fill="#A80036" points="686.76,78.45,677.1141,76.4608,681.875,79.516,678.8198,84.2769,686.76,78.45" style="stroke: #A80036; stroke-width: 1.0;"/><line style="stroke: #A80036; stroke-width: 1.0;" x1="681.875" x2="674.06" y1="79.516" y2="81.205"/><polygon fill="#FFFFFF" points="652.25,85.34,658.8727,88.1931,664.0535,83.1771,657.4308,80.3241,652.25,85.34" style="stroke: #A80036; stroke-width: 1.0;"/><text fill="#000000" font-family="sans-serif" font-size="13" lengthAdjust="spacingAndGlyphs" textLength="251" x="706.6841" y="101.3888">lastAdjustmentTimes&lt;byte,DateTime&gt;</text><!--MD5=[e08556c0a4e905b541b853dfb81e0954]
link PlayerSimulationAdjuster to Dictionary`2--><path d="M664.0535,31.8229 C664.0535,31.8229 671.03,33.17 673.96,33.77 " fill="none" id="PlayerSimulationAdjuster-Dictionary`2-1" style="stroke: #A80036; stroke-width: 1.0;"/><polygon fill="#A80036" points="686.76,36.55,678.8198,30.7231,681.875,35.484,677.1141,38.5392,686.76,36.55" style="stroke: #A80036; stroke-width: 1.0;"/><line style="stroke: #A80036; stroke-width: 1.0;" x1="681.875" x2="674.06" y1="35.484" y2="33.795"/><polygon fill="#FFFFFF" points="652.25,29.66,657.4308,34.6759,664.0535,31.8229,658.8727,26.8069,652.25,29.66" style="stroke: #A80036; stroke-width: 1.0;"/><text fill="#000000" font-family="sans-serif" font-size="13" lengthAdjust="spacingAndGlyphs" textLength="239" x="704.9749" y="22.4409">lastIdealInputTimes&lt;byte,DateTime&gt;</text><!--MD5=[2f0a3ae8a27a4fd2e2b59756a13c8db1]
@startuml
class PlayerSimulationAdjuster {
    + PlayerSimulationAdjuster(handler:ServerSimulation.Handler)
    + NotifyDroppedInput(player:Player) : void
    + NotifyReceivedInput(command:NetCommand.PlayerInputCommand, player:Player, serverWorldTick:uint) : void
    - MaybeAdjust(player:Player, actualTickLead:int, tickOffset:int) : void
}
class "Dictionary`2"<T1,T2> {
}
PlayerSimulationAdjuster o-> "lastAdjustmentTimes<byte,DateTime>" "Dictionary`2"
PlayerSimulationAdjuster o-> "lastIdealInputTimes<byte,DateTime>" "Dictionary`2"
@enduml

PlantUML version 1.2020.08(Sun Apr 26 14:08:22 GMT 2020)
(GPL source distribution)
Java Runtime: OpenJDK Runtime Environment
JVM: OpenJDK 64-Bit Server VM
Java Version: 15-ea+10
Operating System: Linux
Default Encoding: UTF-8
Language: en
Country: US
--></g></svg>