<?xml version="1.0" encoding="UTF-8" standalone="no"?><svg xmlns="http://www.w3.org/2000/svg" xmlns:xlink="http://www.w3.org/1999/xlink" contentScriptType="application/ecmascript" contentStyleType="text/css" height="462px" preserveAspectRatio="none" style="width:850px;height:462px;" version="1.1" viewBox="0 0 850 462" width="850px" zoomAndPan="magnify"><defs><filter height="300%" id="f1ibcyrh7tod6s" width="300%" x="-1" y="-1"><feGaussianBlur result="blurOut" stdDeviation="2.0"/><feColorMatrix in="blurOut" result="blurOut2" type="matrix" values="0 0 0 0 0 0 0 0 0 0 0 0 0 0 0 0 0 0 .4 0"/><feOffset dx="4.0" dy="4.0" in="blurOut2" result="blurOut3"/><feBlend in="SourceGraphic" in2="blurOut3" mode="normal"/></filter></defs><g><!--MD5=[13ee10f80c3465c7c810166cd624a079]
class ServerLogicController--><rect fill="#FEFECE" filter="url(#f1ibcyrh7tod6s)" height="227.2656" id="ServerLogicController" style="stroke: #A80036; stroke-width: 1.5;" width="504" x="6" y="116"/><ellipse cx="187.25" cy="132" fill="#ADD1B2" rx="11" ry="11" style="stroke: #A80036; stroke-width: 1.0;"/><path d="M190.2188,137.6406 Q189.6406,137.9375 189,138.0781 Q188.3594,138.2344 187.6563,138.2344 Q185.1563,138.2344 183.8281,136.5938 Q182.5156,134.9375 182.5156,131.8125 Q182.5156,128.6875 183.8281,127.0313 Q185.1563,125.375 187.6563,125.375 Q188.3594,125.375 189,125.5313 Q189.6563,125.6875 190.2188,125.9844 L190.2188,128.7031 Q189.5938,128.125 189,127.8594 Q188.4063,127.5781 187.7813,127.5781 Q186.4375,127.5781 185.75,128.6563 Q185.0625,129.7188 185.0625,131.8125 Q185.0625,133.9063 185.75,134.9844 Q186.4375,136.0469 187.7813,136.0469 Q188.4063,136.0469 189,135.7813 Q189.5938,135.5 190.2188,134.9219 L190.2188,137.6406 Z "/><text fill="#000000" font-family="sans-serif" font-size="12" lengthAdjust="spacingAndGlyphs" textLength="133" x="207.75" y="136.1543">ServerLogicController</text><line style="stroke: #A80036; stroke-width: 1.5;" x1="7" x2="509" y1="148" y2="148"/><ellipse cx="17" cy="159" fill="none" rx="3" ry="3" style="stroke: #038048; stroke-width: 1.0;"/><text fill="#000000" font-family="sans-serif" font-size="11" lengthAdjust="spacingAndGlyphs" textLength="186" x="26" y="162.2104">debugPhysicsErrorChance : float</text><line style="stroke: #A80036; stroke-width: 1.5;" x1="7" x2="509" y1="168.8047" y2="168.8047"/><polygon fill="#FFFF44" points="17,174.8047,21,178.8047,17,182.8047,13,178.8047" style="stroke: #B38D22; stroke-width: 1.0;"/><text fill="#000000" font-family="sans-serif" font-size="11" lengthAdjust="spacingAndGlyphs" textLength="144" x="26" y="183.0151">«override» Awake() : void</text><polygon fill="#FFFF44" points="17,187.6094,21,191.6094,17,195.6094,13,191.6094" style="stroke: #B38D22; stroke-width: 1.0;"/><text fill="#000000" font-family="sans-serif" font-size="11" lengthAdjust="spacingAndGlyphs" textLength="136" x="26" y="195.8198">«override» Start() : void</text><polygon fill="#FFFF44" points="17,200.4141,21,204.4141,17,208.4141,13,204.4141" style="stroke: #B38D22; stroke-width: 1.0;"/><text fill="#000000" font-family="sans-serif" font-size="11" lengthAdjust="spacingAndGlyphs" textLength="148" x="26" y="208.6245">«override» Update() : void</text><polygon fill="#FFFF44" points="17,213.2188,21,217.2188,17,221.2188,13,217.2188" style="stroke: #B38D22; stroke-width: 1.0;"/><text fill="#000000" font-family="sans-serif" font-size="11" lengthAdjust="spacingAndGlyphs" textLength="234" x="26" y="221.4292">«override» TearDownGameScene() : void</text><ellipse cx="17" cy="231.0234" fill="#84BE84" rx="3" ry="3" style="stroke: #038048; stroke-width: 1.0;"/><text fill="#000000" font-family="sans-serif" font-size="11" lengthAdjust="spacingAndGlyphs" textLength="275" x="26" y="234.2339">«async» StartServer(host:string, port:int) : Task</text><ellipse cx="17" cy="243.8281" fill="#84BE84" rx="3" ry="3" style="stroke: #038048; stroke-width: 1.0;"/><text fill="#000000" font-family="sans-serif" font-size="11" lengthAdjust="spacingAndGlyphs" textLength="370" x="26" y="247.0386">«async» StartServer(host:string, port:int, loadScene:bool) : Task</text><rect fill="#F24D5C" height="6" style="stroke: #C82930; stroke-width: 1.0;" width="6" x="14" y="253.6328"/><text fill="#000000" font-family="sans-serif" font-size="11" lengthAdjust="spacingAndGlyphs" textLength="394" x="26" y="259.8433">CreateServerPlayer(peer:NetPeer, metadata:PlayerMetadata) : Player</text><rect fill="#F24D5C" height="6" style="stroke: #C82930; stroke-width: 1.0;" width="6" x="14" y="266.4375"/><text fill="#000000" font-family="sans-serif" font-size="11" lengthAdjust="spacingAndGlyphs" textLength="234" x="26" y="272.6479">DestroyServerPlayer(player:Player) : void</text><ellipse cx="17" cy="282.2422" fill="#84BE84" rx="3" ry="3" style="stroke: #038048; stroke-width: 1.0;"/><text fill="#000000" font-family="sans-serif" font-size="11" lengthAdjust="spacingAndGlyphs" textLength="390" x="26" y="285.4526">SendWorldState(player:Player, state:NetCommand.WorldState) : void</text><rect fill="#F24D5C" height="6" style="stroke: #C82930; stroke-width: 1.0;" width="6" x="14" y="292.0469"/><text fill="#000000" font-family="sans-serif" font-size="11" lengthAdjust="spacingAndGlyphs" textLength="406" x="26" y="298.2573">HandleJoinRequest(cmd:NetCommand.JoinRequest, peer:NetPeer) : void</text><rect fill="#F24D5C" height="6" style="stroke: #C82930; stroke-width: 1.0;" width="6" x="14" y="304.8516"/><text fill="#000000" font-family="sans-serif" font-size="11" lengthAdjust="spacingAndGlyphs" textLength="458" x="26" y="311.062">HandlePlayerInput(cmd:NetCommand.PlayerInputCommand, peer:NetPeer) : void</text><polygon fill="#FFFF44" points="17,315.6563,21,319.6563,17,323.6563,13,319.6563" style="stroke: #B38D22; stroke-width: 1.0;"/><text fill="#000000" font-family="sans-serif" font-size="11" lengthAdjust="spacingAndGlyphs" textLength="285" x="26" y="323.8667">«override» OnPeerConnected(peer:NetPeer) : void</text><polygon fill="#FFFF44" points="17,328.4609,21,332.4609,17,336.4609,13,332.4609" style="stroke: #B38D22; stroke-width: 1.0;"/><text fill="#000000" font-family="sans-serif" font-size="11" lengthAdjust="spacingAndGlyphs" textLength="478" x="26" y="336.6714">«override» OnPeerDisconnected(peer:NetPeer, disconnectInfo:DisconnectInfo) : void</text><!--MD5=[75f1770188bed72f5adae599261d97dc]
class HashSet`1--><rect fill="#FEFECE" filter="url(#f1ibcyrh7tod6s)" height="48" id="HashSet`1" style="stroke: #A80036; stroke-width: 1.5;" width="110" x="545" y="205.5"/><ellipse cx="560" cy="221.5" fill="#ADD1B2" rx="11" ry="11" style="stroke: #A80036; stroke-width: 1.0;"/><path d="M562.9688,227.1406 Q562.3906,227.4375 561.75,227.5781 Q561.1094,227.7344 560.4063,227.7344 Q557.9063,227.7344 556.5781,226.0938 Q555.2656,224.4375 555.2656,221.3125 Q555.2656,218.1875 556.5781,216.5313 Q557.9063,214.875 560.4063,214.875 Q561.1094,214.875 561.75,215.0313 Q562.4063,215.1875 562.9688,215.4844 L562.9688,218.2031 Q562.3438,217.625 561.75,217.3594 Q561.1563,217.0781 560.5313,217.0781 Q559.1875,217.0781 558.5,218.1563 Q557.8125,219.2188 557.8125,221.3125 Q557.8125,223.4063 558.5,224.4844 Q559.1875,225.5469 560.5313,225.5469 Q561.1563,225.5469 561.75,225.2813 Q562.3438,225 562.9688,224.4219 L562.9688,227.1406 Z "/><text fill="#000000" font-family="sans-serif" font-size="12" lengthAdjust="spacingAndGlyphs" textLength="67" x="574" y="225.6543">HashSet`1</text><rect fill="#FFFFFF" height="15.9688" style="stroke: #000000; stroke-width: 1.0; stroke-dasharray: 2.0,2.0;" width="9" x="649" y="202.5"/><text fill="#000000" font-family="sans-serif" font-size="12" font-style="italic" lengthAdjust="spacingAndGlyphs" textLength="7" x="650" y="214.6387">T</text><line style="stroke: #A80036; stroke-width: 1.5;" x1="546" x2="654" y1="237.5" y2="237.5"/><line style="stroke: #A80036; stroke-width: 1.5;" x1="546" x2="654" y1="245.5" y2="245.5"/><!--MD5=[676f25e776fbcc543819148b2a3275a2]
class BaseLogicController--><rect fill="#FEFECE" filter="url(#f1ibcyrh7tod6s)" height="48" id="BaseLogicController" style="stroke: #A80036; stroke-width: 1.5;" width="156" x="180" y="8"/><ellipse cx="195" cy="24" fill="#ADD1B2" rx="11" ry="11" style="stroke: #A80036; stroke-width: 1.0;"/><path d="M197.9688,29.6406 Q197.3906,29.9375 196.75,30.0781 Q196.1094,30.2344 195.4063,30.2344 Q192.9063,30.2344 191.5781,28.5938 Q190.2656,26.9375 190.2656,23.8125 Q190.2656,20.6875 191.5781,19.0313 Q192.9063,17.375 195.4063,17.375 Q196.1094,17.375 196.75,17.5313 Q197.4063,17.6875 197.9688,17.9844 L197.9688,20.7031 Q197.3438,20.125 196.75,19.8594 Q196.1563,19.5781 195.5313,19.5781 Q194.1875,19.5781 193.5,20.6563 Q192.8125,21.7188 192.8125,23.8125 Q192.8125,25.9063 193.5,26.9844 Q194.1875,28.0469 195.5313,28.0469 Q196.1563,28.0469 196.75,27.7813 Q197.3438,27.5 197.9688,26.9219 L197.9688,29.6406 Z "/><text fill="#000000" font-family="sans-serif" font-size="12" lengthAdjust="spacingAndGlyphs" textLength="124" x="209" y="28.1543">BaseLogicController</text><line style="stroke: #A80036; stroke-width: 1.5;" x1="181" x2="335" y1="40" y2="40"/><line style="stroke: #A80036; stroke-width: 1.5;" x1="181" x2="335" y1="48" y2="48"/><!--MD5=[b8c81e89fa787e7064602473912cd2da]
class ServerSimulation--><rect fill="#FEFECE" filter="url(#f1ibcyrh7tod6s)" height="48" id="ServerSimulation" style="stroke: #A80036; stroke-width: 1.5;" width="137" x="189.5" y="403"/><ellipse cx="204.5" cy="419" fill="#ADD1B2" rx="11" ry="11" style="stroke: #A80036; stroke-width: 1.0;"/><path d="M207.4688,424.6406 Q206.8906,424.9375 206.25,425.0781 Q205.6094,425.2344 204.9063,425.2344 Q202.4063,425.2344 201.0781,423.5938 Q199.7656,421.9375 199.7656,418.8125 Q199.7656,415.6875 201.0781,414.0313 Q202.4063,412.375 204.9063,412.375 Q205.6094,412.375 206.25,412.5313 Q206.9063,412.6875 207.4688,412.9844 L207.4688,415.7031 Q206.8438,415.125 206.25,414.8594 Q205.6563,414.5781 205.0313,414.5781 Q203.6875,414.5781 203,415.6563 Q202.3125,416.7188 202.3125,418.8125 Q202.3125,420.9063 203,421.9844 Q203.6875,423.0469 205.0313,423.0469 Q205.6563,423.0469 206.25,422.7813 Q206.8438,422.5 207.4688,421.9219 L207.4688,424.6406 Z "/><text fill="#000000" font-family="sans-serif" font-size="12" lengthAdjust="spacingAndGlyphs" textLength="105" x="218.5" y="423.1543">ServerSimulation</text><line style="stroke: #A80036; stroke-width: 1.5;" x1="190.5" x2="325.5" y1="435" y2="435"/><line style="stroke: #A80036; stroke-width: 1.5;" x1="190.5" x2="325.5" y1="443" y2="443"/><!--MD5=[236b1325ec9f703c740d27b96d7f0354]
reverse link BaseLogicController to ServerLogicController--><path d="M258,76.38 C258,88.38 258,101.97 258,115.98 " fill="none" id="BaseLogicController&lt;-ServerLogicController" style="stroke: #A80036; stroke-width: 1.0;"/><polygon fill="none" points="251,76.19,258,56.19,265,76.19,251,76.19" style="stroke: #A80036; stroke-width: 1.0;"/><!--MD5=[3d430267c7248c95c82b5bcb86accd44]
link ServerLogicController to ServerSimulation--><path d="M258,343.09 C258,363.35 258,382.74 258,397.67 " fill="none" id="ServerLogicController-&gt;ServerSimulation" style="stroke: #A80036; stroke-width: 1.0;"/><polygon fill="#A80036" points="258,402.96,262,393.96,258,397.96,254,393.96,258,402.96" style="stroke: #A80036; stroke-width: 1.0;"/><text fill="#000000" font-family="sans-serif" font-size="13" lengthAdjust="spacingAndGlyphs" textLength="66" x="183.5438" y="391.9618">simulation</text><!--MD5=[40391389704f214c6bf1ac7f77e63dfd]
link ServerLogicController to HashSet`1--><path d="M522.16,229.5 C522.16,229.5 528.84,229.5 531.67,229.5 " fill="none" id="ServerLogicController-HashSet`1" style="stroke: #A80036; stroke-width: 1.0;"/><polygon fill="#A80036" points="544.9,229.5,535.9,225.5,539.9,229.5,535.9,233.5,544.9,229.5" style="stroke: #A80036; stroke-width: 1.0;"/><line style="stroke: #A80036; stroke-width: 1.0;" x1="539.9" x2="531.9" y1="229.5" y2="229.5"/><polygon fill="#FFFFFF" points="510.16,229.5,516.16,233.5,522.16,229.5,516.16,225.5,510.16,229.5" style="stroke: #A80036; stroke-width: 1.0;"/><text fill="#000000" font-family="sans-serif" font-size="13" lengthAdjust="spacingAndGlyphs" textLength="177" x="661.8" y="200.5493">connectedPeers&lt;NetPeer&gt;</text><!--MD5=[28d5e60432293293e42d4a71cf194188]
@startuml
class ServerLogicController {
    + debugPhysicsErrorChance : float
    # <<override>> Awake() : void
    # <<override>> Start() : void
    # <<override>> Update() : void
    # <<override>> TearDownGameScene() : void
    + <<async>> StartServer(host:string, port:int) : Task
    + <<async>> StartServer(host:string, port:int, loadScene:bool) : Task
    - CreateServerPlayer(peer:NetPeer, metadata:PlayerMetadata) : Player
    - DestroyServerPlayer(player:Player) : void
    + SendWorldState(player:Player, state:NetCommand.WorldState) : void
    - HandleJoinRequest(cmd:NetCommand.JoinRequest, peer:NetPeer) : void
    - HandlePlayerInput(cmd:NetCommand.PlayerInputCommand, peer:NetPeer) : void
    # <<override>> OnPeerConnected(peer:NetPeer) : void
    # <<override>> OnPeerDisconnected(peer:NetPeer, disconnectInfo:DisconnectInfo) : void
}
class "HashSet`1"<T> {
}
BaseLogicController <|- - ServerLogicController
ServerLogicController - -> "simulation" ServerSimulation
ServerLogicController o-> "connectedPeers<NetPeer>" "HashSet`1"
@enduml

PlantUML version 1.2020.08(Sun Apr 26 14:08:22 GMT 2020)
(GPL source distribution)
Java Runtime: OpenJDK Runtime Environment
JVM: OpenJDK 64-Bit Server VM
Java Version: 15-ea+10
Operating System: Linux
Default Encoding: UTF-8
Language: en
Country: US
--></g></svg>