<?xml version="1.0" encoding="UTF-8" standalone="no"?><svg xmlns="http://www.w3.org/2000/svg" xmlns:xlink="http://www.w3.org/1999/xlink" contentScriptType="application/ecmascript" contentStyleType="text/css" height="436px" preserveAspectRatio="none" style="width:1208px;height:436px;" version="1.1" viewBox="0 0 1208 436" width="1208px" zoomAndPan="magnify"><defs><filter height="300%" id="f12j32csezgh72" width="300%" x="-1" y="-1"><feGaussianBlur result="blurOut" stdDeviation="2.0"/><feColorMatrix in="blurOut" result="blurOut2" type="matrix" values="0 0 0 0 0 0 0 0 0 0 0 0 0 0 0 0 0 0 .4 0"/><feOffset dx="4.0" dy="4.0" in="blurOut2" result="blurOut3"/><feBlend in="SourceGraphic" in2="blurOut3" mode="normal"/></filter></defs><g><!--MD5=[384ecbc70729286ddde4a5387bb092f4]
class PlayerConnectionInfo--><rect fill="#FEFECE" filter="url(#f12j32csezgh72)" height="73.6094" id="PlayerConnectionInfo" style="stroke: #A80036; stroke-width: 1.5;" width="164" x="536" y="8"/><ellipse cx="551" cy="24" fill="#ADD1B2" rx="11" ry="11" style="stroke: #A80036; stroke-width: 1.0;"/><path d="M553.9688,29.6406 Q553.3906,29.9375 552.75,30.0781 Q552.1094,30.2344 551.4063,30.2344 Q548.9063,30.2344 547.5781,28.5938 Q546.2656,26.9375 546.2656,23.8125 Q546.2656,20.6875 547.5781,19.0313 Q548.9063,17.375 551.4063,17.375 Q552.1094,17.375 552.75,17.5313 Q553.4063,17.6875 553.9688,17.9844 L553.9688,20.7031 Q553.3438,20.125 552.75,19.8594 Q552.1563,19.5781 551.5313,19.5781 Q550.1875,19.5781 549.5,20.6563 Q548.8125,21.7188 548.8125,23.8125 Q548.8125,25.9063 549.5,26.9844 Q550.1875,28.0469 551.5313,28.0469 Q552.1563,28.0469 552.75,27.7813 Q553.3438,27.5 553.9688,26.9219 L553.9688,29.6406 Z "/><text fill="#000000" font-family="sans-serif" font-size="12" lengthAdjust="spacingAndGlyphs" textLength="132" x="565" y="28.1543">PlayerConnectionInfo</text><line style="stroke: #A80036; stroke-width: 1.5;" x1="537" x2="699" y1="40" y2="40"/><ellipse cx="547" cy="51" fill="none" rx="3" ry="3" style="stroke: #038048; stroke-width: 1.0;"/><text fill="#000000" font-family="sans-serif" font-size="11" lengthAdjust="spacingAndGlyphs" textLength="110" x="556" y="54.2104">synchronized : bool</text><ellipse cx="547" cy="63.8047" fill="none" rx="3" ry="3" style="stroke: #038048; stroke-width: 1.0;"/><text fill="#000000" font-family="sans-serif" font-size="11" lengthAdjust="spacingAndGlyphs" textLength="115" x="556" y="67.0151">latestInputTick : uint</text><line style="stroke: #A80036; stroke-width: 1.5;" x1="537" x2="699" y1="73.6094" y2="73.6094"/><!--MD5=[b8c81e89fa787e7064602473912cd2da]
class ServerSimulation--><rect fill="#FEFECE" filter="url(#f12j32csezgh72)" height="163.2422" id="ServerSimulation" style="stroke: #A80036; stroke-width: 1.5;" width="862" x="6" y="142"/><ellipse cx="380.25" cy="158" fill="#ADD1B2" rx="11" ry="11" style="stroke: #A80036; stroke-width: 1.0;"/><path d="M383.2188,163.6406 Q382.6406,163.9375 382,164.0781 Q381.3594,164.2344 380.6563,164.2344 Q378.1563,164.2344 376.8281,162.5938 Q375.5156,160.9375 375.5156,157.8125 Q375.5156,154.6875 376.8281,153.0313 Q378.1563,151.375 380.6563,151.375 Q381.3594,151.375 382,151.5313 Q382.6563,151.6875 383.2188,151.9844 L383.2188,154.7031 Q382.5938,154.125 382,153.8594 Q381.4063,153.5781 380.7813,153.5781 Q379.4375,153.5781 378.75,154.6563 Q378.0625,155.7188 378.0625,157.8125 Q378.0625,159.9063 378.75,160.9844 Q379.4375,162.0469 380.7813,162.0469 Q381.4063,162.0469 382,161.7813 Q382.5938,161.5 383.2188,160.9219 L383.2188,163.6406 Z "/><text fill="#000000" font-family="sans-serif" font-size="12" lengthAdjust="spacingAndGlyphs" textLength="105" x="400.75" y="162.1543">ServerSimulation</text><line style="stroke: #A80036; stroke-width: 1.5;" x1="7" x2="867" y1="174" y2="174"/><ellipse cx="17" cy="185" fill="none" rx="3" ry="3" style="stroke: #038048; stroke-width: 1.0;"/><text fill="#000000" font-family="sans-serif" font-size="11" lengthAdjust="spacingAndGlyphs" textLength="186" x="26" y="188.2104">debugPhysicsErrorChance : float</text><rect fill="none" height="6" style="stroke: #C82930; stroke-width: 1.0;" width="6" x="14" y="194.8047"/><text fill="#000000" font-family="sans-serif" font-size="11" lengthAdjust="spacingAndGlyphs" textLength="103" x="26" y="201.0151">missedInputs : int</text><line style="stroke: #A80036; stroke-width: 1.5;" x1="7" x2="867" y1="207.6094" y2="207.6094"/><ellipse cx="17" cy="218.6094" fill="#84BE84" rx="3" ry="3" style="stroke: #038048; stroke-width: 1.0;"/><text fill="#000000" font-family="sans-serif" font-size="11" lengthAdjust="spacingAndGlyphs" textLength="836" x="26" y="221.8198">ServerSimulation(debugPhysicsErrorChance:float, playerManager:PlayerManager, networkObjectManager:NetworkObjectManager, handler:Handler)</text><ellipse cx="17" cy="231.4141" fill="#84BE84" rx="3" ry="3" style="stroke: #038048; stroke-width: 1.0;"/><text fill="#000000" font-family="sans-serif" font-size="11" lengthAdjust="spacingAndGlyphs" textLength="227" x="26" y="234.6245">InitializePlayerState(player:Player) : void</text><ellipse cx="17" cy="244.2188" fill="#84BE84" rx="3" ry="3" style="stroke: #038048; stroke-width: 1.0;"/><text fill="#000000" font-family="sans-serif" font-size="11" lengthAdjust="spacingAndGlyphs" textLength="212" x="26" y="247.4292">ClearPlayerState(player:Player) : void</text><ellipse cx="17" cy="257.0234" fill="#84BE84" rx="3" ry="3" style="stroke: #038048; stroke-width: 1.0;"/><text fill="#000000" font-family="sans-serif" font-size="11" lengthAdjust="spacingAndGlyphs" textLength="456" x="26" y="260.2339">EnqueuePlayerInput(input:WithPeer&lt;NetCommand.PlayerInputCommand&gt;) : void</text><polygon fill="#FFFF44" points="17,264.8281,21,268.8281,17,272.8281,13,268.8281" style="stroke: #B38D22; stroke-width: 1.0;"/><text fill="#000000" font-family="sans-serif" font-size="11" lengthAdjust="spacingAndGlyphs" textLength="170" x="26" y="273.0386">«override» Tick(dt:float) : void</text><polygon fill="#FFFF44" points="17,277.6328,21,281.6328,17,285.6328,13,281.6328" style="stroke: #B38D22; stroke-width: 1.0;"/><text fill="#000000" font-family="sans-serif" font-size="11" lengthAdjust="spacingAndGlyphs" textLength="173" x="26" y="285.8433">«override» PostUpdate() : void</text><rect fill="#F24D5C" height="6" style="stroke: #C82930; stroke-width: 1.0;" width="6" x="14" y="292.4375"/><text fill="#000000" font-family="sans-serif" font-size="11" lengthAdjust="spacingAndGlyphs" textLength="202" x="26" y="298.6479">BroadcastWorldState(dt:float) : void</text><!--MD5=[75f1770188bed72f5adae599261d97dc]
class HashSet`1--><rect fill="#FEFECE" filter="url(#f12j32csezgh72)" height="48" id="HashSet`1" style="stroke: #A80036; stroke-width: 1.5;" width="110" x="1084" y="199.5"/><ellipse cx="1099" cy="215.5" fill="#ADD1B2" rx="11" ry="11" style="stroke: #A80036; stroke-width: 1.0;"/><path d="M1101.9688,221.1406 Q1101.3906,221.4375 1100.75,221.5781 Q1100.1094,221.7344 1099.4063,221.7344 Q1096.9063,221.7344 1095.5781,220.0938 Q1094.2656,218.4375 1094.2656,215.3125 Q1094.2656,212.1875 1095.5781,210.5313 Q1096.9063,208.875 1099.4063,208.875 Q1100.1094,208.875 1100.75,209.0313 Q1101.4063,209.1875 1101.9688,209.4844 L1101.9688,212.2031 Q1101.3438,211.625 1100.75,211.3594 Q1100.1563,211.0781 1099.5313,211.0781 Q1098.1875,211.0781 1097.5,212.1563 Q1096.8125,213.2188 1096.8125,215.3125 Q1096.8125,217.4063 1097.5,218.4844 Q1098.1875,219.5469 1099.5313,219.5469 Q1100.1563,219.5469 1100.75,219.2813 Q1101.3438,219 1101.9688,218.4219 L1101.9688,221.1406 Z "/><text fill="#000000" font-family="sans-serif" font-size="12" lengthAdjust="spacingAndGlyphs" textLength="67" x="1113" y="219.6543">HashSet`1</text><rect fill="#FFFFFF" height="15.9688" style="stroke: #000000; stroke-width: 1.0; stroke-dasharray: 2.0,2.0;" width="9" x="1188" y="196.5"/><text fill="#000000" font-family="sans-serif" font-size="12" font-style="italic" lengthAdjust="spacingAndGlyphs" textLength="7" x="1189" y="208.6387">T</text><line style="stroke: #A80036; stroke-width: 1.5;" x1="1085" x2="1193" y1="231.5" y2="231.5"/><line style="stroke: #A80036; stroke-width: 1.5;" x1="1085" x2="1193" y1="239.5" y2="239.5"/><!--MD5=[2e1ff885372daab8d802f213ced6c836]
class Dictionary`2--><rect fill="#FEFECE" filter="url(#f12j32csezgh72)" height="48" id="Dictionary`2" style="stroke: #A80036; stroke-width: 1.5;" width="146" x="903" y="199.5"/><ellipse cx="918" cy="215.5" fill="#ADD1B2" rx="11" ry="11" style="stroke: #A80036; stroke-width: 1.0;"/><path d="M920.9688,221.1406 Q920.3906,221.4375 919.75,221.5781 Q919.1094,221.7344 918.4063,221.7344 Q915.9063,221.7344 914.5781,220.0938 Q913.2656,218.4375 913.2656,215.3125 Q913.2656,212.1875 914.5781,210.5313 Q915.9063,208.875 918.4063,208.875 Q919.1094,208.875 919.75,209.0313 Q920.4063,209.1875 920.9688,209.4844 L920.9688,212.2031 Q920.3438,211.625 919.75,211.3594 Q919.1563,211.0781 918.5313,211.0781 Q917.1875,211.0781 916.5,212.1563 Q915.8125,213.2188 915.8125,215.3125 Q915.8125,217.4063 916.5,218.4844 Q917.1875,219.5469 918.5313,219.5469 Q919.1563,219.5469 919.75,219.2813 Q920.3438,219 920.9688,218.4219 L920.9688,221.1406 Z "/><text fill="#000000" font-family="sans-serif" font-size="12" lengthAdjust="spacingAndGlyphs" textLength="76" x="932" y="219.6543">Dictionary`2</text><rect fill="#FFFFFF" height="15.9688" style="stroke: #000000; stroke-width: 1.0; stroke-dasharray: 2.0,2.0;" width="36" x="1016" y="196.5"/><text fill="#000000" font-family="sans-serif" font-size="12" font-style="italic" lengthAdjust="spacingAndGlyphs" textLength="34" x="1017" y="208.6387">T1,T2</text><line style="stroke: #A80036; stroke-width: 1.5;" x1="904" x2="1048" y1="231.5" y2="231.5"/><line style="stroke: #A80036; stroke-width: 1.5;" x1="904" x2="1048" y1="239.5" y2="239.5"/><!--MD5=[a83d828be13d333e1fddb3d4d9d97191]
class Handler--><rect fill="#FEFECE" filter="url(#f12j32csezgh72)" height="60.8047" id="Handler" style="stroke: #A80036; stroke-width: 1.5;" width="402" x="77" y="365"/><ellipse cx="249.25" cy="381" fill="#B4A7E5" rx="11" ry="11" style="stroke: #A80036; stroke-width: 1.0;"/><path d="M245.1719,376.7656 L245.1719,374.6094 L252.5625,374.6094 L252.5625,376.7656 L250.0938,376.7656 L250.0938,384.8438 L252.5625,384.8438 L252.5625,387 L245.1719,387 L245.1719,384.8438 L247.6406,384.8438 L247.6406,376.7656 L245.1719,376.7656 Z "/><text fill="#000000" font-family="sans-serif" font-size="12" font-style="italic" lengthAdjust="spacingAndGlyphs" textLength="49" x="269.75" y="385.1543">Handler</text><line style="stroke: #A80036; stroke-width: 1.5;" x1="78" x2="478" y1="397" y2="397"/><line style="stroke: #A80036; stroke-width: 1.5;" x1="78" x2="478" y1="405" y2="405"/><text fill="#000000" font-family="sans-serif" font-size="11" lengthAdjust="spacingAndGlyphs" textLength="390" x="83" y="419.2104">SendWorldState(player:Player, state:NetCommand.WorldState) : void</text><!--MD5=[43edc08a0fca8ad76d8e88ee9c991f1b]
class BaseSimulation--><rect fill="#FEFECE" filter="url(#f12j32csezgh72)" height="48" id="BaseSimulation" style="stroke: #A80036; stroke-width: 1.5;" width="128" x="373" y="21"/><ellipse cx="388" cy="37" fill="#ADD1B2" rx="11" ry="11" style="stroke: #A80036; stroke-width: 1.0;"/><path d="M390.9688,42.6406 Q390.3906,42.9375 389.75,43.0781 Q389.1094,43.2344 388.4063,43.2344 Q385.9063,43.2344 384.5781,41.5938 Q383.2656,39.9375 383.2656,36.8125 Q383.2656,33.6875 384.5781,32.0313 Q385.9063,30.375 388.4063,30.375 Q389.1094,30.375 389.75,30.5313 Q390.4063,30.6875 390.9688,30.9844 L390.9688,33.7031 Q390.3438,33.125 389.75,32.8594 Q389.1563,32.5781 388.5313,32.5781 Q387.1875,32.5781 386.5,33.6563 Q385.8125,34.7188 385.8125,36.8125 Q385.8125,38.9063 386.5,39.9844 Q387.1875,41.0469 388.5313,41.0469 Q389.1563,41.0469 389.75,40.7813 Q390.3438,40.5 390.9688,39.9219 L390.9688,42.6406 Z "/><text fill="#000000" font-family="sans-serif" font-size="12" lengthAdjust="spacingAndGlyphs" textLength="96" x="402" y="41.1543">BaseSimulation</text><line style="stroke: #A80036; stroke-width: 1.5;" x1="374" x2="500" y1="53" y2="53"/><line style="stroke: #A80036; stroke-width: 1.5;" x1="374" x2="500" y1="61" y2="61"/><!--MD5=[05d167ed85521254781c2ff4fa0c833d]
class PlayerInputProcessor--><rect fill="#FEFECE" filter="url(#f12j32csezgh72)" height="48" id="PlayerInputProcessor" style="stroke: #A80036; stroke-width: 1.5;" width="165" x="514.5" y="371.5"/><ellipse cx="529.5" cy="387.5" fill="#ADD1B2" rx="11" ry="11" style="stroke: #A80036; stroke-width: 1.0;"/><path d="M532.4688,393.1406 Q531.8906,393.4375 531.25,393.5781 Q530.6094,393.7344 529.9063,393.7344 Q527.4063,393.7344 526.0781,392.0938 Q524.7656,390.4375 524.7656,387.3125 Q524.7656,384.1875 526.0781,382.5313 Q527.4063,380.875 529.9063,380.875 Q530.6094,380.875 531.25,381.0313 Q531.9063,381.1875 532.4688,381.4844 L532.4688,384.2031 Q531.8438,383.625 531.25,383.3594 Q530.6563,383.0781 530.0313,383.0781 Q528.6875,383.0781 528,384.1563 Q527.3125,385.2188 527.3125,387.3125 Q527.3125,389.4063 528,390.4844 Q528.6875,391.5469 530.0313,391.5469 Q530.6563,391.5469 531.25,391.2813 Q531.8438,391 532.4688,390.4219 L532.4688,393.1406 Z "/><text fill="#000000" font-family="sans-serif" font-size="12" lengthAdjust="spacingAndGlyphs" textLength="133" x="543.5" y="391.6543">PlayerInputProcessor</text><line style="stroke: #A80036; stroke-width: 1.5;" x1="515.5" x2="678.5" y1="403.5" y2="403.5"/><line style="stroke: #A80036; stroke-width: 1.5;" x1="515.5" x2="678.5" y1="411.5" y2="411.5"/><!--MD5=[17f8b05f4e096e017944387434c9e079]
class FixedTimer--><rect fill="#FEFECE" filter="url(#f12j32csezgh72)" height="48" id="FixedTimer" style="stroke: #A80036; stroke-width: 1.5;" width="98" x="715" y="371.5"/><ellipse cx="730" cy="387.5" fill="#ADD1B2" rx="11" ry="11" style="stroke: #A80036; stroke-width: 1.0;"/><path d="M732.9688,393.1406 Q732.3906,393.4375 731.75,393.5781 Q731.1094,393.7344 730.4063,393.7344 Q727.9063,393.7344 726.5781,392.0938 Q725.2656,390.4375 725.2656,387.3125 Q725.2656,384.1875 726.5781,382.5313 Q727.9063,380.875 730.4063,380.875 Q731.1094,380.875 731.75,381.0313 Q732.4063,381.1875 732.9688,381.4844 L732.9688,384.2031 Q732.3438,383.625 731.75,383.3594 Q731.1563,383.0781 730.5313,383.0781 Q729.1875,383.0781 728.5,384.1563 Q727.8125,385.2188 727.8125,387.3125 Q727.8125,389.4063 728.5,390.4844 Q729.1875,391.5469 730.5313,391.5469 Q731.1563,391.5469 731.75,391.2813 Q732.3438,391 732.9688,390.4219 L732.9688,393.1406 Z "/><text fill="#000000" font-family="sans-serif" font-size="12" lengthAdjust="spacingAndGlyphs" textLength="66" x="744" y="391.6543">FixedTimer</text><line style="stroke: #A80036; stroke-width: 1.5;" x1="716" x2="812" y1="403.5" y2="403.5"/><line style="stroke: #A80036; stroke-width: 1.5;" x1="716" x2="812" y1="411.5" y2="411.5"/><!--MD5=[d92d841afabed0848692e40b27dbfbe5]
reverse link BaseSimulation to ServerSimulation--><path d="M437,89.15 C437,105.07 437,123.67 437,141.84 " fill="none" id="BaseSimulation&lt;-ServerSimulation" style="stroke: #A80036; stroke-width: 1.0;"/><polygon fill="none" points="430,89.07,437,69.07,444,89.07,430,89.07" style="stroke: #A80036; stroke-width: 1.0;"/><!--MD5=[d89d4ae715841e1b1181b220643e3207]
link ServerSimulation to PlayerInputProcessor--><path d="M512.78,305.02 C533.96,327.52 555.53,350.44 571.54,367.45 " fill="none" id="ServerSimulation-&gt;PlayerInputProcessor" style="stroke: #A80036; stroke-width: 1.0;"/><polygon fill="#A80036" points="575.07,371.2,571.8145,361.9047,571.6432,367.559,565.9889,367.3877,575.07,371.2" style="stroke: #A80036; stroke-width: 1.0;"/><text fill="#000000" font-family="sans-serif" font-size="13" lengthAdjust="spacingAndGlyphs" textLength="134" x="585.8825" y="360.4702">playerInputProcessor</text><!--MD5=[7f9ef8ae4ea9b6d03278e5f4b9734073]
link ServerSimulation to HashSet`1--><path d="M721.454,139.0189 C721.454,139.0189 991.08,83.98 1049.5,112 C1082.11,127.64 1106.59,161.59 1121.63,187.94 " fill="none" id="ServerSimulation-HashSet`1" style="stroke: #A80036; stroke-width: 1.0;"/><polygon fill="#A80036" points="1127.87,199.43,1127.0797,189.6129,1125.4792,195.0386,1120.0535,193.4382,1127.87,199.43" style="stroke: #A80036; stroke-width: 1.0;"/><line style="stroke: #A80036; stroke-width: 1.0;" x1="1125.4792" x2="1121.665" y1="195.0386" y2="188.005"/><polygon fill="#FFFFFF" points="709.81,141.92,716.5991,144.3508,721.454,139.0189,714.665,136.5881,709.81,141.92" style="stroke: #A80036; stroke-width: 1.0;"/><text fill="#000000" font-family="sans-serif" font-size="13" lengthAdjust="spacingAndGlyphs" textLength="189" x="911.8023" y="188.4241">unprocessedPlayerIds&lt;byte&gt;</text><!--MD5=[59b8e4b438ed1efd383648d554f06717]
link ServerSimulation to Dictionary`2--><path d="M880.09,223.5 C880.09,223.5 886.66,223.5 889.33,223.5 " fill="none" id="ServerSimulation-Dictionary`2" style="stroke: #A80036; stroke-width: 1.0;"/><polygon fill="#A80036" points="902.66,223.5,893.66,219.5,897.66,223.5,893.66,227.5,902.66,223.5" style="stroke: #A80036; stroke-width: 1.0;"/><line style="stroke: #A80036; stroke-width: 1.0;" x1="897.66" x2="889.66" y1="223.5" y2="223.5"/><polygon fill="#FFFFFF" points="868.09,223.5,874.09,227.5,880.09,223.5,874.09,219.5,868.09,223.5" style="stroke: #A80036; stroke-width: 1.0;"/><text fill="#000000" font-family="sans-serif" font-size="13" lengthAdjust="spacingAndGlyphs" textLength="322" x="724.3753" y="267.5577">playerConnectionInfo&lt;byte,PlayerConnectionInfo&gt;</text><!--MD5=[bf1081e69eb59d72bc4b9b37e61c1a02]
link ServerSimulation to Handler--><path d="M348.96,305.02 C330.47,324.64 312.59,344.58 299.24,360.64 " fill="none" id="ServerSimulation-&gt;Handler" style="stroke: #A80036; stroke-width: 1.0;"/><polygon fill="#A80036" points="295.95,364.64,304.7557,360.2286,299.1255,360.7779,298.5762,355.1477,295.95,364.64" style="stroke: #A80036; stroke-width: 1.0;"/><text fill="#000000" font-family="sans-serif" font-size="13" lengthAdjust="spacingAndGlyphs" textLength="48" x="246.7022" y="353.829">handler</text><!--MD5=[23a12b0ff45b913c10c006feab61f9c3]
reverse link ServerSimulation to Handler--><path d="M364.89,316 C348.23,333.6 331.15,350.83 316.49,364.64 " fill="none" id="ServerSimulation&lt;-Handler" style="stroke: #A80036; stroke-width: 1.0;"/><ellipse cx="369.699" cy="310.8568" fill="#FFFFFF" rx="8" ry="8" style="stroke: #A80036; stroke-width: 1.0;"/><line style="stroke: #A80036; stroke-width: 1.0;" x1="364.228" x2="375.17" y1="316.6935" y2="305.02"/><line style="stroke: #A80036; stroke-width: 1.0;" x1="363.8622" x2="375.5358" y1="305.3858" y2="316.3278"/><!--MD5=[d5be5f26f670e2e4d98e646c87ce91b4]
link ServerSimulation to FixedTimer--><path d="M591.88,305.02 C636.41,328.17 681.79,351.76 714.77,368.91 " fill="none" id="ServerSimulation-&gt;FixedTimer" style="stroke: #A80036; stroke-width: 1.0;"/><polygon fill="#A80036" points="719.54,371.39,713.3965,363.6921,715.1027,369.0855,709.7093,370.7917,719.54,371.39" style="stroke: #A80036; stroke-width: 1.0;"/><text fill="#000000" font-family="sans-serif" font-size="13" lengthAdjust="spacingAndGlyphs" textLength="169" x="729.8003" y="360.3738">worldStateBroadcastTimer</text><!--MD5=[d48a32f38d9fdbe8786ca013c5d61f91]
@startuml
class PlayerConnectionInfo {
    + synchronized : bool
    + latestInputTick : uint
}
class ServerSimulation {
    + debugPhysicsErrorChance : float
    - missedInputs : int
    + ServerSimulation(debugPhysicsErrorChance:float, playerManager:PlayerManager, networkObjectManager:NetworkObjectManager, handler:Handler)
    + InitializePlayerState(player:Player) : void
    + ClearPlayerState(player:Player) : void
    + EnqueuePlayerInput(input:WithPeer<NetCommand.PlayerInputCommand>) : void
    # <<override>> Tick(dt:float) : void
    # <<override>> PostUpdate() : void
    - BroadcastWorldState(dt:float) : void
}
class "HashSet`1"<T> {
}
class "Dictionary`2"<T1,T2> {
}
interface Handler {
    SendWorldState(player:Player, state:NetCommand.WorldState) : void
}
BaseSimulation <|- - ServerSimulation
ServerSimulation - -> "playerInputProcessor" PlayerInputProcessor
ServerSimulation o-> "unprocessedPlayerIds<byte>" "HashSet`1"
ServerSimulation o-> "playerConnectionInfo<byte,PlayerConnectionInfo>" "Dictionary`2"
ServerSimulation - -> "handler" Handler
ServerSimulation - -> "worldStateBroadcastTimer" FixedTimer
ServerSimulation +- - Handler
@enduml

PlantUML version 1.2020.08(Sun Apr 26 14:08:22 GMT 2020)
(GPL source distribution)
Java Runtime: OpenJDK Runtime Environment
JVM: OpenJDK 64-Bit Server VM
Java Version: 15-ea+10
Operating System: Linux
Default Encoding: UTF-8
Language: en
Country: US
--></g></svg>