<?xml version="1.0" encoding="UTF-8" standalone="no"?><svg xmlns="http://www.w3.org/2000/svg" xmlns:xlink="http://www.w3.org/1999/xlink" contentScriptType="application/ecmascript" contentStyleType="text/css" height="251px" preserveAspectRatio="none" style="width:337px;height:251px;" version="1.1" viewBox="0 0 337 251" width="337px" zoomAndPan="magnify"><defs><filter height="300%" id="flqzk25uwvzqf" width="300%" x="-1" y="-1"><feGaussianBlur result="blurOut" stdDeviation="2.0"/><feColorMatrix in="blurOut" result="blurOut2" type="matrix" values="0 0 0 0 0 0 0 0 0 0 0 0 0 0 0 0 0 0 .4 0"/><feOffset dx="4.0" dy="4.0" in="blurOut2" result="blurOut3"/><feBlend in="SourceGraphic" in2="blurOut3" mode="normal"/></filter></defs><g><!--MD5=[9e2f199060da5794a292af633cd2ab7a]
class NetworkObject--><rect fill="#FEFECE" filter="url(#flqzk25uwvzqf)" height="124.8281" id="NetworkObject" style="stroke: #A80036; stroke-width: 1.5;" width="320" x="6" y="116"/><ellipse cx="116.25" cy="132" fill="#ADD1B2" rx="11" ry="11" style="stroke: #A80036; stroke-width: 1.0;"/><path d="M119.2188,137.6406 Q118.6406,137.9375 118,138.0781 Q117.3594,138.2344 116.6563,138.2344 Q114.1563,138.2344 112.8281,136.5938 Q111.5156,134.9375 111.5156,131.8125 Q111.5156,128.6875 112.8281,127.0313 Q114.1563,125.375 116.6563,125.375 Q117.3594,125.375 118,125.5313 Q118.6563,125.6875 119.2188,125.9844 L119.2188,128.7031 Q118.5938,128.125 118,127.8594 Q117.4063,127.5781 116.7813,127.5781 Q115.4375,127.5781 114.75,128.6563 Q114.0625,129.7188 114.0625,131.8125 Q114.0625,133.9063 114.75,134.9844 Q115.4375,136.0469 116.7813,136.0469 Q117.4063,136.0469 118,135.7813 Q118.5938,135.5 119.2188,134.9219 L119.2188,137.6406 Z "/><text fill="#000000" font-family="sans-serif" font-size="12" lengthAdjust="spacingAndGlyphs" textLength="91" x="136.75" y="136.1543">NetworkObject</text><line style="stroke: #A80036; stroke-width: 1.5;" x1="7" x2="325" y1="148" y2="148"/><rect fill="none" height="6" style="stroke: #C82930; stroke-width: 1.0;" width="6" x="14" y="156"/><text fill="#000000" font-family="sans-serif" font-size="11" lengthAdjust="spacingAndGlyphs" textLength="110" x="26" y="162.2104">_networkId : ushort</text><ellipse cx="17" cy="171.8047" fill="none" rx="3" ry="3" style="stroke: #038048; stroke-width: 1.0;"/><text fill="#000000" font-family="sans-serif" font-size="11" lengthAdjust="spacingAndGlyphs" textLength="177" x="26" y="175.0151">NetworkId : ushort «get» «set»</text><line style="stroke: #A80036; stroke-width: 1.5;" x1="7" x2="325" y1="181.6094" y2="181.6094"/><rect fill="#F24D5C" height="6" style="stroke: #C82930; stroke-width: 1.0;" width="6" x="14" y="189.6094"/><text fill="#000000" font-family="sans-serif" font-size="11" lengthAdjust="spacingAndGlyphs" textLength="79" x="26" y="195.8198">Awake() : void</text><ellipse cx="17" cy="205.4141" fill="#84BE84" rx="3" ry="3" style="stroke: #038048; stroke-width: 1.0;"/><text fill="#000000" font-family="sans-serif" font-size="11" lengthAdjust="spacingAndGlyphs" textLength="222" x="26" y="208.6245">ToNetworkState() : NetworkObjectState</text><ellipse cx="17" cy="218.2188" fill="#84BE84" rx="3" ry="3" style="stroke: #038048; stroke-width: 1.0;"/><text fill="#000000" font-family="sans-serif" font-size="11" lengthAdjust="spacingAndGlyphs" textLength="294" x="26" y="221.4292">ApplyNetworkState(state:NetworkObjectState) : void</text><rect fill="#F24D5C" height="6" style="stroke: #C82930; stroke-width: 1.0;" width="6" x="14" y="228.0234"/><text fill="#000000" font-family="sans-serif" font-size="11" lengthAdjust="spacingAndGlyphs" textLength="79" x="26" y="234.2339">OnGUI() : void</text><!--MD5=[83b3cf3d23d77c6f1e1b5291a241bc2a]
class MonoBehaviour--><rect fill="#FEFECE" filter="url(#flqzk25uwvzqf)" height="48" id="MonoBehaviour" style="stroke: #A80036; stroke-width: 1.5;" width="128" x="102" y="8"/><ellipse cx="117" cy="24" fill="#ADD1B2" rx="11" ry="11" style="stroke: #A80036; stroke-width: 1.0;"/><path d="M119.9688,29.6406 Q119.3906,29.9375 118.75,30.0781 Q118.1094,30.2344 117.4063,30.2344 Q114.9063,30.2344 113.5781,28.5938 Q112.2656,26.9375 112.2656,23.8125 Q112.2656,20.6875 113.5781,19.0313 Q114.9063,17.375 117.4063,17.375 Q118.1094,17.375 118.75,17.5313 Q119.4063,17.6875 119.9688,17.9844 L119.9688,20.7031 Q119.3438,20.125 118.75,19.8594 Q118.1563,19.5781 117.5313,19.5781 Q116.1875,19.5781 115.5,20.6563 Q114.8125,21.7188 114.8125,23.8125 Q114.8125,25.9063 115.5,26.9844 Q116.1875,28.0469 117.5313,28.0469 Q118.1563,28.0469 118.75,27.7813 Q119.3438,27.5 119.9688,26.9219 L119.9688,29.6406 Z "/><text fill="#000000" font-family="sans-serif" font-size="12" lengthAdjust="spacingAndGlyphs" textLength="96" x="131" y="28.1543">MonoBehaviour</text><line style="stroke: #A80036; stroke-width: 1.5;" x1="103" x2="229" y1="40" y2="40"/><line style="stroke: #A80036; stroke-width: 1.5;" x1="103" x2="229" y1="48" y2="48"/><!--MD5=[cda27122e40053fa461dbe35fe711489]
reverse link MonoBehaviour to NetworkObject--><path d="M166,76.67 C166,89.05 166,102.77 166,115.99 " fill="none" id="MonoBehaviour&lt;-NetworkObject" style="stroke: #A80036; stroke-width: 1.0;"/><polygon fill="none" points="159,76.22,166,56.22,173,76.22,159,76.22" style="stroke: #A80036; stroke-width: 1.0;"/><!--MD5=[fdf6e9bf42a1d00e2423fa8a92e2d5dc]
@startuml
class NetworkObject {
    - _networkId : ushort
    + NetworkId : ushort <<get>> <<set>>
    - Awake() : void
    + ToNetworkState() : NetworkObjectState
    + ApplyNetworkState(state:NetworkObjectState) : void
    - OnGUI() : void
}
MonoBehaviour <|- - NetworkObject
@enduml

PlantUML version 1.2020.08(Sun Apr 26 14:08:22 GMT 2020)
(GPL source distribution)
Java Runtime: OpenJDK Runtime Environment
JVM: OpenJDK 64-Bit Server VM
Java Version: 15-ea+10
Operating System: Linux
Default Encoding: UTF-8
Language: en
Country: US
--></g></svg>