<?xml version="1.0" encoding="UTF-8" standalone="no"?><svg xmlns="http://www.w3.org/2000/svg" xmlns:xlink="http://www.w3.org/1999/xlink" contentScriptType="application/ecmascript" contentStyleType="text/css" height="424px" preserveAspectRatio="none" style="width:703px;height:424px;" version="1.1" viewBox="0 0 703 424" width="703px" zoomAndPan="magnify"><defs><filter height="300%" id="fjcalnx0jvvrx" width="300%" x="-1" y="-1"><feGaussianBlur result="blurOut" stdDeviation="2.0"/><feColorMatrix in="blurOut" result="blurOut2" type="matrix" values="0 0 0 0 0 0 0 0 0 0 0 0 0 0 0 0 0 0 .4 0"/><feOffset dx="4.0" dy="4.0" in="blurOut2" result="blurOut3"/><feBlend in="SourceGraphic" in2="blurOut3" mode="normal"/></filter></defs><g><!--MD5=[5f3d3f28a9bd6bb37e6180cd39bc5c2e]
class NetworkObjectManager--><rect fill="#FEFECE" filter="url(#fjcalnx0jvvrx)" height="188.8516" id="NetworkObjectManager" style="stroke: #A80036; stroke-width: 1.5;" width="556" x="136.76" y="116"/><ellipse cx="337.51" cy="132" fill="#ADD1B2" rx="11" ry="11" style="stroke: #A80036; stroke-width: 1.0;"/><path d="M340.4788,137.6406 Q339.9006,137.9375 339.26,138.0781 Q338.6194,138.2344 337.9163,138.2344 Q335.4163,138.2344 334.0881,136.5938 Q332.7756,134.9375 332.7756,131.8125 Q332.7756,128.6875 334.0881,127.0313 Q335.4163,125.375 337.9163,125.375 Q338.6194,125.375 339.26,125.5313 Q339.9163,125.6875 340.4788,125.9844 L340.4788,128.7031 Q339.8538,128.125 339.26,127.8594 Q338.6663,127.5781 338.0413,127.5781 Q336.6975,127.5781 336.01,128.6563 Q335.3225,129.7188 335.3225,131.8125 Q335.3225,133.9063 336.01,134.9844 Q336.6975,136.0469 338.0413,136.0469 Q338.6663,136.0469 339.26,135.7813 Q339.8538,135.5 340.4788,134.9219 L340.4788,137.6406 Z "/><text fill="#000000" font-family="sans-serif" font-size="12" lengthAdjust="spacingAndGlyphs" textLength="146" x="358.01" y="136.1543">NetworkObjectManager</text><line style="stroke: #A80036; stroke-width: 1.5;" x1="137.76" x2="691.76" y1="148" y2="148"/><rect fill="none" height="6" style="stroke: #C82930; stroke-width: 1.0;" width="6" x="144.76" y="156"/><text fill="#000000" font-family="sans-serif" font-size="11" lengthAdjust="spacingAndGlyphs" text-decoration="underline" textLength="107" x="156.76" y="162.2104">nextId : ushort = 1</text><rect fill="none" height="6" style="stroke: #C82930; stroke-width: 1.0;" width="6" x="144.76" y="168.8047"/><text fill="#000000" font-family="sans-serif" font-size="11" lengthAdjust="spacingAndGlyphs" textLength="117" x="156.76" y="175.0151">isAuthoritative : bool</text><line style="stroke: #A80036; stroke-width: 1.5;" x1="137.76" x2="691.76" y1="181.6094" y2="181.6094"/><rect fill="#F24D5C" height="6" style="stroke: #C82930; stroke-width: 1.0;" width="6" x="144.76" y="189.6094"/><text fill="#000000" font-family="sans-serif" font-size="11" lengthAdjust="spacingAndGlyphs" textLength="71" x="156.76" y="195.8198">Start() : void</text><ellipse cx="147.76" cy="205.4141" fill="#84BE84" rx="3" ry="3" style="stroke: #038048; stroke-width: 1.0;"/><text fill="#000000" font-family="sans-serif" font-size="11" lengthAdjust="spacingAndGlyphs" textLength="254" x="156.76" y="208.6245">GetObject(networkId:ushort) : NetworkObject</text><ellipse cx="147.76" cy="218.2188" fill="#84BE84" rx="3" ry="3" style="stroke: #038048; stroke-width: 1.0;"/><text fill="#000000" font-family="sans-serif" font-size="11" lengthAdjust="spacingAndGlyphs" textLength="282" x="156.76" y="221.4292">GetActiveNetworkObjects() : List&lt;NetworkObject&gt;</text><rect fill="#F24D5C" height="6" style="stroke: #C82930; stroke-width: 1.0;" width="6" x="144.76" y="228.0234"/><text fill="#000000" font-family="sans-serif" font-size="11" lengthAdjust="spacingAndGlyphs" textLength="249" x="156.76" y="234.2339">EnsureNetworkId(networkId:ushort) : ushort</text><ellipse cx="147.76" cy="243.8281" fill="#84BE84" rx="3" ry="3" style="stroke: #038048; stroke-width: 1.0;"/><text fill="#000000" font-family="sans-serif" font-size="11" lengthAdjust="spacingAndGlyphs" textLength="242" x="156.76" y="247.0386">SetAuthoritative(isAuthoritative:bool) : void</text><ellipse cx="147.76" cy="256.6328" fill="#84BE84" rx="3" ry="3" style="stroke: #038048; stroke-width: 1.0;"/><text fill="#000000" font-family="sans-serif" font-size="11" lengthAdjust="spacingAndGlyphs" textLength="530" x="156.76" y="259.8433">CreatePlayerGameObject(networkId:ushort, position:Vector3, isRemote:bool) : NetworkObject</text><ellipse cx="147.76" cy="269.4375" fill="#84BE84" rx="3" ry="3" style="stroke: #038048; stroke-width: 1.0;"/><text fill="#000000" font-family="sans-serif" font-size="11" lengthAdjust="spacingAndGlyphs" textLength="272" x="156.76" y="272.6479">DestroyNetworkObject(obj:NetworkObject) : void</text><ellipse cx="147.76" cy="282.2422" fill="#84BE84" rx="3" ry="3" style="stroke: #038048; stroke-width: 1.0;"/><text fill="#000000" font-family="sans-serif" font-size="11" lengthAdjust="spacingAndGlyphs" textLength="265" x="156.76" y="285.4526">DestroyNetworkObject(networkId:ushort) : void</text><ellipse cx="147.76" cy="295.0469" fill="#84BE84" rx="3" ry="3" style="stroke: #038048; stroke-width: 1.0;"/><text fill="#000000" font-family="sans-serif" font-size="11" lengthAdjust="spacingAndGlyphs" textLength="73" x="156.76" y="298.2573">Clear() : void</text><!--MD5=[2e1ff885372daab8d802f213ced6c836]
class Dictionary`2--><rect fill="#FEFECE" filter="url(#fjcalnx0jvvrx)" height="48" id="Dictionary`2" style="stroke: #A80036; stroke-width: 1.5;" width="146" x="171.76" y="365"/><ellipse cx="186.76" cy="381" fill="#ADD1B2" rx="11" ry="11" style="stroke: #A80036; stroke-width: 1.0;"/><path d="M189.7288,386.6406 Q189.1506,386.9375 188.51,387.0781 Q187.8694,387.2344 187.1663,387.2344 Q184.6663,387.2344 183.3381,385.5938 Q182.0256,383.9375 182.0256,380.8125 Q182.0256,377.6875 183.3381,376.0313 Q184.6663,374.375 187.1663,374.375 Q187.8694,374.375 188.51,374.5313 Q189.1663,374.6875 189.7288,374.9844 L189.7288,377.7031 Q189.1038,377.125 188.51,376.8594 Q187.9163,376.5781 187.2913,376.5781 Q185.9475,376.5781 185.26,377.6563 Q184.5725,378.7188 184.5725,380.8125 Q184.5725,382.9063 185.26,383.9844 Q185.9475,385.0469 187.2913,385.0469 Q187.9163,385.0469 188.51,384.7813 Q189.1038,384.5 189.7288,383.9219 L189.7288,386.6406 Z "/><text fill="#000000" font-family="sans-serif" font-size="12" lengthAdjust="spacingAndGlyphs" textLength="76" x="200.76" y="385.1543">Dictionary`2</text><rect fill="#FFFFFF" height="15.9688" style="stroke: #000000; stroke-width: 1.0; stroke-dasharray: 2.0,2.0;" width="36" x="284.76" y="362"/><text fill="#000000" font-family="sans-serif" font-size="12" font-style="italic" lengthAdjust="spacingAndGlyphs" textLength="34" x="285.76" y="374.1387">T1,T2</text><line style="stroke: #A80036; stroke-width: 1.5;" x1="172.76" x2="316.76" y1="397" y2="397"/><line style="stroke: #A80036; stroke-width: 1.5;" x1="172.76" x2="316.76" y1="405" y2="405"/><!--MD5=[83b3cf3d23d77c6f1e1b5291a241bc2a]
class MonoBehaviour--><rect fill="#FEFECE" filter="url(#fjcalnx0jvvrx)" height="48" id="MonoBehaviour" style="stroke: #A80036; stroke-width: 1.5;" width="128" x="350.76" y="8"/><ellipse cx="365.76" cy="24" fill="#ADD1B2" rx="11" ry="11" style="stroke: #A80036; stroke-width: 1.0;"/><path d="M368.7288,29.6406 Q368.1506,29.9375 367.51,30.0781 Q366.8694,30.2344 366.1663,30.2344 Q363.6663,30.2344 362.3381,28.5938 Q361.0256,26.9375 361.0256,23.8125 Q361.0256,20.6875 362.3381,19.0313 Q363.6663,17.375 366.1663,17.375 Q366.8694,17.375 367.51,17.5313 Q368.1663,17.6875 368.7288,17.9844 L368.7288,20.7031 Q368.1038,20.125 367.51,19.8594 Q366.9163,19.5781 366.2913,19.5781 Q364.9475,19.5781 364.26,20.6563 Q363.5725,21.7188 363.5725,23.8125 Q363.5725,25.9063 364.26,26.9844 Q364.9475,28.0469 366.2913,28.0469 Q366.9163,28.0469 367.51,27.7813 Q368.1038,27.5 368.7288,26.9219 L368.7288,29.6406 Z "/><text fill="#000000" font-family="sans-serif" font-size="12" lengthAdjust="spacingAndGlyphs" textLength="96" x="379.76" y="28.1543">MonoBehaviour</text><line style="stroke: #A80036; stroke-width: 1.5;" x1="351.76" x2="477.76" y1="40" y2="40"/><line style="stroke: #A80036; stroke-width: 1.5;" x1="351.76" x2="477.76" y1="48" y2="48"/><!--MD5=[9e2f199060da5794a292af633cd2ab7a]
class NetworkObject--><rect fill="#FEFECE" filter="url(#fjcalnx0jvvrx)" height="48" id="NetworkObject" style="stroke: #A80036; stroke-width: 1.5;" width="123" x="353.26" y="365"/><ellipse cx="368.26" cy="381" fill="#ADD1B2" rx="11" ry="11" style="stroke: #A80036; stroke-width: 1.0;"/><path d="M371.2288,386.6406 Q370.6506,386.9375 370.01,387.0781 Q369.3694,387.2344 368.6663,387.2344 Q366.1663,387.2344 364.8381,385.5938 Q363.5256,383.9375 363.5256,380.8125 Q363.5256,377.6875 364.8381,376.0313 Q366.1663,374.375 368.6663,374.375 Q369.3694,374.375 370.01,374.5313 Q370.6663,374.6875 371.2288,374.9844 L371.2288,377.7031 Q370.6038,377.125 370.01,376.8594 Q369.4163,376.5781 368.7913,376.5781 Q367.4475,376.5781 366.76,377.6563 Q366.0725,378.7188 366.0725,380.8125 Q366.0725,382.9063 366.76,383.9844 Q367.4475,385.0469 368.7913,385.0469 Q369.4163,385.0469 370.01,384.7813 Q370.6038,384.5 371.2288,383.9219 L371.2288,386.6406 Z "/><text fill="#000000" font-family="sans-serif" font-size="12" lengthAdjust="spacingAndGlyphs" textLength="91" x="382.26" y="385.1543">NetworkObject</text><line style="stroke: #A80036; stroke-width: 1.5;" x1="354.26" x2="475.26" y1="397" y2="397"/><line style="stroke: #A80036; stroke-width: 1.5;" x1="354.26" x2="475.26" y1="405" y2="405"/><!--MD5=[1a312aadc054c88b0dd96e9fe53edcb7]
reverse link MonoBehaviour to NetworkObjectManager--><path d="M414.76,76.38 C414.76,88.4 414.76,101.93 414.76,115.65 " fill="none" id="MonoBehaviour&lt;-NetworkObjectManager" style="stroke: #A80036; stroke-width: 1.0;"/><polygon fill="none" points="407.76,76.07,414.76,56.07,421.76,76.07,407.76,76.07" style="stroke: #A80036; stroke-width: 1.0;"/><!--MD5=[5c8228e34f9c4cd2169c3d34859cabeb]
link NetworkObjectManager to NetworkObject--><path d="M402.03,305.18 C402.19,325.02 403.21,344.49 405.09,359.56 " fill="none" id="NetworkObjectManager-&gt;NetworkObject" style="stroke: #A80036; stroke-width: 1.0;"/><polygon fill="#A80036" points="405.82,364.91,408.5491,355.4468,405.1349,359.9572,400.6245,356.543,405.82,364.91" style="stroke: #A80036; stroke-width: 1.0;"/><text fill="#000000" font-family="sans-serif" font-size="13" lengthAdjust="spacingAndGlyphs" textLength="111" x="321.8698" y="353.899">basePlayerPrefab</text><!--MD5=[5c8228e34f9c4cd2169c3d34859cabeb]
link NetworkObjectManager to NetworkObject--><path d="M428.24,305.18 C428.07,325.19 426.98,344.83 424.95,359.96 " fill="none" id="NetworkObjectManager-&gt;NetworkObject-1" style="stroke: #A80036; stroke-width: 1.0;"/><polygon fill="#A80036" points="424.23,364.91,429.4997,356.5895,424.9591,359.9634,421.5852,355.4229,424.23,364.91" style="stroke: #A80036; stroke-width: 1.0;"/><text fill="#000000" font-family="sans-serif" font-size="13" lengthAdjust="spacingAndGlyphs" textLength="127" x="442.9286" y="353.899">remotePlayerPrefab</text><!--MD5=[4350efb7c84155a7bff065f72be13596]
link NetworkObjectManager to Dictionary`2--><path d="M324.54,305.18 C304.76,325.71 285.35,345.86 270.64,361.14 " fill="none" id="NetworkObjectManager-&gt;Dictionary`2" style="stroke: #A80036; stroke-width: 1.0;"/><polygon fill="#A80036" points="267,364.91,276.1266,361.2079,270.4707,361.3108,270.3678,355.6549,267,364.91" style="stroke: #A80036; stroke-width: 1.0;"/><text fill="#000000" font-family="sans-serif" font-size="13" lengthAdjust="spacingAndGlyphs" textLength="246" x="-4.8197" y="353.899">activeObjects&lt;ushort,NetworkObject&gt;</text><!--MD5=[8d055026d89ba753bbf2ff36d7c31036]
@startuml
class NetworkObjectManager {
    - {static} nextId : ushort = 1
    - isAuthoritative : bool
    - Start() : void
    + GetObject(networkId:ushort) : NetworkObject
    + GetActiveNetworkObjects() : List<NetworkObject>
    - EnsureNetworkId(networkId:ushort) : ushort
    + SetAuthoritative(isAuthoritative:bool) : void
    + CreatePlayerGameObject(networkId:ushort, position:Vector3, isRemote:bool) : NetworkObject
    + DestroyNetworkObject(obj:NetworkObject) : void
    + DestroyNetworkObject(networkId:ushort) : void
    + Clear() : void
}
class "Dictionary`2"<T1,T2> {
}
MonoBehaviour <|- - NetworkObjectManager
NetworkObjectManager - -> "basePlayerPrefab" NetworkObject
NetworkObjectManager - -> "remotePlayerPrefab" NetworkObject
NetworkObjectManager - -> "activeObjects<ushort,NetworkObject>" "Dictionary`2"
@enduml

PlantUML version 1.2020.08(Sun Apr 26 14:08:22 GMT 2020)
(GPL source distribution)
Java Runtime: OpenJDK Runtime Environment
JVM: OpenJDK 64-Bit Server VM
Java Version: 15-ea+10
Operating System: Linux
Default Encoding: UTF-8
Language: en
Country: US
--></g></svg>