<?xml version="1.0" encoding="UTF-8" standalone="no"?><svg xmlns="http://www.w3.org/2000/svg" xmlns:xlink="http://www.w3.org/1999/xlink" contentScriptType="application/ecmascript" contentStyleType="text/css" height="322px" preserveAspectRatio="none" style="width:736px;height:322px;" version="1.1" viewBox="0 0 736 322" width="736px" zoomAndPan="magnify"><defs><filter height="300%" id="f1a1iyg84nxtj9" width="300%" x="-1" y="-1"><feGaussianBlur result="blurOut" stdDeviation="2.0"/><feColorMatrix in="blurOut" result="blurOut2" type="matrix" values="0 0 0 0 0 0 0 0 0 0 0 0 0 0 0 0 0 0 .4 0"/><feOffset dx="4.0" dy="4.0" in="blurOut2" result="blurOut3"/><feBlend in="SourceGraphic" in2="blurOut3" mode="normal"/></filter></defs><g><!--MD5=[2cb47ba637a0d19583e6199456f6ad0b]
class Player--><rect fill="#FEFECE" filter="url(#f1a1iyg84nxtj9)" height="73.6094" id="Player" style="stroke: #A80036; stroke-width: 1.5;" width="250" x="219" y="129"/><ellipse cx="320.75" cy="145" fill="#ADD1B2" rx="11" ry="11" style="stroke: #A80036; stroke-width: 1.0;"/><path d="M323.7188,150.6406 Q323.1406,150.9375 322.5,151.0781 Q321.8594,151.2344 321.1563,151.2344 Q318.6563,151.2344 317.3281,149.5938 Q316.0156,147.9375 316.0156,144.8125 Q316.0156,141.6875 317.3281,140.0313 Q318.6563,138.375 321.1563,138.375 Q321.8594,138.375 322.5,138.5313 Q323.1563,138.6875 323.7188,138.9844 L323.7188,141.7031 Q323.0938,141.125 322.5,140.8594 Q321.9063,140.5781 321.2813,140.5781 Q319.9375,140.5781 319.25,141.6563 Q318.5625,142.7188 318.5625,144.8125 Q318.5625,146.9063 319.25,147.9844 Q319.9375,149.0469 321.2813,149.0469 Q321.9063,149.0469 322.5,148.7813 Q323.0938,148.5 323.7188,147.9219 L323.7188,150.6406 Z "/><text fill="#000000" font-family="sans-serif" font-size="12" lengthAdjust="spacingAndGlyphs" textLength="38" x="341.25" y="149.1543">Player</text><line style="stroke: #A80036; stroke-width: 1.5;" x1="220" x2="468" y1="161" y2="161"/><ellipse cx="230" cy="172" fill="none" rx="3" ry="3" style="stroke: #038048; stroke-width: 1.0;"/><text fill="#000000" font-family="sans-serif" font-size="11" lengthAdjust="spacingAndGlyphs" textLength="118" x="239" y="175.2104">Id : byte «get» «set»</text><line style="stroke: #A80036; stroke-width: 1.5;" x1="220" x2="468" y1="181.8047" y2="181.8047"/><ellipse cx="230" cy="192.8047" fill="#84BE84" rx="3" ry="3" style="stroke: #038048; stroke-width: 1.0;"/><text fill="#000000" font-family="sans-serif" font-size="11" lengthAdjust="spacingAndGlyphs" textLength="224" x="239" y="196.0151">ToInitialPlayerState() : InitialPlayerState</text><!--MD5=[e1f3f34844adf1e32fd33535d89e679f]
class IReadonlyPlayer--><rect fill="#FEFECE" filter="url(#f1a1iyg84nxtj9)" height="60.8047" id="IReadonlyPlayer" style="stroke: #A80036; stroke-width: 1.5;" width="132" x="157" y="8"/><ellipse cx="172" cy="24" fill="#B4A7E5" rx="11" ry="11" style="stroke: #A80036; stroke-width: 1.0;"/><path d="M167.9219,19.7656 L167.9219,17.6094 L175.3125,17.6094 L175.3125,19.7656 L172.8438,19.7656 L172.8438,27.8438 L175.3125,27.8438 L175.3125,30 L167.9219,30 L167.9219,27.8438 L170.3906,27.8438 L170.3906,19.7656 L167.9219,19.7656 Z "/><text fill="#000000" font-family="sans-serif" font-size="12" font-style="italic" lengthAdjust="spacingAndGlyphs" textLength="100" x="186" y="28.1543">IReadonlyPlayer</text><line style="stroke: #A80036; stroke-width: 1.5;" x1="158" x2="288" y1="40" y2="40"/><text fill="#000000" font-family="sans-serif" font-size="11" lengthAdjust="spacingAndGlyphs" textLength="82" x="163" y="54.2104">Id : byte «get»</text><line style="stroke: #A80036; stroke-width: 1.5;" x1="158" x2="288" y1="60.8047" y2="60.8047"/><!--MD5=[88286dc3c8c4d6af8bc027926bc8db2e]
class PlayerMetadata--><rect fill="#FEFECE" filter="url(#f1a1iyg84nxtj9)" height="48" id="PlayerMetadata" style="stroke: #A80036; stroke-width: 1.5;" width="130" x="6" y="263"/><ellipse cx="21" cy="279" fill="#ADD1B2" rx="11" ry="11" style="stroke: #A80036; stroke-width: 1.0;"/><path d="M23.9688,284.6406 Q23.3906,284.9375 22.75,285.0781 Q22.1094,285.2344 21.4063,285.2344 Q18.9063,285.2344 17.5781,283.5938 Q16.2656,281.9375 16.2656,278.8125 Q16.2656,275.6875 17.5781,274.0313 Q18.9063,272.375 21.4063,272.375 Q22.1094,272.375 22.75,272.5313 Q23.4063,272.6875 23.9688,272.9844 L23.9688,275.7031 Q23.3438,275.125 22.75,274.8594 Q22.1563,274.5781 21.5313,274.5781 Q20.1875,274.5781 19.5,275.6563 Q18.8125,276.7188 18.8125,278.8125 Q18.8125,280.9063 19.5,281.9844 Q20.1875,283.0469 21.5313,283.0469 Q22.1563,283.0469 22.75,282.7813 Q23.3438,282.5 23.9688,281.9219 L23.9688,284.6406 Z "/><text fill="#000000" font-family="sans-serif" font-size="12" lengthAdjust="spacingAndGlyphs" textLength="98" x="35" y="283.1543">PlayerMetadata</text><line style="stroke: #A80036; stroke-width: 1.5;" x1="7" x2="135" y1="295" y2="295"/><line style="stroke: #A80036; stroke-width: 1.5;" x1="7" x2="135" y1="303" y2="303"/><!--MD5=[064f7a74fee85463ec1a30143664ee17]
class GameObject--><rect fill="#FEFECE" filter="url(#f1a1iyg84nxtj9)" height="48" id="GameObject" style="stroke: #A80036; stroke-width: 1.5;" width="108" x="171" y="263"/><ellipse cx="186" cy="279" fill="#ADD1B2" rx="11" ry="11" style="stroke: #A80036; stroke-width: 1.0;"/><path d="M188.9688,284.6406 Q188.3906,284.9375 187.75,285.0781 Q187.1094,285.2344 186.4063,285.2344 Q183.9063,285.2344 182.5781,283.5938 Q181.2656,281.9375 181.2656,278.8125 Q181.2656,275.6875 182.5781,274.0313 Q183.9063,272.375 186.4063,272.375 Q187.1094,272.375 187.75,272.5313 Q188.4063,272.6875 188.9688,272.9844 L188.9688,275.7031 Q188.3438,275.125 187.75,274.8594 Q187.1563,274.5781 186.5313,274.5781 Q185.1875,274.5781 184.5,275.6563 Q183.8125,276.7188 183.8125,278.8125 Q183.8125,280.9063 184.5,281.9844 Q185.1875,283.0469 186.5313,283.0469 Q187.1563,283.0469 187.75,282.7813 Q188.3438,282.5 188.9688,281.9219 L188.9688,284.6406 Z "/><text fill="#000000" font-family="sans-serif" font-size="12" lengthAdjust="spacingAndGlyphs" textLength="76" x="200" y="283.1543">GameObject</text><line style="stroke: #A80036; stroke-width: 1.5;" x1="172" x2="278" y1="295" y2="295"/><line style="stroke: #A80036; stroke-width: 1.5;" x1="172" x2="278" y1="303" y2="303"/><!--MD5=[9e2f199060da5794a292af633cd2ab7a]
class NetworkObject--><rect fill="#FEFECE" filter="url(#f1a1iyg84nxtj9)" height="48" id="NetworkObject" style="stroke: #A80036; stroke-width: 1.5;" width="123" x="314.5" y="263"/><ellipse cx="329.5" cy="279" fill="#ADD1B2" rx="11" ry="11" style="stroke: #A80036; stroke-width: 1.0;"/><path d="M332.4688,284.6406 Q331.8906,284.9375 331.25,285.0781 Q330.6094,285.2344 329.9063,285.2344 Q327.4063,285.2344 326.0781,283.5938 Q324.7656,281.9375 324.7656,278.8125 Q324.7656,275.6875 326.0781,274.0313 Q327.4063,272.375 329.9063,272.375 Q330.6094,272.375 331.25,272.5313 Q331.9063,272.6875 332.4688,272.9844 L332.4688,275.7031 Q331.8438,275.125 331.25,274.8594 Q330.6563,274.5781 330.0313,274.5781 Q328.6875,274.5781 328,275.6563 Q327.3125,276.7188 327.3125,278.8125 Q327.3125,280.9063 328,281.9844 Q328.6875,283.0469 330.0313,283.0469 Q330.6563,283.0469 331.25,282.7813 Q331.8438,282.5 332.4688,281.9219 L332.4688,284.6406 Z "/><text fill="#000000" font-family="sans-serif" font-size="12" lengthAdjust="spacingAndGlyphs" textLength="91" x="343.5" y="283.1543">NetworkObject</text><line style="stroke: #A80036; stroke-width: 1.5;" x1="315.5" x2="436.5" y1="295" y2="295"/><line style="stroke: #A80036; stroke-width: 1.5;" x1="315.5" x2="436.5" y1="303" y2="303"/><!--MD5=[d7c09c2ef0556dd515b6819707a16934]
class IPlayerController--><rect fill="#FEFECE" filter="url(#f1a1iyg84nxtj9)" height="48" id="IPlayerController" style="stroke: #A80036; stroke-width: 1.5;" width="134" x="473" y="263"/><ellipse cx="488" cy="279" fill="#ADD1B2" rx="11" ry="11" style="stroke: #A80036; stroke-width: 1.0;"/><path d="M490.9688,284.6406 Q490.3906,284.9375 489.75,285.0781 Q489.1094,285.2344 488.4063,285.2344 Q485.9063,285.2344 484.5781,283.5938 Q483.2656,281.9375 483.2656,278.8125 Q483.2656,275.6875 484.5781,274.0313 Q485.9063,272.375 488.4063,272.375 Q489.1094,272.375 489.75,272.5313 Q490.4063,272.6875 490.9688,272.9844 L490.9688,275.7031 Q490.3438,275.125 489.75,274.8594 Q489.1563,274.5781 488.5313,274.5781 Q487.1875,274.5781 486.5,275.6563 Q485.8125,276.7188 485.8125,278.8125 Q485.8125,280.9063 486.5,281.9844 Q487.1875,283.0469 488.5313,283.0469 Q489.1563,283.0469 489.75,282.7813 Q490.3438,282.5 490.9688,281.9219 L490.9688,284.6406 Z "/><text fill="#000000" font-family="sans-serif" font-size="12" lengthAdjust="spacingAndGlyphs" textLength="102" x="502" y="283.1543">IPlayerController</text><line style="stroke: #A80036; stroke-width: 1.5;" x1="474" x2="606" y1="295" y2="295"/><line style="stroke: #A80036; stroke-width: 1.5;" x1="474" x2="606" y1="303" y2="303"/><!--MD5=[b991c4c455cd9950cce3bc0314f50a5e]
class NetPeer--><rect fill="#FEFECE" filter="url(#f1a1iyg84nxtj9)" height="48" id="NetPeer" style="stroke: #A80036; stroke-width: 1.5;" width="83" x="642.5" y="263"/><ellipse cx="657.5" cy="279" fill="#ADD1B2" rx="11" ry="11" style="stroke: #A80036; stroke-width: 1.0;"/><path d="M660.4688,284.6406 Q659.8906,284.9375 659.25,285.0781 Q658.6094,285.2344 657.9063,285.2344 Q655.4063,285.2344 654.0781,283.5938 Q652.7656,281.9375 652.7656,278.8125 Q652.7656,275.6875 654.0781,274.0313 Q655.4063,272.375 657.9063,272.375 Q658.6094,272.375 659.25,272.5313 Q659.9063,272.6875 660.4688,272.9844 L660.4688,275.7031 Q659.8438,275.125 659.25,274.8594 Q658.6563,274.5781 658.0313,274.5781 Q656.6875,274.5781 656,275.6563 Q655.3125,276.7188 655.3125,278.8125 Q655.3125,280.9063 656,281.9844 Q656.6875,283.0469 658.0313,283.0469 Q658.6563,283.0469 659.25,282.7813 Q659.8438,282.5 660.4688,281.9219 L660.4688,284.6406 Z "/><text fill="#000000" font-family="sans-serif" font-size="12" lengthAdjust="spacingAndGlyphs" textLength="51" x="671.5" y="283.1543">NetPeer</text><line style="stroke: #A80036; stroke-width: 1.5;" x1="643.5" x2="724.5" y1="295" y2="295"/><line style="stroke: #A80036; stroke-width: 1.5;" x1="643.5" x2="724.5" y1="303" y2="303"/><!--MD5=[b50f613e5f905dbd934d7324ef7e420f]
reverse link IReadonlyPlayer to Player--><path d="M265.78,83.87 C279.95,98.57 295.54,114.74 309.06,128.76 " fill="none" id="IReadonlyPlayer&lt;-Player" style="stroke: #A80036; stroke-width: 1.0;"/><polygon fill="none" points="260.52,88.5,251.68,69.24,270.6,78.78,260.52,88.5" style="stroke: #A80036; stroke-width: 1.0;"/><!--MD5=[99c82069d697e2d0778180116a5dd01a]
link Player to PlayerMetadata--><path d="M261.35,203.03 C218.52,221.7 167.27,244.04 128.74,260.83 " fill="none" id="Player-&gt;PlayerMetadata" style="stroke: #A80036; stroke-width: 1.0;"/><polygon fill="#A80036" points="124.11,262.85,133.9586,262.9185,128.6931,260.8512,130.7605,255.5856,124.11,262.85" style="stroke: #A80036; stroke-width: 1.0;"/><text fill="#000000" font-family="sans-serif" font-size="13" lengthAdjust="spacingAndGlyphs" textLength="61" x="144.0992" y="251.9115">Metadata</text><!--MD5=[9bc852ba268122706027acd503913ad0]
link Player to GameObject--><path d="M307.97,203.03 C289.91,221.09 268.41,242.59 251.83,259.17 " fill="none" id="Player-&gt;GameObject" style="stroke: #A80036; stroke-width: 1.0;"/><polygon fill="#A80036" points="248.15,262.85,257.3424,259.3145,251.6855,259.3145,251.6855,253.6576,248.15,262.85" style="stroke: #A80036; stroke-width: 1.0;"/><text fill="#000000" font-family="sans-serif" font-size="13" lengthAdjust="spacingAndGlyphs" textLength="80" x="264.3322" y="251.8236">GameObject</text><!--MD5=[3c5d3150f23cd65a84ec11284372eb4c]
link Player to NetworkObject--><path d="M353.69,203.03 C358.42,220.63 364.04,241.51 368.45,257.91 " fill="none" id="Player-&gt;NetworkObject" style="stroke: #A80036; stroke-width: 1.0;"/><polygon fill="#A80036" points="369.77,262.85,371.2927,253.1196,368.4701,258.0219,363.5678,255.1994,369.77,262.85" style="stroke: #A80036; stroke-width: 1.0;"/><text fill="#000000" font-family="sans-serif" font-size="13" lengthAdjust="spacingAndGlyphs" textLength="93" x="380.0892" y="251.8236">NetworkObject</text><!--MD5=[275ab801ee5c870e6cd6d05c023ec7dd]
link Player to IPlayerController--><path d="M403.34,203.03 C433.71,221.47 469.99,243.49 497.53,260.21 " fill="none" id="Player-&gt;IPlayerController" style="stroke: #A80036; stroke-width: 1.0;"/><polygon fill="#A80036" points="501.87,262.85,496.262,254.7537,497.599,260.2503,492.1024,261.5873,501.87,262.85" style="stroke: #A80036; stroke-width: 1.0;"/><text fill="#000000" font-family="sans-serif" font-size="13" lengthAdjust="spacingAndGlyphs" textLength="62" x="500.0429" y="251.8236">Controller</text><!--MD5=[36bbd42b0469a76b8b5739840fb7db33]
link Player to NetPeer--><path d="M453.13,203.08 C505.33,220.65 568.59,242.38 625,263 C629.01,264.46 633.16,266.01 637.31,267.59 " fill="none" id="Player-&gt;NetPeer" style="stroke: #A80036; stroke-width: 1.0;"/><polygon fill="#A80036" points="642.18,269.45,635.183,262.5188,637.5048,267.6772,632.3465,269.999,642.18,269.45" style="stroke: #A80036; stroke-width: 1.0;"/><text fill="#000000" font-family="sans-serif" font-size="13" lengthAdjust="spacingAndGlyphs" textLength="29" x="605.5871" y="261.6281">Peer</text><!--MD5=[92e7fd91d60025e280a7f2cfaeaf7693]
link IReadonlyPlayer to PlayerMetadata--><path d="M204.67,69.23 C174.99,117.36 116.85,211.65 88.03,258.39 " fill="none" id="IReadonlyPlayer-&gt;PlayerMetadata" style="stroke: #A80036; stroke-width: 1.0;"/><polygon fill="#A80036" points="85.33,262.76,93.4618,257.2036,87.9569,258.5056,86.6548,253.0007,85.33,262.76" style="stroke: #A80036; stroke-width: 1.0;"/><text fill="#000000" font-family="sans-serif" font-size="13" lengthAdjust="spacingAndGlyphs" textLength="61" x="20.3886" y="252.1065">Metadata</text><!--MD5=[61759095e15337a3bfe84124e6b7a748]
@startuml
class Player {
    + Id : byte <<get>> <<set>>
    + ToInitialPlayerState() : InitialPlayerState
}
interface IReadonlyPlayer {
    Id : byte <<get>>
}
IReadonlyPlayer <|- - Player
Player - -> "Metadata" PlayerMetadata
Player - -> "GameObject" GameObject
Player - -> "NetworkObject" NetworkObject
Player - -> "Controller" IPlayerController
Player - -> "Peer" NetPeer
IReadonlyPlayer - -> "Metadata" PlayerMetadata
@enduml

PlantUML version 1.2020.08(Sun Apr 26 14:08:22 GMT 2020)
(GPL source distribution)
Java Runtime: OpenJDK Runtime Environment
JVM: OpenJDK 64-Bit Server VM
Java Version: 15-ea+10
Operating System: Linux
Default Encoding: UTF-8
Language: en
Country: US
--></g></svg>