<?xml version="1.0" encoding="UTF-8" standalone="no"?><svg xmlns="http://www.w3.org/2000/svg" xmlns:xlink="http://www.w3.org/1999/xlink" contentScriptType="application/ecmascript" contentStyleType="text/css" height="647px" preserveAspectRatio="none" style="width:1100px;height:647px;" version="1.1" viewBox="0 0 1100 647" width="1100px" zoomAndPan="magnify"><defs><filter height="300%" id="fb3pzj4qf2qzq" width="300%" x="-1" y="-1"><feGaussianBlur result="blurOut" stdDeviation="2.0"/><feColorMatrix in="blurOut" result="blurOut2" type="matrix" values="0 0 0 0 0 0 0 0 0 0 0 0 0 0 0 0 0 0 .4 0"/><feOffset dx="4.0" dy="4.0" in="blurOut2" result="blurOut3"/><feBlend in="SourceGraphic" in2="blurOut3" mode="normal"/></filter></defs><g><!--MD5=[91b737a0aa6758b352ed748d11ff2125]
class PlayerController--><rect fill="#FEFECE" filter="url(#fb3pzj4qf2qzq)" height="355.3125" id="PlayerController" style="stroke: #A80036; stroke-width: 1.5;" width="1083" x="6" y="116"/><ellipse cx="493.75" cy="132" fill="#ADD1B2" rx="11" ry="11" style="stroke: #A80036; stroke-width: 1.0;"/><path d="M496.7188,137.6406 Q496.1406,137.9375 495.5,138.0781 Q494.8594,138.2344 494.1563,138.2344 Q491.6563,138.2344 490.3281,136.5938 Q489.0156,134.9375 489.0156,131.8125 Q489.0156,128.6875 490.3281,127.0313 Q491.6563,125.375 494.1563,125.375 Q494.8594,125.375 495.5,125.5313 Q496.1563,125.6875 496.7188,125.9844 L496.7188,128.7031 Q496.0938,128.125 495.5,127.8594 Q494.9063,127.5781 494.2813,127.5781 Q492.9375,127.5781 492.25,128.6563 Q491.5625,129.7188 491.5625,131.8125 Q491.5625,133.9063 492.25,134.9844 Q492.9375,136.0469 494.2813,136.0469 Q494.9063,136.0469 495.5,135.7813 Q496.0938,135.5 496.7188,134.9219 L496.7188,137.6406 Z "/><text fill="#000000" font-family="sans-serif" font-size="12" lengthAdjust="spacingAndGlyphs" textLength="99" x="514.25" y="136.1543">PlayerController</text><line style="stroke: #A80036; stroke-width: 1.5;" x1="7" x2="1088" y1="148" y2="148"/><ellipse cx="17" cy="159" fill="none" rx="3" ry="3" style="stroke: #038048; stroke-width: 1.0;"/><text fill="#000000" font-family="sans-serif" font-size="11" lengthAdjust="spacingAndGlyphs" textLength="125" x="26" y="162.2104">maxSpeed : float = 1f</text><ellipse cx="17" cy="171.8047" fill="none" rx="3" ry="3" style="stroke: #038048; stroke-width: 1.0;"/><text fill="#000000" font-family="sans-serif" font-size="11" lengthAdjust="spacingAndGlyphs" textLength="140" x="26" y="175.0151">maxAirSpeed : float = 1f</text><ellipse cx="17" cy="184.6094" fill="none" rx="3" ry="3" style="stroke: #038048; stroke-width: 1.0;"/><text fill="#000000" font-family="sans-serif" font-size="11" lengthAdjust="spacingAndGlyphs" textLength="109" x="26" y="187.8198">airAccel : float = 1f</text><ellipse cx="17" cy="197.4141" fill="none" rx="3" ry="3" style="stroke: #038048; stroke-width: 1.0;"/><text fill="#000000" font-family="sans-serif" font-size="11" lengthAdjust="spacingAndGlyphs" textLength="118" x="26" y="200.6245">airDrag : float = 0.1f</text><ellipse cx="17" cy="210.2188" fill="none" rx="3" ry="3" style="stroke: #038048; stroke-width: 1.0;"/><text fill="#000000" font-family="sans-serif" font-size="11" lengthAdjust="spacingAndGlyphs" textLength="124" x="26" y="213.4292">jumpForce : float = 1f</text><ellipse cx="17" cy="223.0234" fill="none" rx="3" ry="3" style="stroke: #038048; stroke-width: 1.0;"/><text fill="#000000" font-family="sans-serif" font-size="11" lengthAdjust="spacingAndGlyphs" textLength="176" x="26" y="226.2339">jumpWhileSliding : bool = false</text><ellipse cx="17" cy="235.8281" fill="none" rx="3" ry="3" style="stroke: #038048; stroke-width: 1.0;"/><text fill="#000000" font-family="sans-serif" font-size="11" lengthAdjust="spacingAndGlyphs" textLength="208" x="26" y="239.0386">bunnyhopTimeWindow : float = 0.25f</text><ellipse cx="17" cy="248.6328" fill="none" rx="3" ry="3" style="stroke: #038048; stroke-width: 1.0;"/><text fill="#000000" font-family="sans-serif" font-size="11" lengthAdjust="spacingAndGlyphs" textLength="207" x="26" y="251.8433">jumpUngroundingForce : float = 0.1f</text><line style="stroke: #A80036; stroke-width: 1.5;" x1="7" x2="1088" y1="258.4375" y2="258.4375"/><rect fill="#F24D5C" height="6" style="stroke: #C82930; stroke-width: 1.0;" width="6" x="14" y="266.4375"/><text fill="#000000" font-family="sans-serif" font-size="11" lengthAdjust="spacingAndGlyphs" textLength="79" x="26" y="272.6479">Awake() : void</text><ellipse cx="17" cy="282.2422" fill="#84BE84" rx="3" ry="3" style="stroke: #038048; stroke-width: 1.0;"/><text fill="#000000" font-family="sans-serif" font-size="11" lengthAdjust="spacingAndGlyphs" textLength="241" x="26" y="285.4526">SetPlayerInputs(inputs:PlayerInputs) : void</text><rect fill="#F24D5C" height="6" style="stroke: #C82930; stroke-width: 1.0;" width="6" x="14" y="292.0469"/><text fill="#000000" font-family="sans-serif" font-size="11" lengthAdjust="spacingAndGlyphs" textLength="148" x="26" y="298.2573">IsGroundJumpable() : bool</text><ellipse cx="17" cy="307.8516" fill="#84BE84" rx="3" ry="3" style="stroke: #038048; stroke-width: 1.0;"/><text fill="#000000" font-family="sans-serif" font-size="11" lengthAdjust="spacingAndGlyphs" textLength="175" x="26" y="311.062">ToNetworkState() : PlayerState</text><ellipse cx="17" cy="320.6563" fill="#84BE84" rx="3" ry="3" style="stroke: #038048; stroke-width: 1.0;"/><text fill="#000000" font-family="sans-serif" font-size="11" lengthAdjust="spacingAndGlyphs" textLength="247" x="26" y="323.8667">ApplyNetworkState(state:PlayerState) : void</text><ellipse cx="17" cy="333.4609" fill="#84BE84" rx="3" ry="3" style="stroke: #038048; stroke-width: 1.0;"/><text fill="#000000" font-family="sans-serif" font-size="11" lengthAdjust="spacingAndGlyphs" textLength="133" x="26" y="336.6714">Simulate(dt:float) : void</text><ellipse cx="17" cy="346.2656" fill="#84BE84" rx="3" ry="3" style="stroke: #038048; stroke-width: 1.0;"/><text fill="#000000" font-family="sans-serif" font-size="11" lengthAdjust="spacingAndGlyphs" textLength="376" x="26" y="349.4761">UpdateRotation(currentRotation:Quaternion, deltaTime:float) : void</text><ellipse cx="17" cy="359.0703" fill="#84BE84" rx="3" ry="3" style="stroke: #038048; stroke-width: 1.0;"/><text fill="#000000" font-family="sans-serif" font-size="11" lengthAdjust="spacingAndGlyphs" textLength="350" x="26" y="362.2808">UpdateVelocity(currentVelocity:Vector3, deltaTime:float) : void</text><ellipse cx="17" cy="371.875" fill="#84BE84" rx="3" ry="3" style="stroke: #038048; stroke-width: 1.0;"/><text fill="#000000" font-family="sans-serif" font-size="11" lengthAdjust="spacingAndGlyphs" textLength="262" x="26" y="375.0854">BeforeCharacterUpdate(deltaTime:float) : void</text><ellipse cx="17" cy="384.6797" fill="#84BE84" rx="3" ry="3" style="stroke: #038048; stroke-width: 1.0;"/><text fill="#000000" font-family="sans-serif" font-size="11" lengthAdjust="spacingAndGlyphs" textLength="251" x="26" y="387.8901">AfterCharacterUpdate(deltaTime:float) : void</text><ellipse cx="17" cy="397.4844" fill="#84BE84" rx="3" ry="3" style="stroke: #038048; stroke-width: 1.0;"/><text fill="#000000" font-family="sans-serif" font-size="11" lengthAdjust="spacingAndGlyphs" textLength="252" x="26" y="400.6948">PostGroundingUpdate(deltaTime:float) : void</text><ellipse cx="17" cy="410.2891" fill="#84BE84" rx="3" ry="3" style="stroke: #038048; stroke-width: 1.0;"/><text fill="#000000" font-family="sans-serif" font-size="11" lengthAdjust="spacingAndGlyphs" textLength="263" x="26" y="413.4995">IsColliderValidForCollisions(coll:Collider) : bool</text><ellipse cx="17" cy="423.0938" fill="#84BE84" rx="3" ry="3" style="stroke: #038048; stroke-width: 1.0;"/><text fill="#000000" font-family="sans-serif" font-size="11" lengthAdjust="spacingAndGlyphs" textLength="632" x="26" y="426.3042">OnGroundHit(hitCollider:Collider, hitNormal:Vector3, hitPoint:Vector3, hitStabilityReport:HitStabilityReport) : void</text><ellipse cx="17" cy="435.8984" fill="#84BE84" rx="3" ry="3" style="stroke: #038048; stroke-width: 1.0;"/><text fill="#000000" font-family="sans-serif" font-size="11" lengthAdjust="spacingAndGlyphs" textLength="648" x="26" y="439.1089">OnMovementHit(hitCollider:Collider, hitNormal:Vector3, hitPoint:Vector3, hitStabilityReport:HitStabilityReport) : void</text><ellipse cx="17" cy="448.7031" fill="#84BE84" rx="3" ry="3" style="stroke: #038048; stroke-width: 1.0;"/><text fill="#000000" font-family="sans-serif" font-size="11" lengthAdjust="spacingAndGlyphs" textLength="1057" x="26" y="451.9136">ProcessHitStabilityReport(hitCollider:Collider, hitNormal:Vector3, hitPoint:Vector3, atCharacterPosition:Vector3, atCharacterRotation:Quaternion, hitStabilityReport:HitStabilityReport) : void</text><ellipse cx="17" cy="461.5078" fill="#84BE84" rx="3" ry="3" style="stroke: #038048; stroke-width: 1.0;"/><text fill="#000000" font-family="sans-serif" font-size="11" lengthAdjust="spacingAndGlyphs" textLength="308" x="26" y="464.7183">OnDiscreteCollisionDetected(hitCollider:Collider) : void</text><!--MD5=[ac05dd73ead2c1e7e03f4bab5cbfc026]
class JumpState--><rect fill="#FEFECE" filter="url(#fb3pzj4qf2qzq)" height="105.1563" id="JumpState" style="stroke: #A80036; stroke-width: 1.5;" width="167" x="163" y="531"/><ellipse cx="210.25" cy="549.9688" fill="#ADD1B2" rx="11" ry="11" style="stroke: #A80036; stroke-width: 1.0;"/><path d="M213.2188,555.6094 Q212.6406,555.9063 212,556.0469 Q211.3594,556.2031 210.6563,556.2031 Q208.1563,556.2031 206.8281,554.5625 Q205.5156,552.9063 205.5156,549.7813 Q205.5156,546.6563 206.8281,545 Q208.1563,543.3438 210.6563,543.3438 Q211.3594,543.3438 212,543.5 Q212.6563,543.6563 213.2188,543.9531 L213.2188,546.6719 Q212.5938,546.0938 212,545.8281 Q211.4063,545.5469 210.7813,545.5469 Q209.4375,545.5469 208.75,546.625 Q208.0625,547.6875 208.0625,549.7813 Q208.0625,551.875 208.75,552.9531 Q209.4375,554.0156 210.7813,554.0156 Q211.4063,554.0156 212,553.75 Q212.5938,553.4688 213.2188,552.8906 L213.2188,555.6094 Z "/><text fill="#000000" font-family="sans-serif" font-size="12" font-style="italic" lengthAdjust="spacingAndGlyphs" textLength="50" x="237.75" y="547.1387">«struct»</text><text fill="#000000" font-family="sans-serif" font-size="12" lengthAdjust="spacingAndGlyphs" textLength="64" x="230.75" y="561.1074">JumpState</text><line style="stroke: #A80036; stroke-width: 1.5;" x1="164" x2="329" y1="568.9375" y2="568.9375"/><ellipse cx="174" cy="579.9375" fill="none" rx="3" ry="3" style="stroke: #038048; stroke-width: 1.0;"/><text fill="#000000" font-family="sans-serif" font-size="11" lengthAdjust="spacingAndGlyphs" textLength="122" x="183" y="583.1479">queuedAttempt : bool</text><ellipse cx="174" cy="592.7422" fill="none" rx="3" ry="3" style="stroke: #038048; stroke-width: 1.0;"/><text fill="#000000" font-family="sans-serif" font-size="11" lengthAdjust="spacingAndGlyphs" textLength="91" x="183" y="595.9526">isJumping : bool</text><ellipse cx="174" cy="605.5469" fill="none" rx="3" ry="3" style="stroke: #038048; stroke-width: 1.0;"/><text fill="#000000" font-family="sans-serif" font-size="11" lengthAdjust="spacingAndGlyphs" textLength="138" x="183" y="608.7573">jumpedThisFrame : bool</text><ellipse cx="174" cy="618.3516" fill="none" rx="3" ry="3" style="stroke: #038048; stroke-width: 1.0;"/><text fill="#000000" font-family="sans-serif" font-size="11" lengthAdjust="spacingAndGlyphs" textLength="141" x="183" y="621.562">timeSinceAtttempt : float</text><line style="stroke: #A80036; stroke-width: 1.5;" x1="164" x2="329" y1="628.1563" y2="628.1563"/><!--MD5=[83b3cf3d23d77c6f1e1b5291a241bc2a]
class MonoBehaviour--><rect fill="#FEFECE" filter="url(#fb3pzj4qf2qzq)" height="48" id="MonoBehaviour" style="stroke: #A80036; stroke-width: 1.5;" width="128" x="305.5" y="8"/><ellipse cx="320.5" cy="24" fill="#ADD1B2" rx="11" ry="11" style="stroke: #A80036; stroke-width: 1.0;"/><path d="M323.4688,29.6406 Q322.8906,29.9375 322.25,30.0781 Q321.6094,30.2344 320.9063,30.2344 Q318.4063,30.2344 317.0781,28.5938 Q315.7656,26.9375 315.7656,23.8125 Q315.7656,20.6875 317.0781,19.0313 Q318.4063,17.375 320.9063,17.375 Q321.6094,17.375 322.25,17.5313 Q322.9063,17.6875 323.4688,17.9844 L323.4688,20.7031 Q322.8438,20.125 322.25,19.8594 Q321.6563,19.5781 321.0313,19.5781 Q319.6875,19.5781 319,20.6563 Q318.3125,21.7188 318.3125,23.8125 Q318.3125,25.9063 319,26.9844 Q319.6875,28.0469 321.0313,28.0469 Q321.6563,28.0469 322.25,27.7813 Q322.8438,27.5 323.4688,26.9219 L323.4688,29.6406 Z "/><text fill="#000000" font-family="sans-serif" font-size="12" lengthAdjust="spacingAndGlyphs" textLength="96" x="334.5" y="28.1543">MonoBehaviour</text><line style="stroke: #A80036; stroke-width: 1.5;" x1="306.5" x2="432.5" y1="40" y2="40"/><line style="stroke: #A80036; stroke-width: 1.5;" x1="306.5" x2="432.5" y1="48" y2="48"/><!--MD5=[bb845786950c76b7210624c2e536e938]
class ICharacterController--><rect fill="#FEFECE" filter="url(#fb3pzj4qf2qzq)" height="48" id="ICharacterController" style="stroke: #A80036; stroke-width: 1.5;" width="158" x="468.5" y="8"/><ellipse cx="483.5" cy="24" fill="#ADD1B2" rx="11" ry="11" style="stroke: #A80036; stroke-width: 1.0;"/><path d="M486.4688,29.6406 Q485.8906,29.9375 485.25,30.0781 Q484.6094,30.2344 483.9063,30.2344 Q481.4063,30.2344 480.0781,28.5938 Q478.7656,26.9375 478.7656,23.8125 Q478.7656,20.6875 480.0781,19.0313 Q481.4063,17.375 483.9063,17.375 Q484.6094,17.375 485.25,17.5313 Q485.9063,17.6875 486.4688,17.9844 L486.4688,20.7031 Q485.8438,20.125 485.25,19.8594 Q484.6563,19.5781 484.0313,19.5781 Q482.6875,19.5781 482,20.6563 Q481.3125,21.7188 481.3125,23.8125 Q481.3125,25.9063 482,26.9844 Q482.6875,28.0469 484.0313,28.0469 Q484.6563,28.0469 485.25,27.7813 Q485.8438,27.5 486.4688,26.9219 L486.4688,29.6406 Z "/><text fill="#000000" font-family="sans-serif" font-size="12" lengthAdjust="spacingAndGlyphs" textLength="126" x="497.5" y="28.1543">ICharacterController</text><line style="stroke: #A80036; stroke-width: 1.5;" x1="469.5" x2="625.5" y1="40" y2="40"/><line style="stroke: #A80036; stroke-width: 1.5;" x1="469.5" x2="625.5" y1="48" y2="48"/><!--MD5=[d7c09c2ef0556dd515b6819707a16934]
class IPlayerController--><rect fill="#FEFECE" filter="url(#fb3pzj4qf2qzq)" height="48" id="IPlayerController" style="stroke: #A80036; stroke-width: 1.5;" width="134" x="661.5" y="8"/><ellipse cx="676.5" cy="24" fill="#ADD1B2" rx="11" ry="11" style="stroke: #A80036; stroke-width: 1.0;"/><path d="M679.4688,29.6406 Q678.8906,29.9375 678.25,30.0781 Q677.6094,30.2344 676.9063,30.2344 Q674.4063,30.2344 673.0781,28.5938 Q671.7656,26.9375 671.7656,23.8125 Q671.7656,20.6875 673.0781,19.0313 Q674.4063,17.375 676.9063,17.375 Q677.6094,17.375 678.25,17.5313 Q678.9063,17.6875 679.4688,17.9844 L679.4688,20.7031 Q678.8438,20.125 678.25,19.8594 Q677.6563,19.5781 677.0313,19.5781 Q675.6875,19.5781 675,20.6563 Q674.3125,21.7188 674.3125,23.8125 Q674.3125,25.9063 675,26.9844 Q675.6875,28.0469 677.0313,28.0469 Q677.6563,28.0469 678.25,27.7813 Q678.8438,27.5 679.4688,26.9219 L679.4688,29.6406 Z "/><text fill="#000000" font-family="sans-serif" font-size="12" lengthAdjust="spacingAndGlyphs" textLength="102" x="690.5" y="28.1543">IPlayerController</text><line style="stroke: #A80036; stroke-width: 1.5;" x1="662.5" x2="794.5" y1="40" y2="40"/><line style="stroke: #A80036; stroke-width: 1.5;" x1="662.5" x2="794.5" y1="48" y2="48"/><!--MD5=[45c5b2a425f4af14f5f24927137fa1d4]
class KinematicCharacterMotor--><rect fill="#FEFECE" filter="url(#fb3pzj4qf2qzq)" height="48" id="KinematicCharacterMotor" style="stroke: #A80036; stroke-width: 1.5;" width="190" x="365.5" y="559.5"/><ellipse cx="380.5" cy="575.5" fill="#ADD1B2" rx="11" ry="11" style="stroke: #A80036; stroke-width: 1.0;"/><path d="M383.4688,581.1406 Q382.8906,581.4375 382.25,581.5781 Q381.6094,581.7344 380.9063,581.7344 Q378.4063,581.7344 377.0781,580.0938 Q375.7656,578.4375 375.7656,575.3125 Q375.7656,572.1875 377.0781,570.5313 Q378.4063,568.875 380.9063,568.875 Q381.6094,568.875 382.25,569.0313 Q382.9063,569.1875 383.4688,569.4844 L383.4688,572.2031 Q382.8438,571.625 382.25,571.3594 Q381.6563,571.0781 381.0313,571.0781 Q379.6875,571.0781 379,572.1563 Q378.3125,573.2188 378.3125,575.3125 Q378.3125,577.4063 379,578.4844 Q379.6875,579.5469 381.0313,579.5469 Q381.6563,579.5469 382.25,579.2813 Q382.8438,579 383.4688,578.4219 L383.4688,581.1406 Z "/><text fill="#000000" font-family="sans-serif" font-size="12" lengthAdjust="spacingAndGlyphs" textLength="158" x="394.5" y="579.6543">KinematicCharacterMotor</text><line style="stroke: #A80036; stroke-width: 1.5;" x1="366.5" x2="554.5" y1="591.5" y2="591.5"/><line style="stroke: #A80036; stroke-width: 1.5;" x1="366.5" x2="554.5" y1="599.5" y2="599.5"/><!--MD5=[8b805049d0499e23d33da8a1efc9f54d]
class Animator--><rect fill="#FEFECE" filter="url(#fb3pzj4qf2qzq)" height="48" id="Animator" style="stroke: #A80036; stroke-width: 1.5;" width="88" x="590.5" y="559.5"/><ellipse cx="605.5" cy="575.5" fill="#ADD1B2" rx="11" ry="11" style="stroke: #A80036; stroke-width: 1.0;"/><path d="M608.4688,581.1406 Q607.8906,581.4375 607.25,581.5781 Q606.6094,581.7344 605.9063,581.7344 Q603.4063,581.7344 602.0781,580.0938 Q600.7656,578.4375 600.7656,575.3125 Q600.7656,572.1875 602.0781,570.5313 Q603.4063,568.875 605.9063,568.875 Q606.6094,568.875 607.25,569.0313 Q607.9063,569.1875 608.4688,569.4844 L608.4688,572.2031 Q607.8438,571.625 607.25,571.3594 Q606.6563,571.0781 606.0313,571.0781 Q604.6875,571.0781 604,572.1563 Q603.3125,573.2188 603.3125,575.3125 Q603.3125,577.4063 604,578.4844 Q604.6875,579.5469 606.0313,579.5469 Q606.6563,579.5469 607.25,579.2813 Q607.8438,579 608.4688,578.4219 L608.4688,581.1406 Z "/><text fill="#000000" font-family="sans-serif" font-size="12" lengthAdjust="spacingAndGlyphs" textLength="56" x="619.5" y="579.6543">Animator</text><line style="stroke: #A80036; stroke-width: 1.5;" x1="591.5" x2="677.5" y1="591.5" y2="591.5"/><line style="stroke: #A80036; stroke-width: 1.5;" x1="591.5" x2="677.5" y1="599.5" y2="599.5"/><!--MD5=[65d619c042c23702cef2ca07d67b1cf6]
class Vector3--><rect fill="#FEFECE" filter="url(#fb3pzj4qf2qzq)" height="48" id="Vector3" style="stroke: #A80036; stroke-width: 1.5;" width="81" x="714" y="559.5"/><ellipse cx="729" cy="575.5" fill="#ADD1B2" rx="11" ry="11" style="stroke: #A80036; stroke-width: 1.0;"/><path d="M731.9688,581.1406 Q731.3906,581.4375 730.75,581.5781 Q730.1094,581.7344 729.4063,581.7344 Q726.9063,581.7344 725.5781,580.0938 Q724.2656,578.4375 724.2656,575.3125 Q724.2656,572.1875 725.5781,570.5313 Q726.9063,568.875 729.4063,568.875 Q730.1094,568.875 730.75,569.0313 Q731.4063,569.1875 731.9688,569.4844 L731.9688,572.2031 Q731.3438,571.625 730.75,571.3594 Q730.1563,571.0781 729.5313,571.0781 Q728.1875,571.0781 727.5,572.1563 Q726.8125,573.2188 726.8125,575.3125 Q726.8125,577.4063 727.5,578.4844 Q728.1875,579.5469 729.5313,579.5469 Q730.1563,579.5469 730.75,579.2813 Q731.3438,579 731.9688,578.4219 L731.9688,581.1406 Z "/><text fill="#000000" font-family="sans-serif" font-size="12" lengthAdjust="spacingAndGlyphs" textLength="49" x="743" y="579.6543">Vector3</text><line style="stroke: #A80036; stroke-width: 1.5;" x1="715" x2="794" y1="591.5" y2="591.5"/><line style="stroke: #A80036; stroke-width: 1.5;" x1="715" x2="794" y1="599.5" y2="599.5"/><!--MD5=[2165a0a840a65325cb57faa5b6f31023]
reverse link MonoBehaviour to PlayerController--><path d="M396.75,72.72 C405.37,85.29 415.52,100.09 426.4,115.96 " fill="none" id="MonoBehaviour&lt;-PlayerController" style="stroke: #A80036; stroke-width: 1.0;"/><polygon fill="none" points="390.84,76.48,385.3,56.03,402.38,68.56,390.84,76.48" style="stroke: #A80036; stroke-width: 1.0;"/><!--MD5=[bba2d5340619fe6c072311ff0475f1af]
reverse link ICharacterController to PlayerController--><path d="M547.5,76.29 C547.5,88.05 547.5,101.56 547.5,115.96 " fill="none" id="ICharacterController&lt;-PlayerController" style="stroke: #A80036; stroke-width: 1.0;"/><polygon fill="none" points="540.5,76.03,547.5,56.03,554.5,76.03,540.5,76.03" style="stroke: #A80036; stroke-width: 1.0;"/><!--MD5=[2e018d705b73ed03611e4413a8da5b11]
reverse link IPlayerController to PlayerController--><path d="M700.79,72.72 C692.03,85.29 681.71,100.09 670.64,115.96 " fill="none" id="IPlayerController&lt;-PlayerController" style="stroke: #A80036; stroke-width: 1.0;"/><polygon fill="none" points="695.25,68.43,712.44,56.03,706.74,76.44,695.25,68.43" style="stroke: #A80036; stroke-width: 1.0;"/><!--MD5=[a64faf83cb57e7322a141a8c6715ab32]
link PlayerController to KinematicCharacterMotor--><path d="M494.14,471.15 C484.3,503.71 475.18,533.91 468.92,554.62 " fill="none" id="PlayerController-&gt;KinematicCharacterMotor" style="stroke: #A80036; stroke-width: 1.0;"/><polygon fill="#A80036" points="467.47,559.42,473.918,551.9753,468.9264,554.6368,466.2649,549.6451,467.47,559.42" style="stroke: #A80036; stroke-width: 1.0;"/><text fill="#000000" font-family="sans-serif" font-size="13" lengthAdjust="spacingAndGlyphs" textLength="39" x="425.2592" y="548.4115">motor</text><!--MD5=[b8104844a7135d57bfb7b1be281d9ff2]
link PlayerController to Animator--><path d="M600.86,471.15 C610.7,503.71 619.82,533.91 626.08,554.62 " fill="none" id="PlayerController-&gt;Animator" style="stroke: #A80036; stroke-width: 1.0;"/><polygon fill="#A80036" points="627.53,559.42,628.7351,549.6451,626.0736,554.6368,621.082,551.9753,627.53,559.42" style="stroke: #A80036; stroke-width: 1.0;"/><text fill="#000000" font-family="sans-serif" font-size="13" lengthAdjust="spacingAndGlyphs" textLength="58" x="560.3127" y="548.4115">animator</text><!--MD5=[6ca00cd47076db92fc71869a6278f0c1]
link PlayerController to JumpState--><path d="M350.42,471.15 C329.75,491.29 310.36,510.52 294.03,527.17 " fill="none" id="PlayerController-&gt;JumpState" style="stroke: #A80036; stroke-width: 1.0;"/><polygon fill="#A80036" points="290.38,530.9,299.5362,527.2718,293.8796,527.3289,293.8225,521.6724,290.38,530.9" style="stroke: #A80036; stroke-width: 1.0;"/><text fill="#000000" font-family="sans-serif" font-size="13" lengthAdjust="spacingAndGlyphs" textLength="67" x="224.7748" y="519.8894">jumpState</text><!--MD5=[23ac03623d260c6d3362d3deb6e12ecb]
reverse link PlayerController to JumpState--><path d="M365.04,481.47 C345.9,499.33 327.48,516.22 311.07,530.9 " fill="none" id="PlayerController&lt;-JumpState" style="stroke: #A80036; stroke-width: 1.0;"/><ellipse cx="370.2197" cy="476.6172" fill="#FFFFFF" rx="8" ry="8" style="stroke: #A80036; stroke-width: 1.0;"/><line style="stroke: #A80036; stroke-width: 1.0;" x1="364.3793" x2="376.06" y1="482.0844" y2="471.15"/><line style="stroke: #A80036; stroke-width: 1.0;" x1="364.7524" x2="375.6869" y1="470.7769" y2="482.4576"/><!--MD5=[05e857ac238c7ff3dfcd07985a0e4e0f]
link PlayerController to Vector3--><path d="M662.01,471.15 C686.32,504.12 709.82,534.67 727.19,555.4 " fill="none" id="PlayerController-&gt;Vector3" style="stroke: #A80036; stroke-width: 1.0;"/><polygon fill="#A80036" points="730.58,559.42,727.8185,549.9662,727.3496,555.6036,721.7123,555.1348,730.58,559.42" style="stroke: #A80036; stroke-width: 1.0;"/><text fill="#000000" font-family="sans-serif" font-size="13" lengthAdjust="spacingAndGlyphs" textLength="78" x="667.2068" y="548.4115">moveVector</text><!--MD5=[05e857ac238c7ff3dfcd07985a0e4e0f]
link PlayerController to Vector3--><path d="M687.66,471.15 C710.51,503.84 730.7,534.16 743.01,554.88 " fill="none" id="PlayerController-&gt;Vector3-1" style="stroke: #A80036; stroke-width: 1.0;"/><polygon fill="#A80036" points="745.66,559.42,744.5601,549.6327,743.1318,555.1063,737.6582,553.6779,745.66,559.42" style="stroke: #A80036; stroke-width: 1.0;"/><text fill="#000000" font-family="sans-serif" font-size="13" lengthAdjust="spacingAndGlyphs" textLength="68" x="752.1072" y="548.4115">lookVector</text><!--MD5=[55ef904ad1fbe1a0cd029d50e2c7fe3f]
@startuml
class PlayerController {
    + maxSpeed : float = 1f
    + maxAirSpeed : float = 1f
    + airAccel : float = 1f
    + airDrag : float = 0.1f
    + jumpForce : float = 1f
    + jumpWhileSliding : bool = false
    + bunnyhopTimeWindow : float = 0.25f
    + jumpUngroundingForce : float = 0.1f
    - Awake() : void
    + SetPlayerInputs(inputs:PlayerInputs) : void
    - IsGroundJumpable() : bool
    + ToNetworkState() : PlayerState
    + ApplyNetworkState(state:PlayerState) : void
    + Simulate(dt:float) : void
    + UpdateRotation(currentRotation:Quaternion, deltaTime:float) : void
    + UpdateVelocity(currentVelocity:Vector3, deltaTime:float) : void
    + BeforeCharacterUpdate(deltaTime:float) : void
    + AfterCharacterUpdate(deltaTime:float) : void
    + PostGroundingUpdate(deltaTime:float) : void
    + IsColliderValidForCollisions(coll:Collider) : bool
    + OnGroundHit(hitCollider:Collider, hitNormal:Vector3, hitPoint:Vector3, hitStabilityReport:HitStabilityReport) : void
    + OnMovementHit(hitCollider:Collider, hitNormal:Vector3, hitPoint:Vector3, hitStabilityReport:HitStabilityReport) : void
    + ProcessHitStabilityReport(hitCollider:Collider, hitNormal:Vector3, hitPoint:Vector3, atCharacterPosition:Vector3, atCharacterRotation:Quaternion, hitStabilityReport:HitStabilityReport) : void
    + OnDiscreteCollisionDetected(hitCollider:Collider) : void
}
class JumpState <<struct>> {
    + queuedAttempt : bool
    + isJumping : bool
    + jumpedThisFrame : bool
    + timeSinceAtttempt : float
}
MonoBehaviour <|- - PlayerController
ICharacterController <|- - PlayerController
IPlayerController <|- - PlayerController
PlayerController - -> "motor" KinematicCharacterMotor
PlayerController - -> "animator" Animator
PlayerController - -> "jumpState" JumpState
PlayerController - -> "moveVector" Vector3
PlayerController - -> "lookVector" Vector3
PlayerController +- - JumpState
@enduml

PlantUML version 1.2020.08(Sun Apr 26 14:08:22 GMT 2020)
(GPL source distribution)
Java Runtime: OpenJDK Runtime Environment
JVM: OpenJDK 64-Bit Server VM
Java Version: 15-ea+10
Operating System: Linux
Default Encoding: UTF-8
Language: en
Country: US
--></g></svg>