<?xml version="1.0" encoding="UTF-8" standalone="no"?><svg xmlns="http://www.w3.org/2000/svg" xmlns:xlink="http://www.w3.org/1999/xlink" contentScriptType="application/ecmascript" contentStyleType="text/css" height="411px" preserveAspectRatio="none" style="width:567px;height:411px;" version="1.1" viewBox="0 0 567 411" width="567px" zoomAndPan="magnify"><defs><filter height="300%" id="f9kv61ud36gje" width="300%" x="-1" y="-1"><feGaussianBlur result="blurOut" stdDeviation="2.0"/><feColorMatrix in="blurOut" result="blurOut2" type="matrix" values="0 0 0 0 0 0 0 0 0 0 0 0 0 0 0 0 0 0 .4 0"/><feOffset dx="4.0" dy="4.0" in="blurOut2" result="blurOut3"/><feBlend in="SourceGraphic" in2="blurOut3" mode="normal"/></filter></defs><g><!--MD5=[d2bd05e7b33ea8372fd388c92845b4a4]
class PlayerManager--><rect fill="#FEFECE" filter="url(#f9kv61ud36gje)" height="163.2422" id="PlayerManager" style="stroke: #A80036; stroke-width: 1.5;" width="550" x="6" y="129"/><ellipse cx="230.25" cy="145" fill="#ADD1B2" rx="11" ry="11" style="stroke: #A80036; stroke-width: 1.0;"/><path d="M233.2188,150.6406 Q232.6406,150.9375 232,151.0781 Q231.3594,151.2344 230.6563,151.2344 Q228.1563,151.2344 226.8281,149.5938 Q225.5156,147.9375 225.5156,144.8125 Q225.5156,141.6875 226.8281,140.0313 Q228.1563,138.375 230.6563,138.375 Q231.3594,138.375 232,138.5313 Q232.6563,138.6875 233.2188,138.9844 L233.2188,141.7031 Q232.5938,141.125 232,140.8594 Q231.4063,140.5781 230.7813,140.5781 Q229.4375,140.5781 228.75,141.6563 Q228.0625,142.7188 228.0625,144.8125 Q228.0625,146.9063 228.75,147.9844 Q229.4375,149.0469 230.7813,149.0469 Q231.4063,149.0469 232,148.7813 Q232.5938,148.5 233.2188,147.9219 L233.2188,150.6406 Z "/><text fill="#000000" font-family="sans-serif" font-size="12" lengthAdjust="spacingAndGlyphs" textLength="93" x="250.75" y="149.1543">PlayerManager</text><line style="stroke: #A80036; stroke-width: 1.5;" x1="7" x2="555" y1="161" y2="161"/><line style="stroke: #A80036; stroke-width: 1.5;" x1="7" x2="555" y1="169" y2="169"/><ellipse cx="17" cy="180" fill="#84BE84" rx="3" ry="3" style="stroke: #038048; stroke-width: 1.0;"/><text fill="#000000" font-family="sans-serif" font-size="11" lengthAdjust="spacingAndGlyphs" textLength="92" x="26" y="183.2104">PlayerManager()</text><ellipse cx="17" cy="192.8047" fill="#84BE84" rx="3" ry="3" style="stroke: #038048; stroke-width: 1.0;"/><text fill="#000000" font-family="sans-serif" font-size="11" lengthAdjust="spacingAndGlyphs" textLength="148" x="26" y="196.0151">GetPlayer(id:byte) : Player</text><ellipse cx="17" cy="205.6094" fill="#84BE84" rx="3" ry="3" style="stroke: #038048; stroke-width: 1.0;"/><text fill="#000000" font-family="sans-serif" font-size="11" lengthAdjust="spacingAndGlyphs" textLength="155" x="26" y="208.8198">GetPlayers() : List&lt;Player&gt;</text><ellipse cx="17" cy="218.4141" fill="#84BE84" rx="3" ry="3" style="stroke: #038048; stroke-width: 1.0;"/><text fill="#000000" font-family="sans-serif" font-size="11" lengthAdjust="spacingAndGlyphs" textLength="124" x="26" y="221.6245">GetPlayerIds() : byte[]</text><ellipse cx="17" cy="231.2188" fill="#84BE84" rx="3" ry="3" style="stroke: #038048; stroke-width: 1.0;"/><text fill="#000000" font-family="sans-serif" font-size="11" lengthAdjust="spacingAndGlyphs" textLength="229" x="26" y="234.4292">GetPlayerForPeer(peer:NetPeer) : Player</text><ellipse cx="17" cy="244.0234" fill="#84BE84" rx="3" ry="3" style="stroke: #038048; stroke-width: 1.0;"/><text fill="#000000" font-family="sans-serif" font-size="11" lengthAdjust="spacingAndGlyphs" textLength="524" x="26" y="247.2339">AddPlayer(playerId:byte, metadata:PlayerMetadata, playerGameObject:GameObject) : Player</text><ellipse cx="17" cy="256.8281" fill="#84BE84" rx="3" ry="3" style="stroke: #038048; stroke-width: 1.0;"/><text fill="#000000" font-family="sans-serif" font-size="11" lengthAdjust="spacingAndGlyphs" textLength="196" x="26" y="260.0386">RemovePlayer(playerId:byte) : void</text><ellipse cx="17" cy="269.6328" fill="#84BE84" rx="3" ry="3" style="stroke: #038048; stroke-width: 1.0;"/><text fill="#000000" font-family="sans-serif" font-size="11" lengthAdjust="spacingAndGlyphs" textLength="73" x="26" y="272.8433">Clear() : void</text><rect fill="#F24D5C" height="6" style="stroke: #C82930; stroke-width: 1.0;" width="6" x="14" y="279.4375"/><text fill="#000000" font-family="sans-serif" font-size="11" lengthAdjust="spacingAndGlyphs" textLength="130" x="26" y="285.6479">CachePlayerIds() : void</text><!--MD5=[8dc37027bf23b3aac7d89bc0ab263ffb]
class IPlayerLookup--><rect fill="#FEFECE" filter="url(#f9kv61ud36gje)" height="60.8047" id="IPlayerLookup" style="stroke: #A80036; stroke-width: 1.5;" width="160" x="201" y="8"/><ellipse cx="234" cy="24" fill="#B4A7E5" rx="11" ry="11" style="stroke: #A80036; stroke-width: 1.0;"/><path d="M229.9219,19.7656 L229.9219,17.6094 L237.3125,17.6094 L237.3125,19.7656 L234.8438,19.7656 L234.8438,27.8438 L237.3125,27.8438 L237.3125,30 L229.9219,30 L229.9219,27.8438 L232.3906,27.8438 L232.3906,19.7656 L229.9219,19.7656 Z "/><text fill="#000000" font-family="sans-serif" font-size="12" font-style="italic" lengthAdjust="spacingAndGlyphs" textLength="88" x="252" y="28.1543">IPlayerLookup</text><line style="stroke: #A80036; stroke-width: 1.5;" x1="202" x2="360" y1="40" y2="40"/><line style="stroke: #A80036; stroke-width: 1.5;" x1="202" x2="360" y1="48" y2="48"/><text fill="#000000" font-family="sans-serif" font-size="11" lengthAdjust="spacingAndGlyphs" textLength="148" x="207" y="62.2104">GetPlayer(id:byte) : Player</text><!--MD5=[2e1ff885372daab8d802f213ced6c836]
class Dictionary`2--><rect fill="#FEFECE" filter="url(#f9kv61ud36gje)" height="48" id="Dictionary`2" style="stroke: #A80036; stroke-width: 1.5;" width="146" x="208" y="352"/><ellipse cx="223" cy="368" fill="#ADD1B2" rx="11" ry="11" style="stroke: #A80036; stroke-width: 1.0;"/><path d="M225.9688,373.6406 Q225.3906,373.9375 224.75,374.0781 Q224.1094,374.2344 223.4063,374.2344 Q220.9063,374.2344 219.5781,372.5938 Q218.2656,370.9375 218.2656,367.8125 Q218.2656,364.6875 219.5781,363.0313 Q220.9063,361.375 223.4063,361.375 Q224.1094,361.375 224.75,361.5313 Q225.4063,361.6875 225.9688,361.9844 L225.9688,364.7031 Q225.3438,364.125 224.75,363.8594 Q224.1563,363.5781 223.5313,363.5781 Q222.1875,363.5781 221.5,364.6563 Q220.8125,365.7188 220.8125,367.8125 Q220.8125,369.9063 221.5,370.9844 Q222.1875,372.0469 223.5313,372.0469 Q224.1563,372.0469 224.75,371.7813 Q225.3438,371.5 225.9688,370.9219 L225.9688,373.6406 Z "/><text fill="#000000" font-family="sans-serif" font-size="12" lengthAdjust="spacingAndGlyphs" textLength="76" x="237" y="372.1543">Dictionary`2</text><rect fill="#FFFFFF" height="15.9688" style="stroke: #000000; stroke-width: 1.0; stroke-dasharray: 2.0,2.0;" width="36" x="321" y="349"/><text fill="#000000" font-family="sans-serif" font-size="12" font-style="italic" lengthAdjust="spacingAndGlyphs" textLength="34" x="322" y="361.1387">T1,T2</text><line style="stroke: #A80036; stroke-width: 1.5;" x1="209" x2="353" y1="384" y2="384"/><line style="stroke: #A80036; stroke-width: 1.5;" x1="209" x2="353" y1="392" y2="392"/><!--MD5=[f6b724474224900d917e3040fa6668a9]
reverse link IPlayerLookup to PlayerManager--><path d="M281,89.21 C281,101.62 281,115.25 281,128.74 " fill="none" id="IPlayerLookup&lt;-PlayerManager" style="stroke: #A80036; stroke-width: 1.0;"/><polygon fill="none" points="274,89.11,281,69.11,288,89.11,274,89.11" style="stroke: #A80036; stroke-width: 1.0;"/><!--MD5=[6cf044f7c55fc2e0368e4b825cfb2f64]
link PlayerManager to Dictionary`2--><path d="M281,292.29 C281,311.78 281,331.34 281,346.55 " fill="none" id="PlayerManager-&gt;Dictionary`2" style="stroke: #A80036; stroke-width: 1.0;"/><polygon fill="#A80036" points="281,351.94,285,342.94,281,346.94,277,342.94,281,351.94" style="stroke: #A80036; stroke-width: 1.0;"/><text fill="#000000" font-family="sans-serif" font-size="13" lengthAdjust="spacingAndGlyphs" textLength="139" x="124.1906" y="340.9367">players&lt;byte,Player&gt;</text><!--MD5=[3a7461444ddc9c58ea60cae1c22807c4]
@startuml
class PlayerManager {
    + PlayerManager()
    + GetPlayer(id:byte) : Player
    + GetPlayers() : List<Player>
    + GetPlayerIds() : byte[]
    + GetPlayerForPeer(peer:NetPeer) : Player
    + AddPlayer(playerId:byte, metadata:PlayerMetadata, playerGameObject:GameObject) : Player
    + RemovePlayer(playerId:byte) : void
    + Clear() : void
    - CachePlayerIds() : void
}
interface IPlayerLookup {
    GetPlayer(id:byte) : Player
}
class "Dictionary`2"<T1,T2> {
}
IPlayerLookup <|- - PlayerManager
PlayerManager - -> "players<byte,Player>" "Dictionary`2"
@enduml

PlantUML version 1.2020.08(Sun Apr 26 14:08:22 GMT 2020)
(GPL source distribution)
Java Runtime: OpenJDK Runtime Environment
JVM: OpenJDK 64-Bit Server VM
Java Version: 15-ea+10
Operating System: Linux
Default Encoding: UTF-8
Language: en
Country: US
--></g></svg>