<?xml version="1.0" encoding="UTF-8" standalone="no"?><svg xmlns="http://www.w3.org/2000/svg" xmlns:xlink="http://www.w3.org/1999/xlink" contentScriptType="application/ecmascript" contentStyleType="text/css" height="175px" preserveAspectRatio="none" style="width:528px;height:175px;" version="1.1" viewBox="0 0 528 175" width="528px" zoomAndPan="magnify"><defs><filter height="300%" id="fsz88c3ivcc95" width="300%" x="-1" y="-1"><feGaussianBlur result="blurOut" stdDeviation="2.0"/><feColorMatrix in="blurOut" result="blurOut2" type="matrix" values="0 0 0 0 0 0 0 0 0 0 0 0 0 0 0 0 0 0 .4 0"/><feOffset dx="4.0" dy="4.0" in="blurOut2" result="blurOut3"/><feBlend in="SourceGraphic" in2="blurOut3" mode="normal"/></filter></defs><g><!--MD5=[fb0932da17f9982e4848347a102654e2]
class Settings--><rect fill="#FEFECE" filter="url(#fsz88c3ivcc95)" height="156.375" id="Settings" style="stroke: #A80036; stroke-width: 1.5;" width="259" x="6" y="8"/><ellipse cx="105.25" cy="26.9688" fill="#ADD1B2" rx="11" ry="11" style="stroke: #A80036; stroke-width: 1.0;"/><path d="M108.2188,32.6094 Q107.6406,32.9063 107,33.0469 Q106.3594,33.2031 105.6563,33.2031 Q103.1563,33.2031 101.8281,31.5625 Q100.5156,29.9063 100.5156,26.7813 Q100.5156,23.6563 101.8281,22 Q103.1563,20.3438 105.6563,20.3438 Q106.3594,20.3438 107,20.5 Q107.6563,20.6563 108.2188,20.9531 L108.2188,23.6719 Q107.5938,23.0938 107,22.8281 Q106.4063,22.5469 105.7813,22.5469 Q104.4375,22.5469 103.75,23.625 Q103.0625,24.6875 103.0625,26.7813 Q103.0625,28.875 103.75,29.9531 Q104.4375,31.0156 105.7813,31.0156 Q106.4063,31.0156 107,30.75 Q107.5938,30.4688 108.2188,29.8906 L108.2188,32.6094 Z "/><text fill="#000000" font-family="sans-serif" font-size="12" font-style="italic" lengthAdjust="spacingAndGlyphs" textLength="48" x="127.75" y="24.1387">«static»</text><text fill="#000000" font-family="sans-serif" font-size="12" lengthAdjust="spacingAndGlyphs" textLength="52" x="125.75" y="38.1074">Settings</text><line style="stroke: #A80036; stroke-width: 1.5;" x1="7" x2="264" y1="45.9375" y2="45.9375"/><ellipse cx="17" cy="56.9375" fill="none" rx="3" ry="3" style="stroke: #038048; stroke-width: 1.0;"/><text fill="#000000" font-family="sans-serif" font-size="11" lengthAdjust="spacingAndGlyphs" text-decoration="underline" textLength="144" x="26" y="60.1479">SimulationTickRate : float</text><ellipse cx="17" cy="69.7422" fill="none" rx="3" ry="3" style="stroke: #038048; stroke-width: 1.0;"/><text fill="#000000" font-family="sans-serif" font-size="11" lengthAdjust="spacingAndGlyphs" text-decoration="underline" textLength="161" x="26" y="72.9526">SimulationTickInterval : float</text><ellipse cx="17" cy="82.5469" fill="none" rx="3" ry="3" style="stroke: #038048; stroke-width: 1.0;"/><text fill="#000000" font-family="sans-serif" font-size="11" lengthAdjust="spacingAndGlyphs" text-decoration="underline" textLength="129" x="26" y="85.7573">ServerSendRate : float</text><ellipse cx="17" cy="95.3516" fill="none" rx="3" ry="3" style="stroke: #038048; stroke-width: 1.0;"/><text fill="#000000" font-family="sans-serif" font-size="11" lengthAdjust="spacingAndGlyphs" text-decoration="underline" textLength="146" x="26" y="98.562">ServerSendInterval : float</text><ellipse cx="17" cy="108.1563" fill="none" rx="3" ry="3" style="stroke: #038048; stroke-width: 1.0;"/><text fill="#000000" font-family="sans-serif" font-size="11" lengthAdjust="spacingAndGlyphs" text-decoration="underline" textLength="231" x="26" y="111.3667">MaxStaleServerStateAgeMs : float = 500</text><ellipse cx="17" cy="120.9609" fill="none" rx="3" ry="3" style="stroke: #038048; stroke-width: 1.0;"/><text fill="#000000" font-family="sans-serif" font-size="11" lengthAdjust="spacingAndGlyphs" text-decoration="underline" textLength="174" x="26" y="124.1714">MaxStaleServerStateTicks : int</text><ellipse cx="17" cy="133.7656" fill="none" rx="3" ry="3" style="stroke: #038048; stroke-width: 1.0;"/><text fill="#000000" font-family="sans-serif" font-size="11" lengthAdjust="spacingAndGlyphs" text-decoration="underline" textLength="233" x="26" y="136.9761">FreezeClientOnStaleServer : bool = false</text><ellipse cx="17" cy="146.5703" fill="none" rx="3" ry="3" style="stroke: #038048; stroke-width: 1.0;"/><text fill="#000000" font-family="sans-serif" font-size="11" lengthAdjust="spacingAndGlyphs" text-decoration="underline" textLength="220" x="26" y="149.7808">ClientIdealBufferedInputLimit : uint = 3</text><line style="stroke: #A80036; stroke-width: 1.5;" x1="7" x2="264" y1="156.375" y2="156.375"/><!--MD5=[53103a2ef5837e9a1a31dfb3a6dd9e1a]
class TimeSpan--><rect fill="#FEFECE" filter="url(#fsz88c3ivcc95)" height="48" id="TimeSpan" style="stroke: #A80036; stroke-width: 1.5;" width="93" x="300" y="62"/><ellipse cx="315" cy="78" fill="#ADD1B2" rx="11" ry="11" style="stroke: #A80036; stroke-width: 1.0;"/><path d="M317.9688,83.6406 Q317.3906,83.9375 316.75,84.0781 Q316.1094,84.2344 315.4063,84.2344 Q312.9063,84.2344 311.5781,82.5938 Q310.2656,80.9375 310.2656,77.8125 Q310.2656,74.6875 311.5781,73.0313 Q312.9063,71.375 315.4063,71.375 Q316.1094,71.375 316.75,71.5313 Q317.4063,71.6875 317.9688,71.9844 L317.9688,74.7031 Q317.3438,74.125 316.75,73.8594 Q316.1563,73.5781 315.5313,73.5781 Q314.1875,73.5781 313.5,74.6563 Q312.8125,75.7188 312.8125,77.8125 Q312.8125,79.9063 313.5,80.9844 Q314.1875,82.0469 315.5313,82.0469 Q316.1563,82.0469 316.75,81.7813 Q317.3438,81.5 317.9688,80.9219 L317.9688,83.6406 Z "/><text fill="#000000" font-family="sans-serif" font-size="12" lengthAdjust="spacingAndGlyphs" textLength="61" x="329" y="82.1543">TimeSpan</text><line style="stroke: #A80036; stroke-width: 1.5;" x1="301" x2="392" y1="94" y2="94"/><line style="stroke: #A80036; stroke-width: 1.5;" x1="301" x2="392" y1="102" y2="102"/><!--MD5=[84ed3eb1d4cb65684f5900c428783138]
link Settings to TimeSpan--><path d="M276.7319,137.7102 C276.7319,137.7102 300.39,126.61 311.53,118.35 " fill="none" id="Settings-TimeSpan" style="stroke: #A80036; stroke-width: 1.0;"/><polygon fill="#A80036" points="321.76,110.22,312.2257,112.6893,317.846,113.3314,317.204,118.9517,321.76,110.22" style="stroke: #A80036; stroke-width: 1.0;"/><line style="stroke: #A80036; stroke-width: 1.0;" x1="317.846" x2="311.59" y1="113.3314" y2="118.31"/><polygon fill="#FFFFFF" points="265.31,141.39,272.2475,143.3574,276.7319,137.7102,269.7943,135.7428,265.31,141.39" style="stroke: #A80036; stroke-width: 1.0;"/><text fill="#000000" font-family="sans-serif" font-size="13" lengthAdjust="spacingAndGlyphs" textLength="179" x="337.5453" y="130.0348">MinClientAdjustmentInterval</text><!--MD5=[84ed3eb1d4cb65684f5900c428783138]
link Settings to TimeSpan--><path d="M276.7319,34.2898 C276.7319,34.2898 300.39,45.39 311.53,53.65 " fill="none" id="Settings-TimeSpan-1" style="stroke: #A80036; stroke-width: 1.0;"/><polygon fill="#A80036" points="321.76,61.78,317.204,53.0483,317.846,58.6686,312.2257,59.3107,321.76,61.78" style="stroke: #A80036; stroke-width: 1.0;"/><line style="stroke: #A80036; stroke-width: 1.0;" x1="317.846" x2="311.59" y1="58.6686" y2="53.69"/><polygon fill="#FFFFFF" points="265.31,30.61,269.7943,36.2572,276.7319,34.2898,272.2475,28.6426,265.31,30.61" style="stroke: #A80036; stroke-width: 1.0;"/><text fill="#000000" font-family="sans-serif" font-size="13" lengthAdjust="spacingAndGlyphs" textLength="173" x="336.814" y="51.1313">ClientBufferTooHighInterval</text><!--MD5=[68829fb445c03a1a85f2a99f178b9a31]
@startuml
class Settings <<static>> {
    + {static} SimulationTickRate : float
    + {static} SimulationTickInterval : float
    + {static} ServerSendRate : float
    + {static} ServerSendInterval : float
    + {static} MaxStaleServerStateAgeMs : float = 500
    + {static} MaxStaleServerStateTicks : int
    + {static} FreezeClientOnStaleServer : bool = false
    + {static} ClientIdealBufferedInputLimit : uint = 3
}
Settings o-> "MinClientAdjustmentInterval" TimeSpan
Settings o-> "ClientBufferTooHighInterval" TimeSpan
@enduml

PlantUML version 1.2020.08(Sun Apr 26 14:08:22 GMT 2020)
(GPL source distribution)
Java Runtime: OpenJDK Runtime Environment
JVM: OpenJDK 64-Bit Server VM
Java Version: 15-ea+10
Operating System: Linux
Default Encoding: UTF-8
Language: en
Country: US
--></g></svg>