<?xml version="1.0" encoding="UTF-8" standalone="no"?><svg xmlns="http://www.w3.org/2000/svg" xmlns:xlink="http://www.w3.org/1999/xlink" contentScriptType="application/ecmascript" contentStyleType="text/css" height="590px" preserveAspectRatio="none" style="width:599px;height:590px;" version="1.1" viewBox="0 0 599 590" width="599px" zoomAndPan="magnify"><defs><filter height="300%" id="fu25fzjsg0rq4" width="300%" x="-1" y="-1"><feGaussianBlur result="blurOut" stdDeviation="2.0"/><feColorMatrix in="blurOut" result="blurOut2" type="matrix" values="0 0 0 0 0 0 0 0 0 0 0 0 0 0 0 0 0 0 .4 0"/><feOffset dx="4.0" dy="4.0" in="blurOut2" result="blurOut3"/><feBlend in="SourceGraphic" in2="blurOut3" mode="normal"/></filter></defs><g><!--MD5=[ec6c4567785691c07c713ea627200f25]
class CPMPlayerController--><rect fill="#FEFECE" filter="url(#fu25fzjsg0rq4)" height="355.3125" id="CPMPlayerController" style="stroke: #A80036; stroke-width: 1.5;" width="428" x="43.5" y="116"/><ellipse cx="190.75" cy="132" fill="#ADD1B2" rx="11" ry="11" style="stroke: #A80036; stroke-width: 1.0;"/><path d="M193.7188,137.6406 Q193.1406,137.9375 192.5,138.0781 Q191.8594,138.2344 191.1563,138.2344 Q188.6563,138.2344 187.3281,136.5938 Q186.0156,134.9375 186.0156,131.8125 Q186.0156,128.6875 187.3281,127.0313 Q188.6563,125.375 191.1563,125.375 Q191.8594,125.375 192.5,125.5313 Q193.1563,125.6875 193.7188,125.9844 L193.7188,128.7031 Q193.0938,128.125 192.5,127.8594 Q191.9063,127.5781 191.2813,127.5781 Q189.9375,127.5781 189.25,128.6563 Q188.5625,129.7188 188.5625,131.8125 Q188.5625,133.9063 189.25,134.9844 Q189.9375,136.0469 191.2813,136.0469 Q191.9063,136.0469 192.5,135.7813 Q193.0938,135.5 193.7188,134.9219 L193.7188,137.6406 Z "/><text fill="#000000" font-family="sans-serif" font-size="12" lengthAdjust="spacingAndGlyphs" textLength="125" x="211.25" y="136.1543">CPMPlayerController</text><line style="stroke: #A80036; stroke-width: 1.5;" x1="44.5" x2="470.5" y1="148" y2="148"/><ellipse cx="54.5" cy="159" fill="none" rx="3" ry="3" style="stroke: #038048; stroke-width: 1.0;"/><text fill="#000000" font-family="sans-serif" font-size="11" lengthAdjust="spacingAndGlyphs" textLength="121" x="63.5" y="162.2104">gravity : float = 20.0f</text><ellipse cx="54.5" cy="171.8047" fill="none" rx="3" ry="3" style="stroke: #038048; stroke-width: 1.0;"/><text fill="#000000" font-family="sans-serif" font-size="11" lengthAdjust="spacingAndGlyphs" textLength="100" x="63.5" y="175.0151">friction : float = 6</text><ellipse cx="54.5" cy="184.6094" fill="none" rx="3" ry="3" style="stroke: #038048; stroke-width: 1.0;"/><text fill="#000000" font-family="sans-serif" font-size="11" lengthAdjust="spacingAndGlyphs" textLength="143" x="63.5" y="187.8198">moveSpeed : float = 7.0f</text><ellipse cx="54.5" cy="197.4141" fill="none" rx="3" ry="3" style="stroke: #038048; stroke-width: 1.0;"/><text fill="#000000" font-family="sans-serif" font-size="11" lengthAdjust="spacingAndGlyphs" textLength="171" x="63.5" y="200.6245">runAcceleration : float = 14.0f</text><ellipse cx="54.5" cy="210.2188" fill="none" rx="3" ry="3" style="stroke: #038048; stroke-width: 1.0;"/><text fill="#000000" font-family="sans-serif" font-size="11" lengthAdjust="spacingAndGlyphs" textLength="186" x="63.5" y="213.4292">runDeacceleration : float = 10.0f</text><ellipse cx="54.5" cy="223.0234" fill="none" rx="3" ry="3" style="stroke: #038048; stroke-width: 1.0;"/><text fill="#000000" font-family="sans-serif" font-size="11" lengthAdjust="spacingAndGlyphs" textLength="160" x="63.5" y="226.2339">airAcceleration : float = 2.0f</text><ellipse cx="54.5" cy="235.8281" fill="none" rx="3" ry="3" style="stroke: #038048; stroke-width: 1.0;"/><text fill="#000000" font-family="sans-serif" font-size="11" lengthAdjust="spacingAndGlyphs" textLength="168" x="63.5" y="239.0386">airDecceleration : float = 2.0f</text><ellipse cx="54.5" cy="248.6328" fill="none" rx="3" ry="3" style="stroke: #038048; stroke-width: 1.0;"/><text fill="#000000" font-family="sans-serif" font-size="11" lengthAdjust="spacingAndGlyphs" textLength="132" x="63.5" y="251.8433">airControl : float = 0.3f</text><ellipse cx="54.5" cy="261.4375" fill="none" rx="3" ry="3" style="stroke: #038048; stroke-width: 1.0;"/><text fill="#000000" font-family="sans-serif" font-size="11" lengthAdjust="spacingAndGlyphs" textLength="211" x="63.5" y="264.6479">sideStrafeAcceleration : float = 50.0f</text><ellipse cx="54.5" cy="274.2422" fill="none" rx="3" ry="3" style="stroke: #038048; stroke-width: 1.0;"/><text fill="#000000" font-family="sans-serif" font-size="11" lengthAdjust="spacingAndGlyphs" textLength="171" x="63.5" y="277.4526">sideStrafeSpeed : float = 1.0f</text><ellipse cx="54.5" cy="287.0469" fill="none" rx="3" ry="3" style="stroke: #038048; stroke-width: 1.0;"/><text fill="#000000" font-family="sans-serif" font-size="11" lengthAdjust="spacingAndGlyphs" textLength="140" x="63.5" y="290.2573">jumpSpeed : float = 8.0f</text><ellipse cx="54.5" cy="299.8516" fill="none" rx="3" ry="3" style="stroke: #038048; stroke-width: 1.0;"/><text fill="#000000" font-family="sans-serif" font-size="11" lengthAdjust="spacingAndGlyphs" textLength="176" x="63.5" y="303.062">holdJumpToBhop : bool = false</text><rect fill="none" height="6" style="stroke: #C82930; stroke-width: 1.0;" width="6" x="51.5" y="309.6563"/><text fill="#000000" font-family="sans-serif" font-size="11" lengthAdjust="spacingAndGlyphs" textLength="135" x="63.5" y="315.8667">wishJump : bool = false</text><line style="stroke: #A80036; stroke-width: 1.5;" x1="44.5" x2="470.5" y1="322.4609" y2="322.4609"/><rect fill="#F24D5C" height="6" style="stroke: #C82930; stroke-width: 1.0;" width="6" x="51.5" y="330.4609"/><text fill="#000000" font-family="sans-serif" font-size="11" lengthAdjust="spacingAndGlyphs" textLength="83" x="63.5" y="336.6714">Update() : void</text><ellipse cx="54.5" cy="346.2656" fill="#84BE84" rx="3" ry="3" style="stroke: #038048; stroke-width: 1.0;"/><text fill="#000000" font-family="sans-serif" font-size="11" lengthAdjust="spacingAndGlyphs" textLength="241" x="63.5" y="349.4761">SetPlayerInputs(inputs:PlayerInputs) : void</text><ellipse cx="54.5" cy="359.0703" fill="#84BE84" rx="3" ry="3" style="stroke: #038048; stroke-width: 1.0;"/><text fill="#000000" font-family="sans-serif" font-size="11" lengthAdjust="spacingAndGlyphs" textLength="133" x="63.5" y="362.2808">Simulate(dt:float) : void</text><ellipse cx="54.5" cy="371.875" fill="#84BE84" rx="3" ry="3" style="stroke: #038048; stroke-width: 1.0;"/><text fill="#000000" font-family="sans-serif" font-size="11" lengthAdjust="spacingAndGlyphs" textLength="175" x="63.5" y="375.0854">ToNetworkState() : PlayerState</text><ellipse cx="54.5" cy="384.6797" fill="#84BE84" rx="3" ry="3" style="stroke: #038048; stroke-width: 1.0;"/><text fill="#000000" font-family="sans-serif" font-size="11" lengthAdjust="spacingAndGlyphs" textLength="247" x="63.5" y="387.8901">ApplyNetworkState(state:PlayerState) : void</text><rect fill="#F24D5C" height="6" style="stroke: #C82930; stroke-width: 1.0;" width="6" x="51.5" y="394.4844"/><text fill="#000000" font-family="sans-serif" font-size="11" lengthAdjust="spacingAndGlyphs" textLength="108" x="63.5" y="400.6948">QueueJump() : void</text><rect fill="#F24D5C" height="6" style="stroke: #C82930; stroke-width: 1.0;" width="6" x="51.5" y="407.2891"/><text fill="#000000" font-family="sans-serif" font-size="11" lengthAdjust="spacingAndGlyphs" textLength="154" x="63.5" y="413.4995">GroundMove(dt:float) : void</text><rect fill="#F24D5C" height="6" style="stroke: #C82930; stroke-width: 1.0;" width="6" x="51.5" y="420.0938"/><text fill="#000000" font-family="sans-serif" font-size="11" lengthAdjust="spacingAndGlyphs" textLength="127" x="63.5" y="426.3042">AirMove(dt:float) : void</text><rect fill="#F24D5C" height="6" style="stroke: #C82930; stroke-width: 1.0;" width="6" x="51.5" y="432.8984"/><text fill="#000000" font-family="sans-serif" font-size="11" lengthAdjust="spacingAndGlyphs" textLength="333" x="63.5" y="439.1089">AirControl(wishdir:Vector3, wishspeed:float, dt:float) : void</text><rect fill="#F24D5C" height="6" style="stroke: #C82930; stroke-width: 1.0;" width="6" x="51.5" y="445.7031"/><text fill="#000000" font-family="sans-serif" font-size="11" lengthAdjust="spacingAndGlyphs" textLength="402" x="63.5" y="451.9136">Accelerate(wishdir:Vector3, wishspeed:float, accel:float, dt:float) : void</text><rect fill="#F24D5C" height="6" style="stroke: #C82930; stroke-width: 1.0;" width="6" x="51.5" y="458.5078"/><text fill="#000000" font-family="sans-serif" font-size="11" lengthAdjust="spacingAndGlyphs" textLength="195" x="63.5" y="464.7183">ApplyFriction(t:float, dt:float) : void</text><!--MD5=[83b3cf3d23d77c6f1e1b5291a241bc2a]
class MonoBehaviour--><rect fill="#FEFECE" filter="url(#fu25fzjsg0rq4)" height="48" id="MonoBehaviour" style="stroke: #A80036; stroke-width: 1.5;" width="128" x="110.5" y="8"/><ellipse cx="125.5" cy="24" fill="#ADD1B2" rx="11" ry="11" style="stroke: #A80036; stroke-width: 1.0;"/><path d="M128.4688,29.6406 Q127.8906,29.9375 127.25,30.0781 Q126.6094,30.2344 125.9063,30.2344 Q123.4063,30.2344 122.0781,28.5938 Q120.7656,26.9375 120.7656,23.8125 Q120.7656,20.6875 122.0781,19.0313 Q123.4063,17.375 125.9063,17.375 Q126.6094,17.375 127.25,17.5313 Q127.9063,17.6875 128.4688,17.9844 L128.4688,20.7031 Q127.8438,20.125 127.25,19.8594 Q126.6563,19.5781 126.0313,19.5781 Q124.6875,19.5781 124,20.6563 Q123.3125,21.7188 123.3125,23.8125 Q123.3125,25.9063 124,26.9844 Q124.6875,28.0469 126.0313,28.0469 Q126.6563,28.0469 127.25,27.7813 Q127.8438,27.5 128.4688,26.9219 L128.4688,29.6406 Z "/><text fill="#000000" font-family="sans-serif" font-size="12" lengthAdjust="spacingAndGlyphs" textLength="96" x="139.5" y="28.1543">MonoBehaviour</text><line style="stroke: #A80036; stroke-width: 1.5;" x1="111.5" x2="237.5" y1="40" y2="40"/><line style="stroke: #A80036; stroke-width: 1.5;" x1="111.5" x2="237.5" y1="48" y2="48"/><!--MD5=[d7c09c2ef0556dd515b6819707a16934]
class IPlayerController--><rect fill="#FEFECE" filter="url(#fu25fzjsg0rq4)" height="48" id="IPlayerController" style="stroke: #A80036; stroke-width: 1.5;" width="134" x="273.5" y="8"/><ellipse cx="288.5" cy="24" fill="#ADD1B2" rx="11" ry="11" style="stroke: #A80036; stroke-width: 1.0;"/><path d="M291.4688,29.6406 Q290.8906,29.9375 290.25,30.0781 Q289.6094,30.2344 288.9063,30.2344 Q286.4063,30.2344 285.0781,28.5938 Q283.7656,26.9375 283.7656,23.8125 Q283.7656,20.6875 285.0781,19.0313 Q286.4063,17.375 288.9063,17.375 Q289.6094,17.375 290.25,17.5313 Q290.9063,17.6875 291.4688,17.9844 L291.4688,20.7031 Q290.8438,20.125 290.25,19.8594 Q289.6563,19.5781 289.0313,19.5781 Q287.6875,19.5781 287,20.6563 Q286.3125,21.7188 286.3125,23.8125 Q286.3125,25.9063 287,26.9844 Q287.6875,28.0469 289.0313,28.0469 Q289.6563,28.0469 290.25,27.7813 Q290.8438,27.5 291.4688,26.9219 L291.4688,29.6406 Z "/><text fill="#000000" font-family="sans-serif" font-size="12" lengthAdjust="spacingAndGlyphs" textLength="102" x="302.5" y="28.1543">IPlayerController</text><line style="stroke: #A80036; stroke-width: 1.5;" x1="274.5" x2="406.5" y1="40" y2="40"/><line style="stroke: #A80036; stroke-width: 1.5;" x1="274.5" x2="406.5" y1="48" y2="48"/><!--MD5=[9faade8d44f2c01a4bc5e8a9c8709ee2]
class CharacterController--><rect fill="#FEFECE" filter="url(#fu25fzjsg0rq4)" height="48" id="CharacterController" style="stroke: #A80036; stroke-width: 1.5;" width="155" x="6" y="531"/><ellipse cx="21" cy="547" fill="#ADD1B2" rx="11" ry="11" style="stroke: #A80036; stroke-width: 1.0;"/><path d="M23.9688,552.6406 Q23.3906,552.9375 22.75,553.0781 Q22.1094,553.2344 21.4063,553.2344 Q18.9063,553.2344 17.5781,551.5938 Q16.2656,549.9375 16.2656,546.8125 Q16.2656,543.6875 17.5781,542.0313 Q18.9063,540.375 21.4063,540.375 Q22.1094,540.375 22.75,540.5313 Q23.4063,540.6875 23.9688,540.9844 L23.9688,543.7031 Q23.3438,543.125 22.75,542.8594 Q22.1563,542.5781 21.5313,542.5781 Q20.1875,542.5781 19.5,543.6563 Q18.8125,544.7188 18.8125,546.8125 Q18.8125,548.9063 19.5,549.9844 Q20.1875,551.0469 21.5313,551.0469 Q22.1563,551.0469 22.75,550.7813 Q23.3438,550.5 23.9688,549.9219 L23.9688,552.6406 Z "/><text fill="#000000" font-family="sans-serif" font-size="12" lengthAdjust="spacingAndGlyphs" textLength="123" x="35" y="551.1543">CharacterController</text><line style="stroke: #A80036; stroke-width: 1.5;" x1="7" x2="160" y1="563" y2="563"/><line style="stroke: #A80036; stroke-width: 1.5;" x1="7" x2="160" y1="571" y2="571"/><!--MD5=[9e2f199060da5794a292af633cd2ab7a]
class NetworkObject--><rect fill="#FEFECE" filter="url(#fu25fzjsg0rq4)" height="48" id="NetworkObject" style="stroke: #A80036; stroke-width: 1.5;" width="123" x="196" y="531"/><ellipse cx="211" cy="547" fill="#ADD1B2" rx="11" ry="11" style="stroke: #A80036; stroke-width: 1.0;"/><path d="M213.9688,552.6406 Q213.3906,552.9375 212.75,553.0781 Q212.1094,553.2344 211.4063,553.2344 Q208.9063,553.2344 207.5781,551.5938 Q206.2656,549.9375 206.2656,546.8125 Q206.2656,543.6875 207.5781,542.0313 Q208.9063,540.375 211.4063,540.375 Q212.1094,540.375 212.75,540.5313 Q213.4063,540.6875 213.9688,540.9844 L213.9688,543.7031 Q213.3438,543.125 212.75,542.8594 Q212.1563,542.5781 211.5313,542.5781 Q210.1875,542.5781 209.5,543.6563 Q208.8125,544.7188 208.8125,546.8125 Q208.8125,548.9063 209.5,549.9844 Q210.1875,551.0469 211.5313,551.0469 Q212.1563,551.0469 212.75,550.7813 Q213.3438,550.5 213.9688,549.9219 L213.9688,552.6406 Z "/><text fill="#000000" font-family="sans-serif" font-size="12" lengthAdjust="spacingAndGlyphs" textLength="91" x="225" y="551.1543">NetworkObject</text><line style="stroke: #A80036; stroke-width: 1.5;" x1="197" x2="318" y1="563" y2="563"/><line style="stroke: #A80036; stroke-width: 1.5;" x1="197" x2="318" y1="571" y2="571"/><!--MD5=[4470e5d2ab06cd44d653016344f3ffd7]
class PlayerInputs--><rect fill="#FEFECE" filter="url(#fu25fzjsg0rq4)" height="48" id="PlayerInputs" style="stroke: #A80036; stroke-width: 1.5;" width="109" x="354" y="531"/><ellipse cx="369" cy="547" fill="#ADD1B2" rx="11" ry="11" style="stroke: #A80036; stroke-width: 1.0;"/><path d="M371.9688,552.6406 Q371.3906,552.9375 370.75,553.0781 Q370.1094,553.2344 369.4063,553.2344 Q366.9063,553.2344 365.5781,551.5938 Q364.2656,549.9375 364.2656,546.8125 Q364.2656,543.6875 365.5781,542.0313 Q366.9063,540.375 369.4063,540.375 Q370.1094,540.375 370.75,540.5313 Q371.4063,540.6875 371.9688,540.9844 L371.9688,543.7031 Q371.3438,543.125 370.75,542.8594 Q370.1563,542.5781 369.5313,542.5781 Q368.1875,542.5781 367.5,543.6563 Q366.8125,544.7188 366.8125,546.8125 Q366.8125,548.9063 367.5,549.9844 Q368.1875,551.0469 369.5313,551.0469 Q370.1563,551.0469 370.75,550.7813 Q371.3438,550.5 371.9688,549.9219 L371.9688,552.6406 Z "/><text fill="#000000" font-family="sans-serif" font-size="12" lengthAdjust="spacingAndGlyphs" textLength="77" x="383" y="551.1543">PlayerInputs</text><line style="stroke: #A80036; stroke-width: 1.5;" x1="355" x2="462" y1="563" y2="563"/><line style="stroke: #A80036; stroke-width: 1.5;" x1="355" x2="462" y1="571" y2="571"/><!--MD5=[65d619c042c23702cef2ca07d67b1cf6]
class Vector3--><rect fill="#FEFECE" filter="url(#fu25fzjsg0rq4)" height="48" id="Vector3" style="stroke: #A80036; stroke-width: 1.5;" width="81" x="507" y="269.5"/><ellipse cx="522" cy="285.5" fill="#ADD1B2" rx="11" ry="11" style="stroke: #A80036; stroke-width: 1.0;"/><path d="M524.9688,291.1406 Q524.3906,291.4375 523.75,291.5781 Q523.1094,291.7344 522.4063,291.7344 Q519.9063,291.7344 518.5781,290.0938 Q517.2656,288.4375 517.2656,285.3125 Q517.2656,282.1875 518.5781,280.5313 Q519.9063,278.875 522.4063,278.875 Q523.1094,278.875 523.75,279.0313 Q524.4063,279.1875 524.9688,279.4844 L524.9688,282.2031 Q524.3438,281.625 523.75,281.3594 Q523.1563,281.0781 522.5313,281.0781 Q521.1875,281.0781 520.5,282.1563 Q519.8125,283.2188 519.8125,285.3125 Q519.8125,287.4063 520.5,288.4844 Q521.1875,289.5469 522.5313,289.5469 Q523.1563,289.5469 523.75,289.2813 Q524.3438,289 524.9688,288.4219 L524.9688,291.1406 Z "/><text fill="#000000" font-family="sans-serif" font-size="12" lengthAdjust="spacingAndGlyphs" textLength="49" x="536" y="289.6543">Vector3</text><line style="stroke: #A80036; stroke-width: 1.5;" x1="508" x2="587" y1="301.5" y2="301.5"/><line style="stroke: #A80036; stroke-width: 1.5;" x1="508" x2="587" y1="309.5" y2="309.5"/><!--MD5=[25ff5ef78094cdc7dd1281c7e76ce740]
reverse link MonoBehaviour to CPMPlayerController--><path d="M188.06,75.39 C191.89,87.36 196.31,101.19 201.03,115.96 " fill="none" id="MonoBehaviour&lt;-CPMPlayerController" style="stroke: #A80036; stroke-width: 1.0;"/><polygon fill="none" points="181.29,77.21,181.87,56.03,194.63,72.95,181.29,77.21" style="stroke: #A80036; stroke-width: 1.0;"/><!--MD5=[c2e9033a21988bcb4cf28d51f60a6d2f]
reverse link IPlayerController to CPMPlayerController--><path d="M326.94,75.39 C323.11,87.36 318.69,101.19 313.97,115.96 " fill="none" id="IPlayerController&lt;-CPMPlayerController" style="stroke: #A80036; stroke-width: 1.0;"/><polygon fill="none" points="320.37,72.95,333.13,56.03,333.71,77.21,320.37,72.95" style="stroke: #A80036; stroke-width: 1.0;"/><!--MD5=[90cbe496c8940acdaae93d1da8f2323b]
link CPMPlayerController to CharacterController--><path d="M127.06,471.18 C113.62,492.3 101.97,511.51 93.94,526.1 " fill="none" id="CPMPlayerController-&gt;CharacterController" style="stroke: #A80036; stroke-width: 1.0;"/><polygon fill="#A80036" points="91.35,530.86,99.1562,524.8548,93.7333,526.4645,92.1235,521.0416,91.35,530.86" style="stroke: #A80036; stroke-width: 1.0;"/><text fill="#000000" font-family="sans-serif" font-size="13" lengthAdjust="spacingAndGlyphs" textLength="60" x="25.6741" y="519.8362">controller</text><!--MD5=[90cbe496c8940acdaae93d1da8f2323b]
link CPMPlayerController to CharacterController--><path d="M151.72,471.18 C136.52,492.67 122.1,512.18 110.36,526.85 " fill="none" id="CPMPlayerController-&gt;CharacterController-1" style="stroke: #A80036; stroke-width: 1.0;"/><polygon fill="#A80036" points="107.12,530.86,115.8818,526.3622,110.2574,526.9668,109.6527,521.3424,107.12,530.86" style="stroke: #A80036; stroke-width: 1.0;"/><text fill="#000000" font-family="sans-serif" font-size="13" lengthAdjust="spacingAndGlyphs" textLength="67" x="121.757" y="519.8362">_controller</text><!--MD5=[da668a1ea1251e99aef4e8f32a8b41e7]
link CPMPlayerController to NetworkObject--><path d="M245.52,471.18 C246.24,492.12 247.46,511.18 249.18,525.71 " fill="none" id="CPMPlayerController-&gt;NetworkObject" style="stroke: #A80036; stroke-width: 1.0;"/><polygon fill="#A80036" points="249.84,530.86,252.6761,521.4283,249.211,525.8997,244.7396,522.4347,249.84,530.86" style="stroke: #A80036; stroke-width: 1.0;"/><text fill="#000000" font-family="sans-serif" font-size="13" lengthAdjust="spacingAndGlyphs" textLength="91" x="259.5365" y="519.8362">networkObject</text><!--MD5=[da668a1ea1251e99aef4e8f32a8b41e7]
link CPMPlayerController to NetworkObject--><path d="M270.18,471.18 C269.42,492.12 268.13,511.18 266.31,525.71 " fill="none" id="CPMPlayerController-&gt;NetworkObject-1" style="stroke: #A80036; stroke-width: 1.0;"/><polygon fill="#A80036" points="265.61,530.86,270.785,522.4803,266.283,525.9055,262.8578,521.4035,265.61,530.86" style="stroke: #A80036; stroke-width: 1.0;"/><text fill="#000000" font-family="sans-serif" font-size="13" lengthAdjust="spacingAndGlyphs" textLength="98" x="159.4538" y="519.8013">_networkObject</text><!--MD5=[4c1ecc9ede9a9f430d04543c7a4652f5]
link CPMPlayerController to PlayerInputs--><path d="M360.31,471.18 C372.71,492.49 383.97,511.84 392.48,526.48 " fill="none" id="CPMPlayerController-&gt;PlayerInputs" style="stroke: #A80036; stroke-width: 1.0;"/><polygon fill="#A80036" points="395.04,530.86,393.9643,521.0701,392.5224,526.5401,387.0524,525.0982,395.04,530.86" style="stroke: #A80036; stroke-width: 1.0;"/><text fill="#000000" font-family="sans-serif" font-size="13" lengthAdjust="spacingAndGlyphs" textLength="39" x="347.594" y="519.8362">inputs</text><!--MD5=[bcef211bc483b751a618a2a4869b5ab1]
link CPMPlayerController to Vector3--><path d="M483.6,293.5 C483.6,293.5 490.8,293.5 493.79,293.5 " fill="none" id="CPMPlayerController-Vector3" style="stroke: #A80036; stroke-width: 1.0;"/><polygon fill="#A80036" points="506.88,293.5,497.88,289.5,501.88,293.5,497.88,297.5,506.88,293.5" style="stroke: #A80036; stroke-width: 1.0;"/><line style="stroke: #A80036; stroke-width: 1.0;" x1="501.88" x2="493.88" y1="293.5" y2="293.5"/><polygon fill="#FFFFFF" points="471.6,293.5,477.6,297.5,483.6,293.5,477.6,289.5,471.6,293.5" style="stroke: #A80036; stroke-width: 1.0;"/><text fill="#000000" font-family="sans-serif" font-size="13" lengthAdjust="spacingAndGlyphs" textLength="89" x="412.3792" y="258.4807">playerVelocity</text><!--MD5=[730e02aa806717a2d82445ded7993f4e]
@startuml
class CPMPlayerController {
    + gravity : float = 20.0f
    + friction : float = 6
    + moveSpeed : float = 7.0f
    + runAcceleration : float = 14.0f
    + runDeacceleration : float = 10.0f
    + airAcceleration : float = 2.0f
    + airDecceleration : float = 2.0f
    + airControl : float = 0.3f
    + sideStrafeAcceleration : float = 50.0f
    + sideStrafeSpeed : float = 1.0f
    + jumpSpeed : float = 8.0f
    + holdJumpToBhop : bool = false
    - wishJump : bool = false
    - Update() : void
    + SetPlayerInputs(inputs:PlayerInputs) : void
    + Simulate(dt:float) : void
    + ToNetworkState() : PlayerState
    + ApplyNetworkState(state:PlayerState) : void
    - QueueJump() : void
    - GroundMove(dt:float) : void
    - AirMove(dt:float) : void
    - AirControl(wishdir:Vector3, wishspeed:float, dt:float) : void
    - Accelerate(wishdir:Vector3, wishspeed:float, accel:float, dt:float) : void
    - ApplyFriction(t:float, dt:float) : void
}
MonoBehaviour <|- - CPMPlayerController
IPlayerController <|- - CPMPlayerController
CPMPlayerController - -> "controller" CharacterController
CPMPlayerController - -> "_controller" CharacterController
CPMPlayerController - -> "networkObject" NetworkObject
CPMPlayerController - -> "_networkObject" NetworkObject
CPMPlayerController - -> "inputs" PlayerInputs
CPMPlayerController o-> "playerVelocity" Vector3
@enduml

PlantUML version 1.2020.08(Sun Apr 26 14:08:22 GMT 2020)
(GPL source distribution)
Java Runtime: OpenJDK Runtime Environment
JVM: OpenJDK 64-Bit Server VM
Java Version: 15-ea+10
Operating System: Linux
Default Encoding: UTF-8
Language: en
Country: US
--></g></svg>