<?xml version="1.0" encoding="UTF-8" standalone="no"?><svg xmlns="http://www.w3.org/2000/svg" xmlns:xlink="http://www.w3.org/1999/xlink" contentScriptType="application/ecmascript" contentStyleType="text/css" height="130px" preserveAspectRatio="none" style="width:167px;height:130px;" version="1.1" viewBox="0 0 167 130" width="167px" zoomAndPan="magnify"><defs><filter height="300%" id="fbsxi5bmvhiw4" width="300%" x="-1" y="-1"><feGaussianBlur result="blurOut" stdDeviation="2.0"/><feColorMatrix in="blurOut" result="blurOut2" type="matrix" values="0 0 0 0 0 0 0 0 0 0 0 0 0 0 0 0 0 0 .4 0"/><feOffset dx="4.0" dy="4.0" in="blurOut2" result="blurOut3"/><feBlend in="SourceGraphic" in2="blurOut3" mode="normal"/></filter></defs><g><!--MD5=[f8a0d069522c3638247d8785ec7addf3]
class DoubleBuffer`1--><rect fill="#FEFECE" filter="url(#fbsxi5bmvhiw4)" height="112.0234" id="DoubleBuffer`1" style="stroke: #A80036; stroke-width: 1.5;" width="146" x="7" y="7"/><ellipse cx="25.6" cy="23" fill="#ADD1B2" rx="11" ry="11" style="stroke: #A80036; stroke-width: 1.0;"/><path d="M28.5688,28.6406 Q27.9906,28.9375 27.35,29.0781 Q26.7094,29.2344 26.0063,29.2344 Q23.5063,29.2344 22.1781,27.5938 Q20.8656,25.9375 20.8656,22.8125 Q20.8656,19.6875 22.1781,18.0313 Q23.5063,16.375 26.0063,16.375 Q26.7094,16.375 27.35,16.5313 Q28.0063,16.6875 28.5688,16.9844 L28.5688,19.7031 Q27.9438,19.125 27.35,18.8594 Q26.7563,18.5781 26.1313,18.5781 Q24.7875,18.5781 24.1,19.6563 Q23.4125,20.7188 23.4125,22.8125 Q23.4125,24.9063 24.1,25.9844 Q24.7875,27.0469 26.1313,27.0469 Q26.7563,27.0469 27.35,26.7813 Q27.9438,26.5 28.5688,25.9219 L28.5688,28.6406 Z "/><text fill="#000000" font-family="sans-serif" font-size="12" lengthAdjust="spacingAndGlyphs" textLength="95" x="40.4" y="27.1543">DoubleBuffer`1</text><rect fill="#FFFFFF" height="15.9688" style="stroke: #000000; stroke-width: 1.0; stroke-dasharray: 2.0,2.0;" width="9" x="147" y="4"/><text fill="#000000" font-family="sans-serif" font-size="12" font-style="italic" lengthAdjust="spacingAndGlyphs" textLength="7" x="148" y="16.1387">T</text><line style="stroke: #A80036; stroke-width: 1.5;" x1="8" x2="152" y1="39" y2="39"/><rect fill="none" height="6" style="stroke: #C82930; stroke-width: 1.0;" width="6" x="15" y="47"/><text fill="#000000" font-family="sans-serif" font-size="11" lengthAdjust="spacingAndGlyphs" textLength="110" x="27" y="53.2104">swapIndex : int = 0</text><line style="stroke: #A80036; stroke-width: 1.5;" x1="8" x2="152" y1="59.8047" y2="59.8047"/><ellipse cx="18" cy="70.8047" fill="#84BE84" rx="3" ry="3" style="stroke: #038048; stroke-width: 1.0;"/><text fill="#000000" font-family="sans-serif" font-size="11" lengthAdjust="spacingAndGlyphs" textLength="112" x="27" y="74.0151">Push(value:T) : void</text><ellipse cx="18" cy="83.6094" fill="#84BE84" rx="3" ry="3" style="stroke: #038048; stroke-width: 1.0;"/><text fill="#000000" font-family="sans-serif" font-size="11" lengthAdjust="spacingAndGlyphs" textLength="51" x="27" y="86.8198">New() : T</text><ellipse cx="18" cy="96.4141" fill="#84BE84" rx="3" ry="3" style="stroke: #038048; stroke-width: 1.0;"/><text fill="#000000" font-family="sans-serif" font-size="11" lengthAdjust="spacingAndGlyphs" textLength="46" x="27" y="99.6245">Old() : T</text><rect fill="#F24D5C" height="6" style="stroke: #C82930; stroke-width: 1.0;" width="6" x="15" y="106.2188"/><text fill="#000000" font-family="sans-serif" font-size="11" lengthAdjust="spacingAndGlyphs" textLength="120" x="27" y="112.4292">NextSwapIndex() : int</text><!--MD5=[6672a1b119da0254d2ed89cc4dc5ea3c]
@startuml
class "DoubleBuffer`1"<T> {
    - swapIndex : int = 0
    + Push(value:T) : void
    + New() : T
    + Old() : T
    - NextSwapIndex() : int
}
@enduml

PlantUML version 1.2020.08(Sun Apr 26 14:08:22 GMT 2020)
(GPL source distribution)
Java Runtime: OpenJDK Runtime Environment
JVM: OpenJDK 64-Bit Server VM
Java Version: 15-ea+10
Operating System: Linux
Default Encoding: UTF-8
Language: en
Country: US
--></g></svg>