<?xml version="1.0" encoding="UTF-8" standalone="no"?><svg xmlns="http://www.w3.org/2000/svg" xmlns:xlink="http://www.w3.org/1999/xlink" contentScriptType="application/ecmascript" contentStyleType="text/css" height="251px" preserveAspectRatio="none" style="width:532px;height:251px;" version="1.1" viewBox="0 0 532 251" width="532px" zoomAndPan="magnify"><defs><filter height="300%" id="fcng16g1zfqu0" width="300%" x="-1" y="-1"><feGaussianBlur result="blurOut" stdDeviation="2.0"/><feColorMatrix in="blurOut" result="blurOut2" type="matrix" values="0 0 0 0 0 0 0 0 0 0 0 0 0 0 0 0 0 0 .4 0"/><feOffset dx="4.0" dy="4.0" in="blurOut2" result="blurOut3"/><feBlend in="SourceGraphic" in2="blurOut3" mode="normal"/></filter></defs><g><!--MD5=[5da4e3c52469b854e170d2bf59eef778]
class FakePlayer--><rect fill="#FEFECE" filter="url(#fcng16g1zfqu0)" height="124.8281" id="FakePlayer" style="stroke: #A80036; stroke-width: 1.5;" width="273" x="16.5" y="116"/><ellipse cx="114.75" cy="132" fill="#ADD1B2" rx="11" ry="11" style="stroke: #A80036; stroke-width: 1.0;"/><path d="M117.7188,137.6406 Q117.1406,137.9375 116.5,138.0781 Q115.8594,138.2344 115.1563,138.2344 Q112.6563,138.2344 111.3281,136.5938 Q110.0156,134.9375 110.0156,131.8125 Q110.0156,128.6875 111.3281,127.0313 Q112.6563,125.375 115.1563,125.375 Q115.8594,125.375 116.5,125.5313 Q117.1563,125.6875 117.7188,125.9844 L117.7188,128.7031 Q117.0938,128.125 116.5,127.8594 Q115.9063,127.5781 115.2813,127.5781 Q113.9375,127.5781 113.25,128.6563 Q112.5625,129.7188 112.5625,131.8125 Q112.5625,133.9063 113.25,134.9844 Q113.9375,136.0469 115.2813,136.0469 Q115.9063,136.0469 116.5,135.7813 Q117.0938,135.5 117.7188,134.9219 L117.7188,137.6406 Z "/><text fill="#000000" font-family="sans-serif" font-size="12" lengthAdjust="spacingAndGlyphs" textLength="68" x="135.25" y="136.1543">FakePlayer</text><line style="stroke: #A80036; stroke-width: 1.5;" x1="17.5" x2="288.5" y1="148" y2="148"/><ellipse cx="27.5" cy="159" fill="none" rx="3" ry="3" style="stroke: #038048; stroke-width: 1.0;"/><text fill="#000000" font-family="sans-serif" font-size="11" lengthAdjust="spacingAndGlyphs" textLength="135" x="36.5" y="162.2104">maxVelocity : float = 30</text><ellipse cx="27.5" cy="171.8047" fill="none" rx="3" ry="3" style="stroke: #038048; stroke-width: 1.0;"/><text fill="#000000" font-family="sans-serif" font-size="11" lengthAdjust="spacingAndGlyphs" textLength="97" x="36.5" y="175.0151">accel : float = 50</text><line style="stroke: #A80036; stroke-width: 1.5;" x1="17.5" x2="288.5" y1="181.6094" y2="181.6094"/><ellipse cx="27.5" cy="192.6094" fill="#84BE84" rx="3" ry="3" style="stroke: #038048; stroke-width: 1.0;"/><text fill="#000000" font-family="sans-serif" font-size="11" lengthAdjust="spacingAndGlyphs" textLength="247" x="36.5" y="195.8198">ApplyNetworkState(state:PlayerState) : void</text><ellipse cx="27.5" cy="205.4141" fill="#84BE84" rx="3" ry="3" style="stroke: #038048; stroke-width: 1.0;"/><text fill="#000000" font-family="sans-serif" font-size="11" lengthAdjust="spacingAndGlyphs" textLength="241" x="36.5" y="208.6245">SetPlayerInputs(inputs:PlayerInputs) : void</text><ellipse cx="27.5" cy="218.2188" fill="#84BE84" rx="3" ry="3" style="stroke: #038048; stroke-width: 1.0;"/><text fill="#000000" font-family="sans-serif" font-size="11" lengthAdjust="spacingAndGlyphs" textLength="133" x="36.5" y="221.4292">Simulate(dt:float) : void</text><ellipse cx="27.5" cy="231.0234" fill="#84BE84" rx="3" ry="3" style="stroke: #038048; stroke-width: 1.0;"/><text fill="#000000" font-family="sans-serif" font-size="11" lengthAdjust="spacingAndGlyphs" textLength="175" x="36.5" y="234.2339">ToNetworkState() : PlayerState</text><!--MD5=[83b3cf3d23d77c6f1e1b5291a241bc2a]
class MonoBehaviour--><rect fill="#FEFECE" filter="url(#fcng16g1zfqu0)" height="48" id="MonoBehaviour" style="stroke: #A80036; stroke-width: 1.5;" width="128" x="6" y="8"/><ellipse cx="21" cy="24" fill="#ADD1B2" rx="11" ry="11" style="stroke: #A80036; stroke-width: 1.0;"/><path d="M23.9688,29.6406 Q23.3906,29.9375 22.75,30.0781 Q22.1094,30.2344 21.4063,30.2344 Q18.9063,30.2344 17.5781,28.5938 Q16.2656,26.9375 16.2656,23.8125 Q16.2656,20.6875 17.5781,19.0313 Q18.9063,17.375 21.4063,17.375 Q22.1094,17.375 22.75,17.5313 Q23.4063,17.6875 23.9688,17.9844 L23.9688,20.7031 Q23.3438,20.125 22.75,19.8594 Q22.1563,19.5781 21.5313,19.5781 Q20.1875,19.5781 19.5,20.6563 Q18.8125,21.7188 18.8125,23.8125 Q18.8125,25.9063 19.5,26.9844 Q20.1875,28.0469 21.5313,28.0469 Q22.1563,28.0469 22.75,27.7813 Q23.3438,27.5 23.9688,26.9219 L23.9688,29.6406 Z "/><text fill="#000000" font-family="sans-serif" font-size="12" lengthAdjust="spacingAndGlyphs" textLength="96" x="35" y="28.1543">MonoBehaviour</text><line style="stroke: #A80036; stroke-width: 1.5;" x1="7" x2="133" y1="40" y2="40"/><line style="stroke: #A80036; stroke-width: 1.5;" x1="7" x2="133" y1="48" y2="48"/><!--MD5=[d7c09c2ef0556dd515b6819707a16934]
class IPlayerController--><rect fill="#FEFECE" filter="url(#fcng16g1zfqu0)" height="48" id="IPlayerController" style="stroke: #A80036; stroke-width: 1.5;" width="134" x="169" y="8"/><ellipse cx="184" cy="24" fill="#ADD1B2" rx="11" ry="11" style="stroke: #A80036; stroke-width: 1.0;"/><path d="M186.9688,29.6406 Q186.3906,29.9375 185.75,30.0781 Q185.1094,30.2344 184.4063,30.2344 Q181.9063,30.2344 180.5781,28.5938 Q179.2656,26.9375 179.2656,23.8125 Q179.2656,20.6875 180.5781,19.0313 Q181.9063,17.375 184.4063,17.375 Q185.1094,17.375 185.75,17.5313 Q186.4063,17.6875 186.9688,17.9844 L186.9688,20.7031 Q186.3438,20.125 185.75,19.8594 Q185.1563,19.5781 184.5313,19.5781 Q183.1875,19.5781 182.5,20.6563 Q181.8125,21.7188 181.8125,23.8125 Q181.8125,25.9063 182.5,26.9844 Q183.1875,28.0469 184.5313,28.0469 Q185.1563,28.0469 185.75,27.7813 Q186.3438,27.5 186.9688,26.9219 L186.9688,29.6406 Z "/><text fill="#000000" font-family="sans-serif" font-size="12" lengthAdjust="spacingAndGlyphs" textLength="102" x="198" y="28.1543">IPlayerController</text><line style="stroke: #A80036; stroke-width: 1.5;" x1="170" x2="302" y1="40" y2="40"/><line style="stroke: #A80036; stroke-width: 1.5;" x1="170" x2="302" y1="48" y2="48"/><!--MD5=[65d619c042c23702cef2ca07d67b1cf6]
class Vector3--><rect fill="#FEFECE" filter="url(#fcng16g1zfqu0)" height="48" id="Vector3" style="stroke: #A80036; stroke-width: 1.5;" width="81" x="440.5" y="154.5"/><ellipse cx="455.5" cy="170.5" fill="#ADD1B2" rx="11" ry="11" style="stroke: #A80036; stroke-width: 1.0;"/><path d="M458.4688,176.1406 Q457.8906,176.4375 457.25,176.5781 Q456.6094,176.7344 455.9063,176.7344 Q453.4063,176.7344 452.0781,175.0938 Q450.7656,173.4375 450.7656,170.3125 Q450.7656,167.1875 452.0781,165.5313 Q453.4063,163.875 455.9063,163.875 Q456.6094,163.875 457.25,164.0313 Q457.9063,164.1875 458.4688,164.4844 L458.4688,167.2031 Q457.8438,166.625 457.25,166.3594 Q456.6563,166.0781 456.0313,166.0781 Q454.6875,166.0781 454,167.1563 Q453.3125,168.2188 453.3125,170.3125 Q453.3125,172.4063 454,173.4844 Q454.6875,174.5469 456.0313,174.5469 Q456.6563,174.5469 457.25,174.2813 Q457.8438,174 458.4688,173.4219 L458.4688,176.1406 Z "/><text fill="#000000" font-family="sans-serif" font-size="12" lengthAdjust="spacingAndGlyphs" textLength="49" x="469.5" y="174.6543">Vector3</text><line style="stroke: #A80036; stroke-width: 1.5;" x1="441.5" x2="520.5" y1="186.5" y2="186.5"/><line style="stroke: #A80036; stroke-width: 1.5;" x1="441.5" x2="520.5" y1="194.5" y2="194.5"/><!--MD5=[3f551f1273bbfa514d2f681c1c48b5c1]
class Vector2--><rect fill="#FEFECE" filter="url(#fcng16g1zfqu0)" height="48" id="Vector2" style="stroke: #A80036; stroke-width: 1.5;" width="81" x="324.5" y="154.5"/><ellipse cx="339.5" cy="170.5" fill="#ADD1B2" rx="11" ry="11" style="stroke: #A80036; stroke-width: 1.0;"/><path d="M342.4688,176.1406 Q341.8906,176.4375 341.25,176.5781 Q340.6094,176.7344 339.9063,176.7344 Q337.4063,176.7344 336.0781,175.0938 Q334.7656,173.4375 334.7656,170.3125 Q334.7656,167.1875 336.0781,165.5313 Q337.4063,163.875 339.9063,163.875 Q340.6094,163.875 341.25,164.0313 Q341.9063,164.1875 342.4688,164.4844 L342.4688,167.2031 Q341.8438,166.625 341.25,166.3594 Q340.6563,166.0781 340.0313,166.0781 Q338.6875,166.0781 338,167.1563 Q337.3125,168.2188 337.3125,170.3125 Q337.3125,172.4063 338,173.4844 Q338.6875,174.5469 340.0313,174.5469 Q340.6563,174.5469 341.25,174.2813 Q341.8438,174 342.4688,173.4219 L342.4688,176.1406 Z "/><text fill="#000000" font-family="sans-serif" font-size="12" lengthAdjust="spacingAndGlyphs" textLength="49" x="353.5" y="174.6543">Vector2</text><line style="stroke: #A80036; stroke-width: 1.5;" x1="325.5" x2="404.5" y1="186.5" y2="186.5"/><line style="stroke: #A80036; stroke-width: 1.5;" x1="325.5" x2="404.5" y1="194.5" y2="194.5"/><!--MD5=[fee3b599349579199eff5bb3c57db319]
reverse link MonoBehaviour to FakePlayer--><path d="M93.5,73.9 C101.01,86.99 109.5,101.77 117.67,115.99 " fill="none" id="MonoBehaviour&lt;-FakePlayer" style="stroke: #A80036; stroke-width: 1.0;"/><polygon fill="none" points="87.23,77.05,83.34,56.22,99.37,70.07,87.23,77.05" style="stroke: #A80036; stroke-width: 1.0;"/><!--MD5=[3b187fa9c3c1e4fc5246bf945341c83d]
reverse link IPlayerController to FakePlayer--><path d="M212.5,73.9 C204.99,86.99 196.5,101.77 188.33,115.99 " fill="none" id="IPlayerController&lt;-FakePlayer" style="stroke: #A80036; stroke-width: 1.0;"/><polygon fill="none" points="206.63,70.07,222.66,56.22,218.77,77.05,206.63,70.07" style="stroke: #A80036; stroke-width: 1.0;"/><!--MD5=[abdb0a78b34befc8720a60b3bf3af3a2]
link FakePlayer to Vector3--><path d="M260.0472,110.5018 C260.0472,110.5018 303.11,91.4 324.5,86 C359.4,77.19 372.98,70.56 405.5,86 C430.35,97.79 449.72,122.21 462.62,143 " fill="none" id="FakePlayer-Vector3" style="stroke: #A80036; stroke-width: 1.0;"/><polygon fill="#A80036" points="469.29,154.39,468.1909,144.6027,466.7621,150.0761,461.2887,148.6473,469.29,154.39" style="stroke: #A80036; stroke-width: 1.0;"/><line style="stroke: #A80036; stroke-width: 1.0;" x1="466.7621" x2="462.715" y1="150.0761" y2="143.17"/><polygon fill="#FFFFFF" points="249.33,115.9,256.488,116.7733,260.0472,110.5018,252.8892,109.6285,249.33,115.9" style="stroke: #A80036; stroke-width: 1.0;"/><text fill="#000000" font-family="sans-serif" font-size="13" lengthAdjust="spacingAndGlyphs" textLength="48" x="412.1393" y="143.3738">velocity</text><!--MD5=[31166c3aec3c09169d2d25df7b2123f7]
link FakePlayer to Vector2--><path d="M301.64,178.5 C301.64,178.5 308.32,178.5 311.15,178.5 " fill="none" id="FakePlayer-Vector2" style="stroke: #A80036; stroke-width: 1.0;"/><polygon fill="#A80036" points="324.38,178.5,315.38,174.5,319.38,178.5,315.38,182.5,324.38,178.5" style="stroke: #A80036; stroke-width: 1.0;"/><line style="stroke: #A80036; stroke-width: 1.0;" x1="319.38" x2="311.38" y1="178.5" y2="178.5"/><polygon fill="#FFFFFF" points="289.64,178.5,295.64,182.5,301.64,178.5,295.64,174.5,289.64,178.5" style="stroke: #A80036; stroke-width: 1.0;"/><text fill="#000000" font-family="sans-serif" font-size="13" lengthAdjust="spacingAndGlyphs" textLength="32" x="284.276" y="173.3592">input</text><!--MD5=[e8460494b0b79002b2a19cab2bfbd02f]
@startuml
class FakePlayer {
    + maxVelocity : float = 30
    + accel : float = 50
    + ApplyNetworkState(state:PlayerState) : void
    + SetPlayerInputs(inputs:PlayerInputs) : void
    + Simulate(dt:float) : void
    + ToNetworkState() : PlayerState
}
MonoBehaviour <|- - FakePlayer
IPlayerController <|- - FakePlayer
FakePlayer o-> "velocity" Vector3
FakePlayer o-> "input" Vector2
@enduml

PlantUML version 1.2020.08(Sun Apr 26 14:08:22 GMT 2020)
(GPL source distribution)
Java Runtime: OpenJDK Runtime Environment
JVM: OpenJDK 64-Bit Server VM
Java Version: 15-ea+10
Operating System: Linux
Default Encoding: UTF-8
Language: en
Country: US
--></g></svg>