<?xml version="1.0" encoding="UTF-8" standalone="no"?><svg xmlns="http://www.w3.org/2000/svg" xmlns:xlink="http://www.w3.org/1999/xlink" contentScriptType="application/ecmascript" contentStyleType="text/css" height="552px" preserveAspectRatio="none" style="width:989px;height:552px;" version="1.1" viewBox="0 0 989 552" width="989px" zoomAndPan="magnify"><defs><filter height="300%" id="f1o0vhx4didx1o" width="300%" x="-1" y="-1"><feGaussianBlur result="blurOut" stdDeviation="2.0"/><feColorMatrix in="blurOut" result="blurOut2" type="matrix" values="0 0 0 0 0 0 0 0 0 0 0 0 0 0 0 0 0 0 .4 0"/><feOffset dx="4.0" dy="4.0" in="blurOut2" result="blurOut3"/><feBlend in="SourceGraphic" in2="blurOut3" mode="normal"/></filter></defs><g><!--MD5=[c4fd6bf74cc4f0d5e43787629ae1c7f2]
class NetChannel--><rect fill="#FEFECE" filter="url(#f1o0vhx4didx1o)" height="316.8984" id="NetChannel" style="stroke: #A80036; stroke-width: 1.5;" width="789" x="6" y="116"/><ellipse cx="359.75" cy="132" fill="#ADD1B2" rx="11" ry="11" style="stroke: #A80036; stroke-width: 1.0;"/><path d="M362.7188,137.6406 Q362.1406,137.9375 361.5,138.0781 Q360.8594,138.2344 360.1563,138.2344 Q357.6563,138.2344 356.3281,136.5938 Q355.0156,134.9375 355.0156,131.8125 Q355.0156,128.6875 356.3281,127.0313 Q357.6563,125.375 360.1563,125.375 Q360.8594,125.375 361.5,125.5313 Q362.1563,125.6875 362.7188,125.9844 L362.7188,128.7031 Q362.0938,128.125 361.5,127.8594 Q360.9063,127.5781 360.2813,127.5781 Q358.9375,127.5781 358.25,128.6563 Q357.5625,129.7188 357.5625,131.8125 Q357.5625,133.9063 358.25,134.9844 Q358.9375,136.0469 360.2813,136.0469 Q360.9063,136.0469 361.5,135.7813 Q362.0938,135.5 362.7188,134.9219 L362.7188,137.6406 Z "/><text fill="#000000" font-family="sans-serif" font-size="12" lengthAdjust="spacingAndGlyphs" textLength="73" x="380.25" y="136.1543">NetChannel</text><line style="stroke: #A80036; stroke-width: 1.5;" x1="7" x2="794" y1="148" y2="148"/><line style="stroke: #A80036; stroke-width: 1.5;" x1="7" x2="794" y1="156" y2="156"/><ellipse cx="17" cy="167" fill="#84BE84" rx="3" ry="3" style="stroke: #038048; stroke-width: 1.0;"/><text fill="#000000" font-family="sans-serif" font-size="11" lengthAdjust="spacingAndGlyphs" textLength="334" x="26" y="170.2104">NetChannel(debugNetworkSettings:DebugNetworkSettings)</text><ellipse cx="17" cy="179.8047" fill="#84BE84" rx="3" ry="3" style="stroke: #038048; stroke-width: 1.0;"/><text fill="#000000" font-family="sans-serif" font-size="11" lengthAdjust="spacingAndGlyphs" textLength="83" x="26" y="183.0151">Update() : void</text><ellipse cx="17" cy="192.6094" fill="#84BE84" rx="3" ry="3" style="stroke: #038048; stroke-width: 1.0;"/><text fill="#000000" font-family="sans-serif" font-size="11" lengthAdjust="spacingAndGlyphs" textLength="69" x="26" y="195.8198">Stop() : void</text><ellipse cx="17" cy="205.4141" fill="#84BE84" rx="3" ry="3" style="stroke: #038048; stroke-width: 1.0;"/><text fill="#000000" font-family="sans-serif" font-size="11" lengthAdjust="spacingAndGlyphs" textLength="252" x="26" y="208.6245">ConnectToServer(host:string, port:int) : void</text><ellipse cx="17" cy="218.2188" fill="#84BE84" rx="3" ry="3" style="stroke: #038048; stroke-width: 1.0;"/><text fill="#000000" font-family="sans-serif" font-size="11" lengthAdjust="spacingAndGlyphs" textLength="150" x="26" y="221.4292">StartServer(port:int) : void</text><ellipse cx="17" cy="231.0234" fill="#84BE84" rx="3" ry="3" style="stroke: #038048; stroke-width: 1.0;"/><text fill="#000000" font-family="sans-serif" font-size="11" lengthAdjust="spacingAndGlyphs" textLength="248" x="26" y="234.2339">SetNetMonitor(netMonitor:NetMonitor) : void</text><ellipse cx="17" cy="243.8281" fill="#84BE84" rx="3" ry="3" style="stroke: #038048; stroke-width: 1.0;"/><text fill="#000000" font-family="sans-serif" font-size="11" lengthAdjust="spacingAndGlyphs" textLength="340" x="26" y="247.0386">PingServer(endpoint:IPEndPoint, callback:Action&lt;int&gt;) : void</text><ellipse cx="17" cy="256.6328" fill="#84BE84" rx="3" ry="3" style="stroke: #038048; stroke-width: 1.0;"/><text fill="#000000" font-family="sans-serif" font-size="11" lengthAdjust="spacingAndGlyphs" textLength="264" x="26" y="259.8433">Subscribe(onReceiveHandler:Action&lt;T&gt;) : void</text><ellipse cx="17" cy="269.4375" fill="#84BE84" rx="3" ry="3" style="stroke: #038048; stroke-width: 1.0;"/><text fill="#000000" font-family="sans-serif" font-size="11" lengthAdjust="spacingAndGlyphs" textLength="317" x="26" y="272.6479">Subscribe(onReceiveHandler:Action&lt;T, NetPeer&gt;) : void</text><ellipse cx="17" cy="282.2422" fill="#84BE84" rx="3" ry="3" style="stroke: #038048; stroke-width: 1.0;"/><text fill="#000000" font-family="sans-serif" font-size="11" lengthAdjust="spacingAndGlyphs" textLength="238" x="26" y="285.4526">SubscribeQueue(queue:Queue&lt;T&gt;) : void</text><ellipse cx="17" cy="295.0469" fill="#84BE84" rx="3" ry="3" style="stroke: #038048; stroke-width: 1.0;"/><text fill="#000000" font-family="sans-serif" font-size="11" lengthAdjust="spacingAndGlyphs" textLength="305" x="26" y="298.2573">SubscribeQueue(queue:Queue&lt;WithPeer&lt;T&gt;&gt;) : void</text><ellipse cx="17" cy="307.8516" fill="#84BE84" rx="3" ry="3" style="stroke: #038048; stroke-width: 1.0;"/><text fill="#000000" font-family="sans-serif" font-size="11" lengthAdjust="spacingAndGlyphs" textLength="280" x="26" y="311.062">SendCommand(peer:NetPeer, command:T) : void</text><ellipse cx="17" cy="320.6563" fill="#84BE84" rx="3" ry="3" style="stroke: #038048; stroke-width: 1.0;"/><text fill="#000000" font-family="sans-serif" font-size="11" lengthAdjust="spacingAndGlyphs" textLength="226" x="26" y="323.8667">BroadcastCommand(command:T) : void</text><ellipse cx="17" cy="333.4609" fill="#84BE84" rx="3" ry="3" style="stroke: #038048; stroke-width: 1.0;"/><text fill="#000000" font-family="sans-serif" font-size="11" lengthAdjust="spacingAndGlyphs" textLength="359" x="26" y="336.6714">BroadcastCommand(command:T, excludedPeer:NetPeer) : void</text><ellipse cx="17" cy="346.2656" fill="#84BE84" rx="3" ry="3" style="stroke: #038048; stroke-width: 1.0;"/><text fill="#000000" font-family="sans-serif" font-size="11" lengthAdjust="spacingAndGlyphs" textLength="220" x="26" y="349.4761">OnPeerConnected(peer:NetPeer) : void</text><ellipse cx="17" cy="359.0703" fill="#84BE84" rx="3" ry="3" style="stroke: #038048; stroke-width: 1.0;"/><text fill="#000000" font-family="sans-serif" font-size="11" lengthAdjust="spacingAndGlyphs" textLength="413" x="26" y="362.2808">OnPeerDisconnected(peer:NetPeer, disconnectInfo:DisconnectInfo) : void</text><ellipse cx="17" cy="371.875" fill="#84BE84" rx="3" ry="3" style="stroke: #038048; stroke-width: 1.0;"/><text fill="#000000" font-family="sans-serif" font-size="11" lengthAdjust="spacingAndGlyphs" textLength="325" x="26" y="375.0854">OnConnectionRequest(request:ConnectionRequest) : void</text><ellipse cx="17" cy="384.6797" fill="#84BE84" rx="3" ry="3" style="stroke: #038048; stroke-width: 1.0;"/><text fill="#000000" font-family="sans-serif" font-size="11" lengthAdjust="spacingAndGlyphs" textLength="552" x="26" y="387.8901">OnNetworkReceive(peer:NetPeer, reader:NetPacketReader, deliveryMethod:DeliveryMethod) : void</text><ellipse cx="17" cy="397.4844" fill="#84BE84" rx="3" ry="3" style="stroke: #038048; stroke-width: 1.0;"/><text fill="#000000" font-family="sans-serif" font-size="11" lengthAdjust="spacingAndGlyphs" textLength="763" x="26" y="400.6948">OnNetworkReceiveUnconnected(remoteEndPoint:IPEndPoint, reader:NetPacketReader, messageType:UnconnectedMessageType) : void</text><ellipse cx="17" cy="410.2891" fill="#84BE84" rx="3" ry="3" style="stroke: #038048; stroke-width: 1.0;"/><text fill="#000000" font-family="sans-serif" font-size="11" lengthAdjust="spacingAndGlyphs" textLength="391" x="26" y="413.4995">OnNetworkError(endPoint:IPEndPoint, socketError:SocketError) : void</text><ellipse cx="17" cy="423.0938" fill="#84BE84" rx="3" ry="3" style="stroke: #038048; stroke-width: 1.0;"/><text fill="#000000" font-family="sans-serif" font-size="11" lengthAdjust="spacingAndGlyphs" textLength="329" x="26" y="426.3042">OnNetworkLatencyUpdate(peer:NetPeer, latency:int) : void</text><!--MD5=[a11544de820a927b3dbade298cf8c341]
class Action`1--><rect fill="#FEFECE" filter="url(#f1o0vhx4didx1o)" height="48" id="Action`1" style="stroke: #A80036; stroke-width: 1.5;" width="96" x="280.5" y="493"/><ellipse cx="295.5" cy="509" fill="#ADD1B2" rx="11" ry="11" style="stroke: #A80036; stroke-width: 1.0;"/><path d="M298.4688,514.6406 Q297.8906,514.9375 297.25,515.0781 Q296.6094,515.2344 295.9063,515.2344 Q293.4063,515.2344 292.0781,513.5938 Q290.7656,511.9375 290.7656,508.8125 Q290.7656,505.6875 292.0781,504.0313 Q293.4063,502.375 295.9063,502.375 Q296.6094,502.375 297.25,502.5313 Q297.9063,502.6875 298.4688,502.9844 L298.4688,505.7031 Q297.8438,505.125 297.25,504.8594 Q296.6563,504.5781 296.0313,504.5781 Q294.6875,504.5781 294,505.6563 Q293.3125,506.7188 293.3125,508.8125 Q293.3125,510.9063 294,511.9844 Q294.6875,513.0469 296.0313,513.0469 Q296.6563,513.0469 297.25,512.7813 Q297.8438,512.5 298.4688,511.9219 L298.4688,514.6406 Z "/><text fill="#000000" font-family="sans-serif" font-size="12" lengthAdjust="spacingAndGlyphs" textLength="53" x="309.5" y="513.1543">Action`1</text><rect fill="#FFFFFF" height="15.9688" style="stroke: #000000; stroke-width: 1.0; stroke-dasharray: 2.0,2.0;" width="9" x="370.5" y="490"/><text fill="#000000" font-family="sans-serif" font-size="12" font-style="italic" lengthAdjust="spacingAndGlyphs" textLength="7" x="371.5" y="502.1387">T</text><line style="stroke: #A80036; stroke-width: 1.5;" x1="281.5" x2="375.5" y1="525" y2="525"/><line style="stroke: #A80036; stroke-width: 1.5;" x1="281.5" x2="375.5" y1="533" y2="533"/><!--MD5=[a3114d125c7456cc8458f9a55e60e7ba]
class Action`2--><rect fill="#FEFECE" filter="url(#f1o0vhx4didx1o)" height="48" id="Action`2" style="stroke: #A80036; stroke-width: 1.5;" width="123" x="412" y="493"/><ellipse cx="427" cy="509" fill="#ADD1B2" rx="11" ry="11" style="stroke: #A80036; stroke-width: 1.0;"/><path d="M429.9688,514.6406 Q429.3906,514.9375 428.75,515.0781 Q428.1094,515.2344 427.4063,515.2344 Q424.9063,515.2344 423.5781,513.5938 Q422.2656,511.9375 422.2656,508.8125 Q422.2656,505.6875 423.5781,504.0313 Q424.9063,502.375 427.4063,502.375 Q428.1094,502.375 428.75,502.5313 Q429.4063,502.6875 429.9688,502.9844 L429.9688,505.7031 Q429.3438,505.125 428.75,504.8594 Q428.1563,504.5781 427.5313,504.5781 Q426.1875,504.5781 425.5,505.6563 Q424.8125,506.7188 424.8125,508.8125 Q424.8125,510.9063 425.5,511.9844 Q426.1875,513.0469 427.5313,513.0469 Q428.1563,513.0469 428.75,512.7813 Q429.3438,512.5 429.9688,511.9219 L429.9688,514.6406 Z "/><text fill="#000000" font-family="sans-serif" font-size="12" lengthAdjust="spacingAndGlyphs" textLength="53" x="441" y="513.1543">Action`2</text><rect fill="#FFFFFF" height="15.9688" style="stroke: #000000; stroke-width: 1.0; stroke-dasharray: 2.0,2.0;" width="36" x="502" y="490"/><text fill="#000000" font-family="sans-serif" font-size="12" font-style="italic" lengthAdjust="spacingAndGlyphs" textLength="34" x="503" y="502.1387">T1,T2</text><line style="stroke: #A80036; stroke-width: 1.5;" x1="413" x2="534" y1="525" y2="525"/><line style="stroke: #A80036; stroke-width: 1.5;" x1="413" x2="534" y1="533" y2="533"/><!--MD5=[2e1ff885372daab8d802f213ced6c836]
class Dictionary`2--><rect fill="#FEFECE" filter="url(#f1o0vhx4didx1o)" height="48" id="Dictionary`2" style="stroke: #A80036; stroke-width: 1.5;" width="146" x="829.5" y="250.5"/><ellipse cx="844.5" cy="266.5" fill="#ADD1B2" rx="11" ry="11" style="stroke: #A80036; stroke-width: 1.0;"/><path d="M847.4688,272.1406 Q846.8906,272.4375 846.25,272.5781 Q845.6094,272.7344 844.9063,272.7344 Q842.4063,272.7344 841.0781,271.0938 Q839.7656,269.4375 839.7656,266.3125 Q839.7656,263.1875 841.0781,261.5313 Q842.4063,259.875 844.9063,259.875 Q845.6094,259.875 846.25,260.0313 Q846.9063,260.1875 847.4688,260.4844 L847.4688,263.2031 Q846.8438,262.625 846.25,262.3594 Q845.6563,262.0781 845.0313,262.0781 Q843.6875,262.0781 843,263.1563 Q842.3125,264.2188 842.3125,266.3125 Q842.3125,268.4063 843,269.4844 Q843.6875,270.5469 845.0313,270.5469 Q845.6563,270.5469 846.25,270.2813 Q846.8438,270 847.4688,269.4219 L847.4688,272.1406 Z "/><text fill="#000000" font-family="sans-serif" font-size="12" lengthAdjust="spacingAndGlyphs" textLength="76" x="858.5" y="270.6543">Dictionary`2</text><rect fill="#FFFFFF" height="15.9688" style="stroke: #000000; stroke-width: 1.0; stroke-dasharray: 2.0,2.0;" width="36" x="942.5" y="247.5"/><text fill="#000000" font-family="sans-serif" font-size="12" font-style="italic" lengthAdjust="spacingAndGlyphs" textLength="34" x="943.5" y="259.6387">T1,T2</text><line style="stroke: #A80036; stroke-width: 1.5;" x1="830.5" x2="974.5" y1="282.5" y2="282.5"/><line style="stroke: #A80036; stroke-width: 1.5;" x1="830.5" x2="974.5" y1="290.5" y2="290.5"/><!--MD5=[5254e5ba2843a3110b1cb81cf98a1681]
class INetEventListener--><rect fill="#FEFECE" filter="url(#f1o0vhx4didx1o)" height="48" id="INetEventListener" style="stroke: #A80036; stroke-width: 1.5;" width="142" x="249.5" y="8"/><ellipse cx="264.5" cy="24" fill="#ADD1B2" rx="11" ry="11" style="stroke: #A80036; stroke-width: 1.0;"/><path d="M267.4688,29.6406 Q266.8906,29.9375 266.25,30.0781 Q265.6094,30.2344 264.9063,30.2344 Q262.4063,30.2344 261.0781,28.5938 Q259.7656,26.9375 259.7656,23.8125 Q259.7656,20.6875 261.0781,19.0313 Q262.4063,17.375 264.9063,17.375 Q265.6094,17.375 266.25,17.5313 Q266.9063,17.6875 267.4688,17.9844 L267.4688,20.7031 Q266.8438,20.125 266.25,19.8594 Q265.6563,19.5781 265.0313,19.5781 Q263.6875,19.5781 263,20.6563 Q262.3125,21.7188 262.3125,23.8125 Q262.3125,25.9063 263,26.9844 Q263.6875,28.0469 265.0313,28.0469 Q265.6563,28.0469 266.25,27.7813 Q266.8438,27.5 267.4688,26.9219 L267.4688,29.6406 Z "/><text fill="#000000" font-family="sans-serif" font-size="12" lengthAdjust="spacingAndGlyphs" textLength="110" x="278.5" y="28.1543">INetEventListener</text><line style="stroke: #A80036; stroke-width: 1.5;" x1="250.5" x2="390.5" y1="40" y2="40"/><line style="stroke: #A80036; stroke-width: 1.5;" x1="250.5" x2="390.5" y1="48" y2="48"/><!--MD5=[fd096558e10f4fbbf7b90ae374a0da99]
class INetChannel--><rect fill="#FEFECE" filter="url(#f1o0vhx4didx1o)" height="48" id="INetChannel" style="stroke: #A80036; stroke-width: 1.5;" width="108" x="426.5" y="8"/><ellipse cx="441.5" cy="24" fill="#ADD1B2" rx="11" ry="11" style="stroke: #A80036; stroke-width: 1.0;"/><path d="M444.4688,29.6406 Q443.8906,29.9375 443.25,30.0781 Q442.6094,30.2344 441.9063,30.2344 Q439.4063,30.2344 438.0781,28.5938 Q436.7656,26.9375 436.7656,23.8125 Q436.7656,20.6875 438.0781,19.0313 Q439.4063,17.375 441.9063,17.375 Q442.6094,17.375 443.25,17.5313 Q443.9063,17.6875 444.4688,17.9844 L444.4688,20.7031 Q443.8438,20.125 443.25,19.8594 Q442.6563,19.5781 442.0313,19.5781 Q440.6875,19.5781 440,20.6563 Q439.3125,21.7188 439.3125,23.8125 Q439.3125,25.9063 440,26.9844 Q440.6875,28.0469 442.0313,28.0469 Q442.6563,28.0469 443.25,27.7813 Q443.8438,27.5 444.4688,26.9219 L444.4688,29.6406 Z "/><text fill="#000000" font-family="sans-serif" font-size="12" lengthAdjust="spacingAndGlyphs" textLength="76" x="455.5" y="28.1543">INetChannel</text><line style="stroke: #A80036; stroke-width: 1.5;" x1="427.5" x2="533.5" y1="40" y2="40"/><line style="stroke: #A80036; stroke-width: 1.5;" x1="427.5" x2="533.5" y1="48" y2="48"/><!--MD5=[fbd75e0189cecf7f932b99735c021eec]
reverse link INetEventListener to NetChannel--><path d="M334.49,75.06 C338.52,87.17 343.17,101.15 348.1,115.97 " fill="none" id="INetEventListener&lt;-NetChannel" style="stroke: #A80036; stroke-width: 1.0;"/><polygon fill="none" points="327.84,77.25,328.17,56.06,341.13,72.83,327.84,77.25" style="stroke: #A80036; stroke-width: 1.0;"/><!--MD5=[31dffb6a6cd4f4982807f0f80b7d68ec]
reverse link INetChannel to NetChannel--><path d="M466.51,75.06 C462.48,87.17 457.83,101.15 452.9,115.97 " fill="none" id="INetChannel&lt;-NetChannel" style="stroke: #A80036; stroke-width: 1.0;"/><polygon fill="none" points="459.87,72.83,472.83,56.06,473.16,77.25,459.87,72.83" style="stroke: #A80036; stroke-width: 1.0;"/><!--MD5=[2373da577a445d6b6b7684514618f400]
link NetChannel to Action`1--><path d="M353.28,433.23 C347.09,453.89 341.4,472.91 337.03,487.5 " fill="none" id="NetChannel-&gt;Action`1" style="stroke: #A80036; stroke-width: 1.0;"/><polygon fill="#A80036" points="335.49,492.66,341.9115,485.1925,336.9294,487.8717,334.2502,482.8895,335.49,492.66" style="stroke: #A80036; stroke-width: 1.0;"/><text fill="#000000" font-family="sans-serif" font-size="13" lengthAdjust="spacingAndGlyphs" textLength="222" x="88.1376" y="481.9821">PeerConnectedHandler&lt;NetPeer&gt;</text><!--MD5=[6cf6f4b28e07e7e267af7bdb4184a028]
link NetChannel to Action`2--><path d="M448.38,433.23 C454.65,453.89 460.42,472.91 464.85,487.5 " fill="none" id="NetChannel-&gt;Action`2" style="stroke: #A80036; stroke-width: 1.0;"/><polygon fill="#A80036" points="466.42,492.66,467.6251,482.8851,464.9636,487.8768,459.972,485.2153,466.42,492.66" style="stroke: #A80036; stroke-width: 1.0;"/><text fill="#000000" font-family="sans-serif" font-size="13" lengthAdjust="spacingAndGlyphs" textLength="338" x="505.888" y="481.9821">PeerDisconnectedHandler&lt;NetPeer,DisconnectInfo&gt;</text><!--MD5=[023f56e4db550ae8738f0de98f2aa7d8]
link NetChannel to Dictionary`2--><path d="M807.14,274.5 C807.14,274.5 813.38,274.5 816,274.5 " fill="none" id="NetChannel-Dictionary`2" style="stroke: #A80036; stroke-width: 1.0;"/><polygon fill="#A80036" points="829.11,274.5,820.11,270.5,824.11,274.5,820.11,278.5,829.11,274.5" style="stroke: #A80036; stroke-width: 1.0;"/><line style="stroke: #A80036; stroke-width: 1.0;" x1="824.11" x2="816.11" y1="274.5" y2="274.5"/><polygon fill="#FFFFFF" points="795.14,274.5,801.14,278.5,807.14,274.5,801.14,270.5,795.14,274.5" style="stroke: #A80036; stroke-width: 1.0;"/><text fill="#000000" font-family="sans-serif" font-size="13" lengthAdjust="spacingAndGlyphs" textLength="173" x="777.6867" y="239.0121">PeerLatency&lt;NetPeer,int&gt;</text><!--MD5=[91bfffce58498c39405d29c84b14069d]
@startuml
class NetChannel {
    + NetChannel(debugNetworkSettings:DebugNetworkSettings)
    + Update() : void
    + Stop() : void
    + ConnectToServer(host:string, port:int) : void
    + StartServer(port:int) : void
    + SetNetMonitor(netMonitor:NetMonitor) : void
    + PingServer(endpoint:IPEndPoint, callback:Action<int>) : void
    + Subscribe(onReceiveHandler:Action<T>) : void
    + Subscribe(onReceiveHandler:Action<T, NetPeer>) : void
    + SubscribeQueue(queue:Queue<T>) : void
    + SubscribeQueue(queue:Queue<WithPeer<T>>) : void
    + SendCommand(peer:NetPeer, command:T) : void
    + BroadcastCommand(command:T) : void
    + BroadcastCommand(command:T, excludedPeer:NetPeer) : void
    + OnPeerConnected(peer:NetPeer) : void
    + OnPeerDisconnected(peer:NetPeer, disconnectInfo:DisconnectInfo) : void
    + OnConnectionRequest(request:ConnectionRequest) : void
    + OnNetworkReceive(peer:NetPeer, reader:NetPacketReader, deliveryMethod:DeliveryMethod) : void
    + OnNetworkReceiveUnconnected(remoteEndPoint:IPEndPoint, reader:NetPacketReader, messageType:UnconnectedMessageType) : void
    + OnNetworkError(endPoint:IPEndPoint, socketError:SocketError) : void
    + OnNetworkLatencyUpdate(peer:NetPeer, latency:int) : void
}
class "Action`1"<T> {
}
class "Action`2"<T1,T2> {
}
class "Dictionary`2"<T1,T2> {
}
INetEventListener <|- - NetChannel
INetChannel <|- - NetChannel
NetChannel - -> "PeerConnectedHandler<NetPeer>" "Action`1"
NetChannel - -> "PeerDisconnectedHandler<NetPeer,DisconnectInfo>" "Action`2"
NetChannel o-> "PeerLatency<NetPeer,int>" "Dictionary`2"
@enduml

PlantUML version 1.2020.08(Sun Apr 26 14:08:22 GMT 2020)
(GPL source distribution)
Java Runtime: OpenJDK Runtime Environment
JVM: OpenJDK 64-Bit Server VM
Java Version: 15-ea+10
Operating System: Linux
Default Encoding: UTF-8
Language: en
Country: US
--></g></svg>