<?xml version="1.0" encoding="UTF-8" standalone="no"?><svg xmlns="http://www.w3.org/2000/svg" xmlns:xlink="http://www.w3.org/1999/xlink" contentScriptType="application/ecmascript" contentStyleType="text/css" height="213px" preserveAspectRatio="none" style="width:1437px;height:213px;" version="1.1" viewBox="0 0 1437 213" width="1437px" zoomAndPan="magnify"><defs><filter height="300%" id="f3pubun4ce55r" width="300%" x="-1" y="-1"><feGaussianBlur result="blurOut" stdDeviation="2.0"/><feColorMatrix in="blurOut" result="blurOut2" type="matrix" values="0 0 0 0 0 0 0 0 0 0 0 0 0 0 0 0 0 0 .4 0"/><feOffset dx="4.0" dy="4.0" in="blurOut2" result="blurOut3"/><feBlend in="SourceGraphic" in2="blurOut3" mode="normal"/></filter></defs><g><!--MD5=[8b198e6eaee8d67c035ddb08572b0824]
class JoinRequest--><rect fill="#FEFECE" filter="url(#f3pubun4ce55r)" height="48" id="JoinRequest" style="stroke: #A80036; stroke-width: 1.5;" width="106" x="958.39" y="14.5"/><ellipse cx="973.39" cy="30.5" fill="#ADD1B2" rx="11" ry="11" style="stroke: #A80036; stroke-width: 1.0;"/><path d="M976.3588,36.1406 Q975.7806,36.4375 975.14,36.5781 Q974.4994,36.7344 973.7963,36.7344 Q971.2963,36.7344 969.9681,35.0938 Q968.6556,33.4375 968.6556,30.3125 Q968.6556,27.1875 969.9681,25.5313 Q971.2963,23.875 973.7963,23.875 Q974.4994,23.875 975.14,24.0313 Q975.7963,24.1875 976.3588,24.4844 L976.3588,27.2031 Q975.7338,26.625 975.14,26.3594 Q974.5463,26.0781 973.9213,26.0781 Q972.5775,26.0781 971.89,27.1563 Q971.2025,28.2188 971.2025,30.3125 Q971.2025,32.4063 971.89,33.4844 Q972.5775,34.5469 973.9213,34.5469 Q974.5463,34.5469 975.14,34.2813 Q975.7338,34 976.3588,33.4219 L976.3588,36.1406 Z "/><text fill="#000000" font-family="sans-serif" font-size="12" lengthAdjust="spacingAndGlyphs" textLength="74" x="987.39" y="34.6543">JoinRequest</text><line style="stroke: #A80036; stroke-width: 1.5;" x1="959.39" x2="1063.39" y1="46.5" y2="46.5"/><line style="stroke: #A80036; stroke-width: 1.5;" x1="959.39" x2="1063.39" y1="54.5" y2="54.5"/><!--MD5=[95fec3cc3d54ac46d7816c0cc6c291a8]
class PlayerInputCommand--><rect fill="#FEFECE" filter="url(#f3pubun4ce55r)" height="60.8047" id="PlayerInputCommand" style="stroke: #A80036; stroke-width: 1.5;" width="212" x="438.39" y="8"/><ellipse cx="474.99" cy="24" fill="#ADD1B2" rx="11" ry="11" style="stroke: #A80036; stroke-width: 1.0;"/><path d="M477.9588,29.6406 Q477.3806,29.9375 476.74,30.0781 Q476.0994,30.2344 475.3963,30.2344 Q472.8963,30.2344 471.5681,28.5938 Q470.2556,26.9375 470.2556,23.8125 Q470.2556,20.6875 471.5681,19.0313 Q472.8963,17.375 475.3963,17.375 Q476.0994,17.375 476.74,17.5313 Q477.3963,17.6875 477.9588,17.9844 L477.9588,20.7031 Q477.3338,20.125 476.74,19.8594 Q476.1463,19.5781 475.5213,19.5781 Q474.1775,19.5781 473.49,20.6563 Q472.8025,21.7188 472.8025,23.8125 Q472.8025,25.9063 473.49,26.9844 Q474.1775,28.0469 475.5213,28.0469 Q476.1463,28.0469 476.74,27.7813 Q477.3338,27.5 477.9588,26.9219 L477.9588,29.6406 Z "/><text fill="#000000" font-family="sans-serif" font-size="12" lengthAdjust="spacingAndGlyphs" textLength="132" x="493.79" y="28.1543">PlayerInputCommand</text><line style="stroke: #A80036; stroke-width: 1.5;" x1="439.39" x2="649.39" y1="40" y2="40"/><ellipse cx="449.39" cy="51" fill="none" rx="3" ry="3" style="stroke: #038048; stroke-width: 1.0;"/><text fill="#000000" font-family="sans-serif" font-size="11" lengthAdjust="spacingAndGlyphs" textLength="186" x="458.39" y="54.2104">StartWorldTick : uint «get» «set»</text><line style="stroke: #A80036; stroke-width: 1.5;" x1="439.39" x2="649.39" y1="60.8047" y2="60.8047"/><!--MD5=[8e88d69713656789f97ee695ec497b81]
class JoinAccepted--><rect fill="#FEFECE" filter="url(#f3pubun4ce55r)" height="60.8047" id="JoinAccepted" style="stroke: #A80036; stroke-width: 1.5;" width="184" x="1099.39" y="8"/><ellipse cx="1146.64" cy="24" fill="#ADD1B2" rx="11" ry="11" style="stroke: #A80036; stroke-width: 1.0;"/><path d="M1149.6088,29.6406 Q1149.0306,29.9375 1148.39,30.0781 Q1147.7494,30.2344 1147.0463,30.2344 Q1144.5463,30.2344 1143.2181,28.5938 Q1141.9056,26.9375 1141.9056,23.8125 Q1141.9056,20.6875 1143.2181,19.0313 Q1144.5463,17.375 1147.0463,17.375 Q1147.7494,17.375 1148.39,17.5313 Q1149.0463,17.6875 1149.6088,17.9844 L1149.6088,20.7031 Q1148.9838,20.125 1148.39,19.8594 Q1147.7963,19.5781 1147.1713,19.5781 Q1145.8275,19.5781 1145.14,20.6563 Q1144.4525,21.7188 1144.4525,23.8125 Q1144.4525,25.9063 1145.14,26.9844 Q1145.8275,28.0469 1147.1713,28.0469 Q1147.7963,28.0469 1148.39,27.7813 Q1148.9838,27.5 1149.6088,26.9219 L1149.6088,29.6406 Z "/><text fill="#000000" font-family="sans-serif" font-size="12" lengthAdjust="spacingAndGlyphs" textLength="81" x="1167.14" y="28.1543">JoinAccepted</text><line style="stroke: #A80036; stroke-width: 1.5;" x1="1100.39" x2="1282.39" y1="40" y2="40"/><ellipse cx="1110.39" cy="51" fill="none" rx="3" ry="3" style="stroke: #038048; stroke-width: 1.0;"/><text fill="#000000" font-family="sans-serif" font-size="11" lengthAdjust="spacingAndGlyphs" textLength="158" x="1119.39" y="54.2104">WorldTick : uint «get» «set»</text><line style="stroke: #A80036; stroke-width: 1.5;" x1="1100.39" x2="1282.39" y1="60.8047" y2="60.8047"/><!--MD5=[944355d29257b40ffb6faae80b13e113]
class PlayerJoined--><rect fill="#FEFECE" filter="url(#f3pubun4ce55r)" height="48" id="PlayerJoined" style="stroke: #A80036; stroke-width: 1.5;" width="108" x="1318.39" y="14.5"/><ellipse cx="1333.39" cy="30.5" fill="#ADD1B2" rx="11" ry="11" style="stroke: #A80036; stroke-width: 1.0;"/><path d="M1336.3588,36.1406 Q1335.7806,36.4375 1335.14,36.5781 Q1334.4994,36.7344 1333.7963,36.7344 Q1331.2963,36.7344 1329.9681,35.0938 Q1328.6556,33.4375 1328.6556,30.3125 Q1328.6556,27.1875 1329.9681,25.5313 Q1331.2963,23.875 1333.7963,23.875 Q1334.4994,23.875 1335.14,24.0313 Q1335.7963,24.1875 1336.3588,24.4844 L1336.3588,27.2031 Q1335.7338,26.625 1335.14,26.3594 Q1334.5463,26.0781 1333.9213,26.0781 Q1332.5775,26.0781 1331.89,27.1563 Q1331.2025,28.2188 1331.2025,30.3125 Q1331.2025,32.4063 1331.89,33.4844 Q1332.5775,34.5469 1333.9213,34.5469 Q1334.5463,34.5469 1335.14,34.2813 Q1335.7338,34 1336.3588,33.4219 L1336.3588,36.1406 Z "/><text fill="#000000" font-family="sans-serif" font-size="12" lengthAdjust="spacingAndGlyphs" textLength="76" x="1347.39" y="34.6543">PlayerJoined</text><line style="stroke: #A80036; stroke-width: 1.5;" x1="1319.39" x2="1425.39" y1="46.5" y2="46.5"/><line style="stroke: #A80036; stroke-width: 1.5;" x1="1319.39" x2="1425.39" y1="54.5" y2="54.5"/><!--MD5=[1b36f02a9f2ae228939f1b54f89cc8a4]
class PlayerLeft--><rect fill="#FEFECE" filter="url(#f3pubun4ce55r)" height="60.8047" id="PlayerLeft" style="stroke: #A80036; stroke-width: 1.5;" width="179" x="685.89" y="8"/><ellipse cx="740.64" cy="24" fill="#ADD1B2" rx="11" ry="11" style="stroke: #A80036; stroke-width: 1.0;"/><path d="M743.6088,29.6406 Q743.0306,29.9375 742.39,30.0781 Q741.7494,30.2344 741.0463,30.2344 Q738.5463,30.2344 737.2181,28.5938 Q735.9056,26.9375 735.9056,23.8125 Q735.9056,20.6875 737.2181,19.0313 Q738.5463,17.375 741.0463,17.375 Q741.7494,17.375 742.39,17.5313 Q743.0463,17.6875 743.6088,17.9844 L743.6088,20.7031 Q742.9838,20.125 742.39,19.8594 Q741.7963,19.5781 741.1713,19.5781 Q739.8275,19.5781 739.14,20.6563 Q738.4525,21.7188 738.4525,23.8125 Q738.4525,25.9063 739.14,26.9844 Q739.8275,28.0469 741.1713,28.0469 Q741.7963,28.0469 742.39,27.7813 Q742.9838,27.5 743.6088,26.9219 L743.6088,29.6406 Z "/><text fill="#000000" font-family="sans-serif" font-size="12" lengthAdjust="spacingAndGlyphs" textLength="61" x="761.14" y="28.1543">PlayerLeft</text><line style="stroke: #A80036; stroke-width: 1.5;" x1="686.89" x2="863.89" y1="40" y2="40"/><ellipse cx="696.89" cy="51" fill="none" rx="3" ry="3" style="stroke: #038048; stroke-width: 1.0;"/><text fill="#000000" font-family="sans-serif" font-size="11" lengthAdjust="spacingAndGlyphs" textLength="153" x="705.89" y="54.2104">PlayerId : byte «get» «set»</text><line style="stroke: #A80036; stroke-width: 1.5;" x1="686.89" x2="863.89" y1="60.8047" y2="60.8047"/><!--MD5=[853fe7c705c4ccb3be12f95ee5ccc5d7]
class WorldState--><rect fill="#FEFECE" filter="url(#f3pubun4ce55r)" height="73.6094" id="WorldState" style="stroke: #A80036; stroke-width: 1.5;" width="242" x="423.39" y="129"/><ellipse cx="505.64" cy="145" fill="#ADD1B2" rx="11" ry="11" style="stroke: #A80036; stroke-width: 1.0;"/><path d="M508.6088,150.6406 Q508.0306,150.9375 507.39,151.0781 Q506.7494,151.2344 506.0463,151.2344 Q503.5463,151.2344 502.2181,149.5938 Q500.9056,147.9375 500.9056,144.8125 Q500.9056,141.6875 502.2181,140.0313 Q503.5463,138.375 506.0463,138.375 Q506.7494,138.375 507.39,138.5313 Q508.0463,138.6875 508.6088,138.9844 L508.6088,141.7031 Q507.9838,141.125 507.39,140.8594 Q506.7963,140.5781 506.1713,140.5781 Q504.8275,140.5781 504.14,141.6563 Q503.4525,142.7188 503.4525,144.8125 Q503.4525,146.9063 504.14,147.9844 Q504.8275,149.0469 506.1713,149.0469 Q506.7963,149.0469 507.39,148.7813 Q507.9838,148.5 508.6088,147.9219 L508.6088,150.6406 Z "/><text fill="#000000" font-family="sans-serif" font-size="12" lengthAdjust="spacingAndGlyphs" textLength="69" x="526.14" y="149.1543">WorldState</text><line style="stroke: #A80036; stroke-width: 1.5;" x1="424.39" x2="664.39" y1="161" y2="161"/><ellipse cx="434.39" cy="172" fill="none" rx="3" ry="3" style="stroke: #038048; stroke-width: 1.0;"/><text fill="#000000" font-family="sans-serif" font-size="11" lengthAdjust="spacingAndGlyphs" textLength="158" x="443.39" y="175.2104">WorldTick : uint «get» «set»</text><ellipse cx="434.39" cy="184.8047" fill="none" rx="3" ry="3" style="stroke: #038048; stroke-width: 1.0;"/><text fill="#000000" font-family="sans-serif" font-size="11" lengthAdjust="spacingAndGlyphs" textLength="216" x="443.39" y="188.0151">YourLatestInputTick : uint «get» «set»</text><line style="stroke: #A80036; stroke-width: 1.5;" x1="424.39" x2="664.39" y1="194.6094" y2="194.6094"/><!--MD5=[12a0f12791ebfa798c9817165279cd38]
class AdjustSimulation--><rect fill="#FEFECE" filter="url(#f3pubun4ce55r)" height="73.6094" id="AdjustSimulation" style="stroke: #A80036; stroke-width: 1.5;" width="207" x="700.89" y="129"/><ellipse cx="748.14" cy="145" fill="#ADD1B2" rx="11" ry="11" style="stroke: #A80036; stroke-width: 1.0;"/><path d="M751.1088,150.6406 Q750.5306,150.9375 749.89,151.0781 Q749.2494,151.2344 748.5463,151.2344 Q746.0463,151.2344 744.7181,149.5938 Q743.4056,147.9375 743.4056,144.8125 Q743.4056,141.6875 744.7181,140.0313 Q746.0463,138.375 748.5463,138.375 Q749.2494,138.375 749.89,138.5313 Q750.5463,138.6875 751.1088,138.9844 L751.1088,141.7031 Q750.4838,141.125 749.89,140.8594 Q749.2963,140.5781 748.6713,140.5781 Q747.3275,140.5781 746.64,141.6563 Q745.9525,142.7188 745.9525,144.8125 Q745.9525,146.9063 746.64,147.9844 Q747.3275,149.0469 748.6713,149.0469 Q749.2963,149.0469 749.89,148.7813 Q750.4838,148.5 751.1088,147.9219 L751.1088,150.6406 Z "/><text fill="#000000" font-family="sans-serif" font-size="12" lengthAdjust="spacingAndGlyphs" textLength="104" x="768.64" y="149.1543">AdjustSimulation</text><line style="stroke: #A80036; stroke-width: 1.5;" x1="701.89" x2="906.89" y1="161" y2="161"/><ellipse cx="711.89" cy="172" fill="none" rx="3" ry="3" style="stroke: #038048; stroke-width: 1.0;"/><text fill="#000000" font-family="sans-serif" font-size="11" lengthAdjust="spacingAndGlyphs" textLength="181" x="720.89" y="175.2104">ActualTickLead : int «get» «set»</text><ellipse cx="711.89" cy="184.8047" fill="none" rx="3" ry="3" style="stroke: #038048; stroke-width: 1.0;"/><text fill="#000000" font-family="sans-serif" font-size="11" lengthAdjust="spacingAndGlyphs" textLength="155" x="720.89" y="188.0151">TickOffset : int «get» «set»</text><line style="stroke: #A80036; stroke-width: 1.5;" x1="701.89" x2="906.89" y1="194.6094" y2="194.6094"/><!--MD5=[7d2c4ae7970c32f414f93e7b18676929]
class Metadata--><rect fill="#FEFECE" filter="url(#f3pubun4ce55r)" height="53.9375" id="Metadata" style="stroke: #A80036; stroke-width: 1.5;" width="92" x="130.39" y="11.5"/><ellipse cx="145.39" cy="30.4688" fill="#ADD1B2" rx="11" ry="11" style="stroke: #A80036; stroke-width: 1.0;"/><path d="M148.3588,36.1094 Q147.7806,36.4063 147.14,36.5469 Q146.4994,36.7031 145.7963,36.7031 Q143.2963,36.7031 141.9681,35.0625 Q140.6556,33.4063 140.6556,30.2813 Q140.6556,27.1563 141.9681,25.5 Q143.2963,23.8438 145.7963,23.8438 Q146.4994,23.8438 147.14,24 Q147.7963,24.1563 148.3588,24.4531 L148.3588,27.1719 Q147.7338,26.5938 147.14,26.3281 Q146.5463,26.0469 145.9213,26.0469 Q144.5775,26.0469 143.89,27.125 Q143.2025,28.1875 143.2025,30.2813 Q143.2025,32.375 143.89,33.4531 Q144.5775,34.5156 145.9213,34.5156 Q146.5463,34.5156 147.14,34.25 Q147.7338,33.9688 148.3588,33.3906 L148.3588,36.1094 Z "/><text fill="#000000" font-family="sans-serif" font-size="12" font-style="italic" lengthAdjust="spacingAndGlyphs" textLength="48" x="165.39" y="27.6387">«static»</text><text fill="#000000" font-family="sans-serif" font-size="12" lengthAdjust="spacingAndGlyphs" textLength="60" x="159.39" y="41.6074">Metadata</text><line style="stroke: #A80036; stroke-width: 1.5;" x1="131.39" x2="221.39" y1="49.4375" y2="49.4375"/><line style="stroke: #A80036; stroke-width: 1.5;" x1="131.39" x2="221.39" y1="57.4375" y2="57.4375"/><!--MD5=[2e1ff885372daab8d802f213ced6c836]
class Dictionary`2--><rect fill="#FEFECE" filter="url(#f3pubun4ce55r)" height="48" id="Dictionary`2" style="stroke: #A80036; stroke-width: 1.5;" width="146" x="257.39" y="14.5"/><ellipse cx="272.39" cy="30.5" fill="#ADD1B2" rx="11" ry="11" style="stroke: #A80036; stroke-width: 1.0;"/><path d="M275.3588,36.1406 Q274.7806,36.4375 274.14,36.5781 Q273.4994,36.7344 272.7963,36.7344 Q270.2963,36.7344 268.9681,35.0938 Q267.6556,33.4375 267.6556,30.3125 Q267.6556,27.1875 268.9681,25.5313 Q270.2963,23.875 272.7963,23.875 Q273.4994,23.875 274.14,24.0313 Q274.7963,24.1875 275.3588,24.4844 L275.3588,27.2031 Q274.7338,26.625 274.14,26.3594 Q273.5463,26.0781 272.9213,26.0781 Q271.5775,26.0781 270.89,27.1563 Q270.2025,28.2188 270.2025,30.3125 Q270.2025,32.4063 270.89,33.4844 Q271.5775,34.5469 272.9213,34.5469 Q273.5463,34.5469 274.14,34.2813 Q274.7338,34 275.3588,33.4219 L275.3588,36.1406 Z "/><text fill="#000000" font-family="sans-serif" font-size="12" lengthAdjust="spacingAndGlyphs" textLength="76" x="286.39" y="34.6543">Dictionary`2</text><rect fill="#FFFFFF" height="15.9688" style="stroke: #000000; stroke-width: 1.0; stroke-dasharray: 2.0,2.0;" width="36" x="370.39" y="11.5"/><text fill="#000000" font-family="sans-serif" font-size="12" font-style="italic" lengthAdjust="spacingAndGlyphs" textLength="34" x="371.39" y="23.6387">T1,T2</text><line style="stroke: #A80036; stroke-width: 1.5;" x1="258.39" x2="402.39" y1="46.5" y2="46.5"/><line style="stroke: #A80036; stroke-width: 1.5;" x1="258.39" x2="402.39" y1="54.5" y2="54.5"/><!--MD5=[691046a611354af986a4fe4555e8cf96]
class PlayerSetupData--><rect fill="#FEFECE" filter="url(#f3pubun4ce55r)" height="48" id="PlayerSetupData" style="stroke: #A80036; stroke-width: 1.5;" width="137" x="942.89" y="142"/><ellipse cx="957.89" cy="158" fill="#ADD1B2" rx="11" ry="11" style="stroke: #A80036; stroke-width: 1.0;"/><path d="M960.8588,163.6406 Q960.2806,163.9375 959.64,164.0781 Q958.9994,164.2344 958.2963,164.2344 Q955.7963,164.2344 954.4681,162.5938 Q953.1556,160.9375 953.1556,157.8125 Q953.1556,154.6875 954.4681,153.0313 Q955.7963,151.375 958.2963,151.375 Q958.9994,151.375 959.64,151.5313 Q960.2963,151.6875 960.8588,151.9844 L960.8588,154.7031 Q960.2338,154.125 959.64,153.8594 Q959.0463,153.5781 958.4213,153.5781 Q957.0775,153.5781 956.39,154.6563 Q955.7025,155.7188 955.7025,157.8125 Q955.7025,159.9063 956.39,160.9844 Q957.0775,162.0469 958.4213,162.0469 Q959.0463,162.0469 959.64,161.7813 Q960.2338,161.5 960.8588,160.9219 L960.8588,163.6406 Z "/><text fill="#000000" font-family="sans-serif" font-size="12" lengthAdjust="spacingAndGlyphs" textLength="105" x="971.89" y="162.1543">PlayerSetupData</text><line style="stroke: #A80036; stroke-width: 1.5;" x1="943.89" x2="1078.89" y1="174" y2="174"/><line style="stroke: #A80036; stroke-width: 1.5;" x1="943.89" x2="1078.89" y1="182" y2="182"/><!--MD5=[42802014db700607d8443088e538ea67]
class InitialPlayerState--><rect fill="#FEFECE" filter="url(#f3pubun4ce55r)" height="48" id="InitialPlayerState" style="stroke: #A80036; stroke-width: 1.5;" width="137" x="1212.89" y="142"/><ellipse cx="1227.89" cy="158" fill="#ADD1B2" rx="11" ry="11" style="stroke: #A80036; stroke-width: 1.0;"/><path d="M1230.8588,163.6406 Q1230.2806,163.9375 1229.64,164.0781 Q1228.9994,164.2344 1228.2963,164.2344 Q1225.7963,164.2344 1224.4681,162.5938 Q1223.1556,160.9375 1223.1556,157.8125 Q1223.1556,154.6875 1224.4681,153.0313 Q1225.7963,151.375 1228.2963,151.375 Q1228.9994,151.375 1229.64,151.5313 Q1230.2963,151.6875 1230.8588,151.9844 L1230.8588,154.7031 Q1230.2338,154.125 1229.64,153.8594 Q1229.0463,153.5781 1228.4213,153.5781 Q1227.0775,153.5781 1226.39,154.6563 Q1225.7025,155.7188 1225.7025,157.8125 Q1225.7025,159.9063 1226.39,160.9844 Q1227.0775,162.0469 1228.4213,162.0469 Q1229.0463,162.0469 1229.64,161.7813 Q1230.2338,161.5 1230.8588,160.9219 L1230.8588,163.6406 Z "/><text fill="#000000" font-family="sans-serif" font-size="12" lengthAdjust="spacingAndGlyphs" textLength="105" x="1241.89" y="162.1543">InitialPlayerState</text><line style="stroke: #A80036; stroke-width: 1.5;" x1="1213.89" x2="1348.89" y1="174" y2="174"/><line style="stroke: #A80036; stroke-width: 1.5;" x1="1213.89" x2="1348.89" y1="182" y2="182"/><!--MD5=[ec9badf07c42208ec4e463d85484b5e6]
link JoinRequest to PlayerSetupData--><path d="M1011.39,62.52 C1011.39,83.35 1011.39,114.11 1011.39,136.49 " fill="none" id="JoinRequest-&gt;PlayerSetupData" style="stroke: #A80036; stroke-width: 1.0;"/><polygon fill="#A80036" points="1011.39,141.7,1015.39,132.7,1011.39,136.7,1007.39,132.7,1011.39,141.7" style="stroke: #A80036; stroke-width: 1.0;"/><text fill="#000000" font-family="sans-serif" font-size="13" lengthAdjust="spacingAndGlyphs" textLength="108" x="1024.5525" y="131.0318">PlayerSetupData</text><!--MD5=[e4d28768274ed8112d9e6ce855746434]
link JoinAccepted to InitialPlayerState--><path d="M1212.72,69.24 C1227.57,89.95 1247.23,117.36 1261.71,137.55 " fill="none" id="JoinAccepted-&gt;InitialPlayerState" style="stroke: #A80036; stroke-width: 1.0;"/><polygon fill="#A80036" points="1264.71,141.74,1262.7081,132.0967,1261.793,137.6791,1256.2107,136.7639,1264.71,141.74" style="stroke: #A80036; stroke-width: 1.0;"/><text fill="#000000" font-family="sans-serif" font-size="13" lengthAdjust="spacingAndGlyphs" textLength="102" x="1146.213" y="131.0816">YourPlayerState</text><!--MD5=[744df0d40491aa55ed5518cbf4f8bf63]
link PlayerJoined to InitialPlayerState--><path d="M1355.7,62.52 C1340.34,83.7 1317.54,115.15 1301.25,137.62 " fill="none" id="PlayerJoined-&gt;InitialPlayerState" style="stroke: #A80036; stroke-width: 1.0;"/><polygon fill="#A80036" points="1298.29,141.7,1306.8009,136.7437,1301.2164,137.6459,1300.3142,132.0614,1298.29,141.7" style="stroke: #A80036; stroke-width: 1.0;"/><text fill="#000000" font-family="sans-serif" font-size="13" lengthAdjust="spacingAndGlyphs" textLength="74" x="1311.4281" y="131.0318">PlayerState</text><!--MD5=[7db589c486cdb61c090f629f9af58de8]
link Metadata to Dictionary`2--><path d="M234.41,38.5 C234.41,38.5 241.21,38.5 243.99,38.5 " fill="none" id="Metadata-Dictionary`2" style="stroke: #A80036; stroke-width: 1.0;"/><polygon fill="#A80036" points="257,38.5,248,34.5,252,38.5,248,42.5,257,38.5" style="stroke: #A80036; stroke-width: 1.0;"/><line style="stroke: #A80036; stroke-width: 1.0;" x1="252" x2="244" y1="38.5" y2="38.5"/><polygon fill="#FFFFFF" points="222.41,38.5,228.41,42.5,234.41,38.5,228.41,34.5,222.41,38.5" style="stroke: #A80036; stroke-width: 1.0;"/><text fill="#000000" font-family="sans-serif" font-size="13" lengthAdjust="spacingAndGlyphs" textLength="236" x="-117.343" y="8.1782">DeliveryType&lt;Type,DeliveryMethod&gt;</text><!--MD5=[72a6eafa2337edfdfa18c50996cebf22]
link PlayerInputCommand to PlayerLeft--><!--MD5=[93854790c0f8c339f6202384960b51a2]
link PlayerInputCommand to WorldState--><!--MD5=[a5833bc64a2b92d010bbb3bb0f43554c]
link WorldState to AdjustSimulation--><!--MD5=[969cd6b82ceb126716331fc2673b1c65]
@startuml
class JoinRequest {
}
class PlayerInputCommand {
    + StartWorldTick : uint <<get>> <<set>>
}
class JoinAccepted {
    + WorldTick : uint <<get>> <<set>>
}
class PlayerJoined {
}
class PlayerLeft {
    + PlayerId : byte <<get>> <<set>>
}
class WorldState {
    + WorldTick : uint <<get>> <<set>>
    + YourLatestInputTick : uint <<get>> <<set>>
}
class AdjustSimulation {
    + ActualTickLead : int <<get>> <<set>>
    + TickOffset : int <<get>> <<set>>
}
class Metadata <<static>> {
}
class "Dictionary`2"<T1,T2> {
}
JoinRequest - -> "PlayerSetupData" PlayerSetupData
JoinAccepted - -> "YourPlayerState" InitialPlayerState
PlayerJoined - -> "PlayerState" InitialPlayerState
Metadata o-> "DeliveryType<Type,DeliveryMethod>" "Dictionary`2"
@enduml

PlantUML version 1.2020.08(Sun Apr 26 14:08:22 GMT 2020)
(GPL source distribution)
Java Runtime: OpenJDK Runtime Environment
JVM: OpenJDK 64-Bit Server VM
Java Version: 15-ea+10
Operating System: Linux
Default Encoding: UTF-8
Language: en
Country: US
--></g></svg>