<?xml version="1.0" encoding="UTF-8" standalone="no"?><svg xmlns="http://www.w3.org/2000/svg" xmlns:xlink="http://www.w3.org/1999/xlink" contentScriptType="application/ecmascript" contentStyleType="text/css" height="518px" preserveAspectRatio="none" style="width:1094px;height:518px;" version="1.1" viewBox="0 0 1094 518" width="1094px" zoomAndPan="magnify"><defs><filter height="300%" id="f1ma97fomzpdw3" width="300%" x="-1" y="-1"><feGaussianBlur result="blurOut" stdDeviation="2.0"/><feColorMatrix in="blurOut" result="blurOut2" type="matrix" values="0 0 0 0 0 0 0 0 0 0 0 0 0 0 0 0 0 0 .4 0"/><feOffset dx="4.0" dy="4.0" in="blurOut2" result="blurOut3"/><feBlend in="SourceGraphic" in2="blurOut3" mode="normal"/></filter></defs><g><!--MD5=[691046a611354af986a4fe4555e8cf96]
class PlayerSetupData--><rect fill="#FEFECE" filter="url(#f1ma97fomzpdw3)" height="92.3516" id="PlayerSetupData" style="stroke: #A80036; stroke-width: 1.5;" width="258" x="6" y="129"/><ellipse cx="78.25" cy="147.9688" fill="#ADD1B2" rx="11" ry="11" style="stroke: #A80036; stroke-width: 1.0;"/><path d="M81.2188,153.6094 Q80.6406,153.9063 80,154.0469 Q79.3594,154.2031 78.6563,154.2031 Q76.1563,154.2031 74.8281,152.5625 Q73.5156,150.9063 73.5156,147.7813 Q73.5156,144.6563 74.8281,143 Q76.1563,141.3438 78.6563,141.3438 Q79.3594,141.3438 80,141.5 Q80.6563,141.6563 81.2188,141.9531 L81.2188,144.6719 Q80.5938,144.0938 80,143.8281 Q79.4063,143.5469 78.7813,143.5469 Q77.4375,143.5469 76.75,144.625 Q76.0625,145.6875 76.0625,147.7813 Q76.0625,149.875 76.75,150.9531 Q77.4375,152.0156 78.7813,152.0156 Q79.4063,152.0156 80,151.75 Q80.5938,151.4688 81.2188,150.8906 L81.2188,153.6094 Z "/><text fill="#000000" font-family="sans-serif" font-size="12" font-style="italic" lengthAdjust="spacingAndGlyphs" textLength="50" x="126.25" y="145.1387">«struct»</text><text fill="#000000" font-family="sans-serif" font-size="12" lengthAdjust="spacingAndGlyphs" textLength="105" x="98.75" y="159.1074">PlayerSetupData</text><line style="stroke: #A80036; stroke-width: 1.5;" x1="7" x2="263" y1="166.9375" y2="166.9375"/><ellipse cx="17" cy="177.9375" fill="none" rx="3" ry="3" style="stroke: #038048; stroke-width: 1.0;"/><text fill="#000000" font-family="sans-serif" font-size="11" lengthAdjust="spacingAndGlyphs" textLength="78" x="26" y="181.1479">Name : string</text><line style="stroke: #A80036; stroke-width: 1.5;" x1="7" x2="263" y1="187.7422" y2="187.7422"/><ellipse cx="17" cy="198.7422" fill="#84BE84" rx="3" ry="3" style="stroke: #038048; stroke-width: 1.0;"/><text fill="#000000" font-family="sans-serif" font-size="11" lengthAdjust="spacingAndGlyphs" textLength="206" x="26" y="201.9526">Serialize(writer:NetDataWriter) : void</text><ellipse cx="17" cy="211.5469" fill="#84BE84" rx="3" ry="3" style="stroke: #038048; stroke-width: 1.0;"/><text fill="#000000" font-family="sans-serif" font-size="11" lengthAdjust="spacingAndGlyphs" textLength="232" x="26" y="214.7573">Deserialize(reader:NetDataReader) : void</text><!--MD5=[88286dc3c8c4d6af8bc027926bc8db2e]
class PlayerMetadata--><rect fill="#FEFECE" filter="url(#f1ma97fomzpdw3)" height="92.3516" id="PlayerMetadata" style="stroke: #A80036; stroke-width: 1.5;" width="258" x="77" y="300.5"/><ellipse cx="152.75" cy="319.4688" fill="#ADD1B2" rx="11" ry="11" style="stroke: #A80036; stroke-width: 1.0;"/><path d="M155.7188,325.1094 Q155.1406,325.4063 154.5,325.5469 Q153.8594,325.7031 153.1563,325.7031 Q150.6563,325.7031 149.3281,324.0625 Q148.0156,322.4063 148.0156,319.2813 Q148.0156,316.1563 149.3281,314.5 Q150.6563,312.8438 153.1563,312.8438 Q153.8594,312.8438 154.5,313 Q155.1563,313.1563 155.7188,313.4531 L155.7188,316.1719 Q155.0938,315.5938 154.5,315.3281 Q153.9063,315.0469 153.2813,315.0469 Q151.9375,315.0469 151.25,316.125 Q150.5625,317.1875 150.5625,319.2813 Q150.5625,321.375 151.25,322.4531 Q151.9375,323.5156 153.2813,323.5156 Q153.9063,323.5156 154.5,323.25 Q155.0938,322.9688 155.7188,322.3906 L155.7188,325.1094 Z "/><text fill="#000000" font-family="sans-serif" font-size="12" font-style="italic" lengthAdjust="spacingAndGlyphs" textLength="50" x="197.25" y="316.6387">«struct»</text><text fill="#000000" font-family="sans-serif" font-size="12" lengthAdjust="spacingAndGlyphs" textLength="98" x="173.25" y="330.6074">PlayerMetadata</text><line style="stroke: #A80036; stroke-width: 1.5;" x1="78" x2="334" y1="338.4375" y2="338.4375"/><ellipse cx="88" cy="349.4375" fill="none" rx="3" ry="3" style="stroke: #038048; stroke-width: 1.0;"/><text fill="#000000" font-family="sans-serif" font-size="11" lengthAdjust="spacingAndGlyphs" textLength="78" x="97" y="352.6479">Name : string</text><line style="stroke: #A80036; stroke-width: 1.5;" x1="78" x2="334" y1="359.2422" y2="359.2422"/><ellipse cx="88" cy="370.2422" fill="#84BE84" rx="3" ry="3" style="stroke: #038048; stroke-width: 1.0;"/><text fill="#000000" font-family="sans-serif" font-size="11" lengthAdjust="spacingAndGlyphs" textLength="206" x="97" y="373.4526">Serialize(writer:NetDataWriter) : void</text><ellipse cx="88" cy="383.0469" fill="#84BE84" rx="3" ry="3" style="stroke: #038048; stroke-width: 1.0;"/><text fill="#000000" font-family="sans-serif" font-size="11" lengthAdjust="spacingAndGlyphs" textLength="232" x="97" y="386.2573">Deserialize(reader:NetDataReader) : void</text><!--MD5=[42802014db700607d8443088e538ea67]
class InitialPlayerState--><rect fill="#FEFECE" filter="url(#f1ma97fomzpdw3)" height="92.3516" id="InitialPlayerState" style="stroke: #A80036; stroke-width: 1.5;" width="258" x="370" y="129"/><ellipse cx="442.25" cy="147.9688" fill="#ADD1B2" rx="11" ry="11" style="stroke: #A80036; stroke-width: 1.0;"/><path d="M445.2188,153.6094 Q444.6406,153.9063 444,154.0469 Q443.3594,154.2031 442.6563,154.2031 Q440.1563,154.2031 438.8281,152.5625 Q437.5156,150.9063 437.5156,147.7813 Q437.5156,144.6563 438.8281,143 Q440.1563,141.3438 442.6563,141.3438 Q443.3594,141.3438 444,141.5 Q444.6563,141.6563 445.2188,141.9531 L445.2188,144.6719 Q444.5938,144.0938 444,143.8281 Q443.4063,143.5469 442.7813,143.5469 Q441.4375,143.5469 440.75,144.625 Q440.0625,145.6875 440.0625,147.7813 Q440.0625,149.875 440.75,150.9531 Q441.4375,152.0156 442.7813,152.0156 Q443.4063,152.0156 444,151.75 Q444.5938,151.4688 445.2188,150.8906 L445.2188,153.6094 Z "/><text fill="#000000" font-family="sans-serif" font-size="12" font-style="italic" lengthAdjust="spacingAndGlyphs" textLength="50" x="490.25" y="145.1387">«struct»</text><text fill="#000000" font-family="sans-serif" font-size="12" lengthAdjust="spacingAndGlyphs" textLength="105" x="462.75" y="159.1074">InitialPlayerState</text><line style="stroke: #A80036; stroke-width: 1.5;" x1="371" x2="627" y1="166.9375" y2="166.9375"/><ellipse cx="381" cy="177.9375" fill="none" rx="3" ry="3" style="stroke: #038048; stroke-width: 1.0;"/><text fill="#000000" font-family="sans-serif" font-size="11" lengthAdjust="spacingAndGlyphs" textLength="81" x="390" y="181.1479">PlayerId : byte</text><line style="stroke: #A80036; stroke-width: 1.5;" x1="371" x2="627" y1="187.7422" y2="187.7422"/><ellipse cx="381" cy="198.7422" fill="#84BE84" rx="3" ry="3" style="stroke: #038048; stroke-width: 1.0;"/><text fill="#000000" font-family="sans-serif" font-size="11" lengthAdjust="spacingAndGlyphs" textLength="206" x="390" y="201.9526">Serialize(writer:NetDataWriter) : void</text><ellipse cx="381" cy="211.5469" fill="#84BE84" rx="3" ry="3" style="stroke: #038048; stroke-width: 1.0;"/><text fill="#000000" font-family="sans-serif" font-size="11" lengthAdjust="spacingAndGlyphs" textLength="232" x="390" y="214.7573">Deserialize(reader:NetDataReader) : void</text><!--MD5=[96dccd457c10d64efb6c3adaaea3220e]
class PlayerState--><rect fill="#FEFECE" filter="url(#f1ma97fomzpdw3)" height="105.1563" id="PlayerState" style="stroke: #A80036; stroke-width: 1.5;" width="258" x="370" y="294"/><ellipse cx="458.75" cy="312.9688" fill="#ADD1B2" rx="11" ry="11" style="stroke: #A80036; stroke-width: 1.0;"/><path d="M461.7188,318.6094 Q461.1406,318.9063 460.5,319.0469 Q459.8594,319.2031 459.1563,319.2031 Q456.6563,319.2031 455.3281,317.5625 Q454.0156,315.9063 454.0156,312.7813 Q454.0156,309.6563 455.3281,308 Q456.6563,306.3438 459.1563,306.3438 Q459.8594,306.3438 460.5,306.5 Q461.1563,306.6563 461.7188,306.9531 L461.7188,309.6719 Q461.0938,309.0938 460.5,308.8281 Q459.9063,308.5469 459.2813,308.5469 Q457.9375,308.5469 457.25,309.625 Q456.5625,310.6875 456.5625,312.7813 Q456.5625,314.875 457.25,315.9531 Q457.9375,317.0156 459.2813,317.0156 Q459.9063,317.0156 460.5,316.75 Q461.0938,316.4688 461.7188,315.8906 L461.7188,318.6094 Z "/><text fill="#000000" font-family="sans-serif" font-size="12" font-style="italic" lengthAdjust="spacingAndGlyphs" textLength="50" x="490.25" y="310.1387">«struct»</text><text fill="#000000" font-family="sans-serif" font-size="12" lengthAdjust="spacingAndGlyphs" textLength="72" x="479.25" y="324.1074">PlayerState</text><line style="stroke: #A80036; stroke-width: 1.5;" x1="371" x2="627" y1="331.9375" y2="331.9375"/><ellipse cx="381" cy="342.9375" fill="none" rx="3" ry="3" style="stroke: #038048; stroke-width: 1.0;"/><text fill="#000000" font-family="sans-serif" font-size="11" lengthAdjust="spacingAndGlyphs" textLength="105" x="390" y="346.1479">NetworkId : ushort</text><ellipse cx="381" cy="355.7422" fill="none" rx="3" ry="3" style="stroke: #038048; stroke-width: 1.0;"/><text fill="#000000" font-family="sans-serif" font-size="11" lengthAdjust="spacingAndGlyphs" textLength="92" x="390" y="358.9526">Grounded : bool</text><line style="stroke: #A80036; stroke-width: 1.5;" x1="371" x2="627" y1="365.5469" y2="365.5469"/><ellipse cx="381" cy="376.5469" fill="#84BE84" rx="3" ry="3" style="stroke: #038048; stroke-width: 1.0;"/><text fill="#000000" font-family="sans-serif" font-size="11" lengthAdjust="spacingAndGlyphs" textLength="206" x="390" y="379.7573">Serialize(writer:NetDataWriter) : void</text><ellipse cx="381" cy="389.3516" fill="#84BE84" rx="3" ry="3" style="stroke: #038048; stroke-width: 1.0;"/><text fill="#000000" font-family="sans-serif" font-size="11" lengthAdjust="spacingAndGlyphs" textLength="232" x="390" y="392.562">Deserialize(reader:NetDataReader) : void</text><!--MD5=[4470e5d2ab06cd44d653016344f3ffd7]
class PlayerInputs--><rect fill="#FEFECE" filter="url(#f1ma97fomzpdw3)" height="117.9609" id="PlayerInputs" style="stroke: #A80036; stroke-width: 1.5;" width="258" x="825" y="116"/><ellipse cx="911.25" cy="134.9688" fill="#ADD1B2" rx="11" ry="11" style="stroke: #A80036; stroke-width: 1.0;"/><path d="M914.2188,140.6094 Q913.6406,140.9063 913,141.0469 Q912.3594,141.2031 911.6563,141.2031 Q909.1563,141.2031 907.8281,139.5625 Q906.5156,137.9063 906.5156,134.7813 Q906.5156,131.6563 907.8281,130 Q909.1563,128.3438 911.6563,128.3438 Q912.3594,128.3438 913,128.5 Q913.6563,128.6563 914.2188,128.9531 L914.2188,131.6719 Q913.5938,131.0938 913,130.8281 Q912.4063,130.5469 911.7813,130.5469 Q910.4375,130.5469 909.75,131.625 Q909.0625,132.6875 909.0625,134.7813 Q909.0625,136.875 909.75,137.9531 Q910.4375,139.0156 911.7813,139.0156 Q912.4063,139.0156 913,138.75 Q913.5938,138.4688 914.2188,137.8906 L914.2188,140.6094 Z "/><text fill="#000000" font-family="sans-serif" font-size="12" font-style="italic" lengthAdjust="spacingAndGlyphs" textLength="50" x="945.25" y="132.1387">«struct»</text><text fill="#000000" font-family="sans-serif" font-size="12" lengthAdjust="spacingAndGlyphs" textLength="77" x="931.75" y="146.1074">PlayerInputs</text><line style="stroke: #A80036; stroke-width: 1.5;" x1="826" x2="1082" y1="153.9375" y2="153.9375"/><ellipse cx="836" cy="164.9375" fill="none" rx="3" ry="3" style="stroke: #038048; stroke-width: 1.0;"/><text fill="#000000" font-family="sans-serif" font-size="11" lengthAdjust="spacingAndGlyphs" textLength="106" x="845" y="168.1479">ForwardAxis : float</text><ellipse cx="836" cy="177.7422" fill="none" rx="3" ry="3" style="stroke: #038048; stroke-width: 1.0;"/><text fill="#000000" font-family="sans-serif" font-size="11" lengthAdjust="spacingAndGlyphs" textLength="88" x="845" y="180.9526">RightAxis : float</text><ellipse cx="836" cy="190.5469" fill="none" rx="3" ry="3" style="stroke: #038048; stroke-width: 1.0;"/><text fill="#000000" font-family="sans-serif" font-size="11" lengthAdjust="spacingAndGlyphs" textLength="64" x="845" y="193.7573">Jump : bool</text><line style="stroke: #A80036; stroke-width: 1.5;" x1="826" x2="1082" y1="200.3516" y2="200.3516"/><ellipse cx="836" cy="211.3516" fill="#84BE84" rx="3" ry="3" style="stroke: #038048; stroke-width: 1.0;"/><text fill="#000000" font-family="sans-serif" font-size="11" lengthAdjust="spacingAndGlyphs" textLength="206" x="845" y="214.562">Serialize(writer:NetDataWriter) : void</text><ellipse cx="836" cy="224.1563" fill="#84BE84" rx="3" ry="3" style="stroke: #038048; stroke-width: 1.0;"/><text fill="#000000" font-family="sans-serif" font-size="11" lengthAdjust="spacingAndGlyphs" textLength="232" x="845" y="227.3667">Deserialize(reader:NetDataReader) : void</text><!--MD5=[a371ab200fa7eda1f1341c2c94d4734f]
class NetworkObjectState--><rect fill="#FEFECE" filter="url(#f1ma97fomzpdw3)" height="92.3516" id="NetworkObjectState" style="stroke: #A80036; stroke-width: 1.5;" width="258" x="663" y="300.5"/><ellipse cx="725.25" cy="319.4688" fill="#ADD1B2" rx="11" ry="11" style="stroke: #A80036; stroke-width: 1.0;"/><path d="M728.2188,325.1094 Q727.6406,325.4063 727,325.5469 Q726.3594,325.7031 725.6563,325.7031 Q723.1563,325.7031 721.8281,324.0625 Q720.5156,322.4063 720.5156,319.2813 Q720.5156,316.1563 721.8281,314.5 Q723.1563,312.8438 725.6563,312.8438 Q726.3594,312.8438 727,313 Q727.6563,313.1563 728.2188,313.4531 L728.2188,316.1719 Q727.5938,315.5938 727,315.3281 Q726.4063,315.0469 725.7813,315.0469 Q724.4375,315.0469 723.75,316.125 Q723.0625,317.1875 723.0625,319.2813 Q723.0625,321.375 723.75,322.4531 Q724.4375,323.5156 725.7813,323.5156 Q726.4063,323.5156 727,323.25 Q727.5938,322.9688 728.2188,322.3906 L728.2188,325.1094 Z "/><text fill="#000000" font-family="sans-serif" font-size="12" font-style="italic" lengthAdjust="spacingAndGlyphs" textLength="50" x="783.25" y="316.6387">«struct»</text><text fill="#000000" font-family="sans-serif" font-size="12" lengthAdjust="spacingAndGlyphs" textLength="125" x="745.75" y="330.6074">NetworkObjectState</text><line style="stroke: #A80036; stroke-width: 1.5;" x1="664" x2="920" y1="338.4375" y2="338.4375"/><ellipse cx="674" cy="349.4375" fill="none" rx="3" ry="3" style="stroke: #038048; stroke-width: 1.0;"/><text fill="#000000" font-family="sans-serif" font-size="11" lengthAdjust="spacingAndGlyphs" textLength="105" x="683" y="352.6479">NetworkId : ushort</text><line style="stroke: #A80036; stroke-width: 1.5;" x1="664" x2="920" y1="359.2422" y2="359.2422"/><ellipse cx="674" cy="370.2422" fill="#84BE84" rx="3" ry="3" style="stroke: #038048; stroke-width: 1.0;"/><text fill="#000000" font-family="sans-serif" font-size="11" lengthAdjust="spacingAndGlyphs" textLength="206" x="683" y="373.4526">Serialize(writer:NetDataWriter) : void</text><ellipse cx="674" cy="383.0469" fill="#84BE84" rx="3" ry="3" style="stroke: #038048; stroke-width: 1.0;"/><text fill="#000000" font-family="sans-serif" font-size="11" lengthAdjust="spacingAndGlyphs" textLength="232" x="683" y="386.2573">Deserialize(reader:NetDataReader) : void</text><!--MD5=[9c8c3c7d8161ca0e7cef8b5cc4e79a30]
class INetSerializable--><rect fill="#FEFECE" filter="url(#f1ma97fomzpdw3)" height="48" id="INetSerializable" style="stroke: #A80036; stroke-width: 1.5;" width="127" x="526.5" y="8"/><ellipse cx="541.5" cy="24" fill="#ADD1B2" rx="11" ry="11" style="stroke: #A80036; stroke-width: 1.0;"/><path d="M544.4688,29.6406 Q543.8906,29.9375 543.25,30.0781 Q542.6094,30.2344 541.9063,30.2344 Q539.4063,30.2344 538.0781,28.5938 Q536.7656,26.9375 536.7656,23.8125 Q536.7656,20.6875 538.0781,19.0313 Q539.4063,17.375 541.9063,17.375 Q542.6094,17.375 543.25,17.5313 Q543.9063,17.6875 544.4688,17.9844 L544.4688,20.7031 Q543.8438,20.125 543.25,19.8594 Q542.6563,19.5781 542.0313,19.5781 Q540.6875,19.5781 540,20.6563 Q539.3125,21.7188 539.3125,23.8125 Q539.3125,25.9063 540,26.9844 Q540.6875,28.0469 542.0313,28.0469 Q542.6563,28.0469 543.25,27.7813 Q543.8438,27.5 544.4688,26.9219 L544.4688,29.6406 Z "/><text fill="#000000" font-family="sans-serif" font-size="12" lengthAdjust="spacingAndGlyphs" textLength="95" x="555.5" y="28.1543">INetSerializable</text><line style="stroke: #A80036; stroke-width: 1.5;" x1="527.5" x2="652.5" y1="40" y2="40"/><line style="stroke: #A80036; stroke-width: 1.5;" x1="527.5" x2="652.5" y1="48" y2="48"/><!--MD5=[65d619c042c23702cef2ca07d67b1cf6]
class Vector3--><rect fill="#FEFECE" filter="url(#f1ma97fomzpdw3)" height="48" id="Vector3" style="stroke: #A80036; stroke-width: 1.5;" width="81" x="458.5" y="459"/><ellipse cx="473.5" cy="475" fill="#ADD1B2" rx="11" ry="11" style="stroke: #A80036; stroke-width: 1.0;"/><path d="M476.4688,480.6406 Q475.8906,480.9375 475.25,481.0781 Q474.6094,481.2344 473.9063,481.2344 Q471.4063,481.2344 470.0781,479.5938 Q468.7656,477.9375 468.7656,474.8125 Q468.7656,471.6875 470.0781,470.0313 Q471.4063,468.375 473.9063,468.375 Q474.6094,468.375 475.25,468.5313 Q475.9063,468.6875 476.4688,468.9844 L476.4688,471.7031 Q475.8438,471.125 475.25,470.8594 Q474.6563,470.5781 474.0313,470.5781 Q472.6875,470.5781 472,471.6563 Q471.3125,472.7188 471.3125,474.8125 Q471.3125,476.9063 472,477.9844 Q472.6875,479.0469 474.0313,479.0469 Q474.6563,479.0469 475.25,478.7813 Q475.8438,478.5 476.4688,477.9219 L476.4688,480.6406 Z "/><text fill="#000000" font-family="sans-serif" font-size="12" lengthAdjust="spacingAndGlyphs" textLength="49" x="487.5" y="479.1543">Vector3</text><line style="stroke: #A80036; stroke-width: 1.5;" x1="459.5" x2="538.5" y1="491" y2="491"/><line style="stroke: #A80036; stroke-width: 1.5;" x1="459.5" x2="538.5" y1="499" y2="499"/><!--MD5=[4c7b140fed10e9877852f4b8dc88c33d]
class Quaternion--><rect fill="#FEFECE" filter="url(#f1ma97fomzpdw3)" height="48" id="Quaternion" style="stroke: #A80036; stroke-width: 1.5;" width="102" x="749" y="459"/><ellipse cx="764" cy="475" fill="#ADD1B2" rx="11" ry="11" style="stroke: #A80036; stroke-width: 1.0;"/><path d="M766.9688,480.6406 Q766.3906,480.9375 765.75,481.0781 Q765.1094,481.2344 764.4063,481.2344 Q761.9063,481.2344 760.5781,479.5938 Q759.2656,477.9375 759.2656,474.8125 Q759.2656,471.6875 760.5781,470.0313 Q761.9063,468.375 764.4063,468.375 Q765.1094,468.375 765.75,468.5313 Q766.4063,468.6875 766.9688,468.9844 L766.9688,471.7031 Q766.3438,471.125 765.75,470.8594 Q765.1563,470.5781 764.5313,470.5781 Q763.1875,470.5781 762.5,471.6563 Q761.8125,472.7188 761.8125,474.8125 Q761.8125,476.9063 762.5,477.9844 Q763.1875,479.0469 764.5313,479.0469 Q765.1563,479.0469 765.75,478.7813 Q766.3438,478.5 766.9688,477.9219 L766.9688,480.6406 Z "/><text fill="#000000" font-family="sans-serif" font-size="12" lengthAdjust="spacingAndGlyphs" textLength="70" x="778" y="479.1543">Quaternion</text><line style="stroke: #A80036; stroke-width: 1.5;" x1="750" x2="850" y1="491" y2="491"/><line style="stroke: #A80036; stroke-width: 1.5;" x1="750" x2="850" y1="499" y2="499"/><!--MD5=[a933f115dfa68cabbf714d9d3518fca5]
reverse link INetSerializable to PlayerSetupData--><path d="M506.73,54.08 C446.43,69.84 363.17,92.61 291,116 C278.63,120.01 265.79,124.4 253.02,128.92 " fill="none" id="INetSerializable&lt;-PlayerSetupData" style="stroke: #A80036; stroke-width: 1.0;"/><polygon fill="none" points="505.13,47.26,526.25,49.02,508.65,60.81,505.13,47.26" style="stroke: #A80036; stroke-width: 1.0;"/><!--MD5=[a89665b6efa5f37d53857e4706649c7e]
reverse link INetSerializable to PlayerMetadata--><path d="M506.71,47.26 C457.52,59.05 396.4,79.92 352,116 C304.5,154.6 313.87,182.37 281,234 C266.97,256.04 250.86,280.14 237.18,300.27 " fill="none" id="INetSerializable&lt;-PlayerMetadata" style="stroke: #A80036; stroke-width: 1.0;"/><polygon fill="none" points="505.24,40.41,526.28,42.88,508.29,54.07,505.24,40.41" style="stroke: #A80036; stroke-width: 1.0;"/><!--MD5=[a89159d3e98f312762ebfee4a49ea846]
reverse link INetSerializable to InitialPlayerState--><path d="M563.98,73.31 C552.82,90.61 539.72,110.91 528.22,128.72 " fill="none" id="INetSerializable&lt;-InitialPlayerState" style="stroke: #A80036; stroke-width: 1.0;"/><polygon fill="none" points="558.25,69.29,574.97,56.28,570.01,76.88,558.25,69.29" style="stroke: #A80036; stroke-width: 1.0;"/><!--MD5=[17bc23ce3b6c7ad7729aaa1c6869f942]
link InitialPlayerState to PlayerMetadata--><path d="M420.87,221.2 C379.97,244.86 329.92,273.81 288.42,297.82 " fill="none" id="InitialPlayerState-&gt;PlayerMetadata" style="stroke: #A80036; stroke-width: 1.0;"/><polygon fill="#A80036" points="283.92,300.43,293.7141,299.3926,288.2497,297.9293,289.713,292.465,283.92,300.43" style="stroke: #A80036; stroke-width: 1.0;"/><text fill="#000000" font-family="sans-serif" font-size="13" lengthAdjust="spacingAndGlyphs" textLength="61" x="230.1812" y="289.2772">Metadata</text><!--MD5=[8866dd46f850fabe4ae01f61ea8ec79b]
link InitialPlayerState to PlayerState--><path d="M499,221.42 C499,242.12 499,266.84 499,288.75 " fill="none" id="InitialPlayerState-&gt;PlayerState" style="stroke: #A80036; stroke-width: 1.0;"/><polygon fill="#A80036" points="499,293.96,503,284.96,499,288.96,495,284.96,499,293.96" style="stroke: #A80036; stroke-width: 1.0;"/><text fill="#000000" font-family="sans-serif" font-size="13" lengthAdjust="spacingAndGlyphs" textLength="74" x="420.0281" y="282.9574">PlayerState</text><!--MD5=[cd60628f342bacfd8214f5da31960747]
link InitialPlayerState to NetworkObjectState--><path d="M577.13,221.2 C618.03,244.86 668.08,273.81 709.58,297.82 " fill="none" id="InitialPlayerState-&gt;NetworkObjectState" style="stroke: #A80036; stroke-width: 1.0;"/><polygon fill="#A80036" points="714.08,300.43,708.287,292.465,709.7503,297.9293,704.2859,299.3926,714.08,300.43" style="stroke: #A80036; stroke-width: 1.0;"/><text fill="#000000" font-family="sans-serif" font-size="13" lengthAdjust="spacingAndGlyphs" textLength="128" x="711.9485" y="289.2772">NetworkObjectState</text><!--MD5=[8cb0b7a2ebbef704a786f56a5f48fda4]
reverse link INetSerializable to PlayerState--><path d="M623.5,72.37 C632.62,85.42 641.28,100.57 646,116 C661.34,166.15 669.33,187.03 646,234 C634.25,257.67 614.8,277.66 593.84,293.89 " fill="none" id="INetSerializable&lt;-PlayerState" style="stroke: #A80036; stroke-width: 1.0;"/><polygon fill="none" points="617.63,76.22,611.11,56.06,628.78,67.75,617.63,76.22" style="stroke: #A80036; stroke-width: 1.0;"/><!--MD5=[c2f664aec990122e91850381fb4dc23c]
link PlayerState to Vector3--><path d="M486.56,399.12 C485.81,417.62 486.42,437.79 488.37,453.61 " fill="none" id="PlayerState-&gt;Vector3" style="stroke: #A80036; stroke-width: 1.0;"/><polygon fill="#A80036" points="489.09,458.79,491.8191,449.3268,488.4049,453.8372,483.8945,450.423,489.09,458.79" style="stroke: #A80036; stroke-width: 1.0;"/><text fill="#000000" font-family="sans-serif" font-size="13" lengthAdjust="spacingAndGlyphs" textLength="50" x="430.1443" y="447.7482">Position</text><!--MD5=[c2f664aec990122e91850381fb4dc23c]
link PlayerState to Vector3--><path d="M512.17,399.12 C512.96,417.62 512.33,437.79 510.25,453.61 " fill="none" id="PlayerState-&gt;Vector3-1" style="stroke: #A80036; stroke-width: 1.0;"/><polygon fill="#A80036" points="509.5,458.79,514.7697,450.4695,510.2291,453.8434,506.8552,449.3029,509.5,458.79" style="stroke: #A80036; stroke-width: 1.0;"/><text fill="#000000" font-family="sans-serif" font-size="13" lengthAdjust="spacingAndGlyphs" textLength="50" x="518.5969" y="447.7482">Velocity</text><!--MD5=[f768f19a5d4252449476f1a1aeb208ad]
link PlayerState to Quaternion--><path d="M614.51,399.12 C658.94,418.97 707.67,440.74 744.03,456.99 " fill="none" id="PlayerState-&gt;Quaternion" style="stroke: #A80036; stroke-width: 1.0;"/><polygon fill="#A80036" points="748.85,459.15,742.2545,451.8357,744.2821,457.1167,739.0011,459.1443,748.85,459.15" style="stroke: #A80036; stroke-width: 1.0;"/><text fill="#000000" font-family="sans-serif" font-size="13" lengthAdjust="spacingAndGlyphs" textLength="53" x="687.8423" y="452.9908">Rotation</text><!--MD5=[663f945df41fd817738931685b4a0173]
reverse link INetSerializable to PlayerInputs--><path d="M668.38,63.36 C713.97,81.02 772.55,103.71 824.79,123.95 " fill="none" id="INetSerializable&lt;-PlayerInputs" style="stroke: #A80036; stroke-width: 1.0;"/><polygon fill="none" points="665.82,69.88,649.7,56.13,670.88,56.82,665.82,69.88" style="stroke: #A80036; stroke-width: 1.0;"/><!--MD5=[b027f6b4000e835d9973a60eb1078393]
link PlayerInputs to Quaternion--><path d="M964.16,234.47 C969.34,282.25 969.21,349.71 939,399 C920.32,429.48 885.89,450.16 855.97,463.26 " fill="none" id="PlayerInputs-&gt;Quaternion" style="stroke: #A80036; stroke-width: 1.0;"/><polygon fill="#A80036" points="851.21,465.29,861.0576,465.4472,855.8109,463.3325,857.9256,458.0858,851.21,465.29" style="stroke: #A80036; stroke-width: 1.0;"/><text fill="#000000" font-family="sans-serif" font-size="13" lengthAdjust="spacingAndGlyphs" textLength="86" x="859.0118" y="460.2747">ViewDirection</text><!--MD5=[558b9812b84e6cca70e40fd6bdd340f9]
reverse link INetSerializable to NetworkObjectState--><path d="M635.08,69.23 C650.24,82.84 666.47,99.13 679,116 C722.3,174.29 756.38,251.74 775.36,300.09 " fill="none" id="INetSerializable&lt;-NetworkObjectState" style="stroke: #A80036; stroke-width: 1.0;"/><polygon fill="none" points="630.44,74.47,619.87,56.1,639.58,63.87,630.44,74.47" style="stroke: #A80036; stroke-width: 1.0;"/><!--MD5=[6b0831def5ac16692e88fba0ebc42e87]
@startuml
class PlayerSetupData <<struct>> {
    + Name : string
    + Serialize(writer:NetDataWriter) : void
    + Deserialize(reader:NetDataReader) : void
}
class PlayerMetadata <<struct>> {
    + Name : string
    + Serialize(writer:NetDataWriter) : void
    + Deserialize(reader:NetDataReader) : void
}
class InitialPlayerState <<struct>> {
    + PlayerId : byte
    + Serialize(writer:NetDataWriter) : void
    + Deserialize(reader:NetDataReader) : void
}
class PlayerState <<struct>> {
    + NetworkId : ushort
    + Grounded : bool
    + Serialize(writer:NetDataWriter) : void
    + Deserialize(reader:NetDataReader) : void
}
class PlayerInputs <<struct>> {
    + ForwardAxis : float
    + RightAxis : float
    + Jump : bool
    + Serialize(writer:NetDataWriter) : void
    + Deserialize(reader:NetDataReader) : void
}
class NetworkObjectState <<struct>> {
    + NetworkId : ushort
    + Serialize(writer:NetDataWriter) : void
    + Deserialize(reader:NetDataReader) : void
}
INetSerializable <|- - PlayerSetupData
INetSerializable <|- - PlayerMetadata
INetSerializable <|- - InitialPlayerState
InitialPlayerState - -> "Metadata" PlayerMetadata
InitialPlayerState - -> "PlayerState" PlayerState
InitialPlayerState - -> "NetworkObjectState" NetworkObjectState
INetSerializable <|- - PlayerState
PlayerState - -> "Position" Vector3
PlayerState - -> "Rotation" Quaternion
PlayerState - -> "Velocity" Vector3
INetSerializable <|- - PlayerInputs
PlayerInputs - -> "ViewDirection" Quaternion
INetSerializable <|- - NetworkObjectState
@enduml

PlantUML version 1.2020.08(Sun Apr 26 14:08:22 GMT 2020)
(GPL source distribution)
Java Runtime: OpenJDK Runtime Environment
JVM: OpenJDK 64-Bit Server VM
Java Version: 15-ea+10
Operating System: Linux
Default Encoding: UTF-8
Language: en
Country: US
--></g></svg>