<?xml version="1.0" encoding="UTF-8" standalone="no"?><svg xmlns="http://www.w3.org/2000/svg" xmlns:xlink="http://www.w3.org/1999/xlink" contentScriptType="application/ecmascript" contentStyleType="text/css" height="315px" preserveAspectRatio="none" style="width:388px;height:315px;" version="1.1" viewBox="0 0 388 315" width="388px" zoomAndPan="magnify"><defs><filter height="300%" id="ffyhu8ar0u8dv" width="300%" x="-1" y="-1"><feGaussianBlur result="blurOut" stdDeviation="2.0"/><feColorMatrix in="blurOut" result="blurOut2" type="matrix" values="0 0 0 0 0 0 0 0 0 0 0 0 0 0 0 0 0 0 .4 0"/><feOffset dx="4.0" dy="4.0" in="blurOut2" result="blurOut3"/><feBlend in="SourceGraphic" in2="blurOut3" mode="normal"/></filter></defs><g><!--MD5=[dee8d3e61d40289a5a0ec95cd8f15e8a]
class PingHelper--><rect fill="#FEFECE" filter="url(#ffyhu8ar0u8dv)" height="73.6094" id="PingHelper" style="stroke: #A80036; stroke-width: 1.5;" width="371" x="6" y="8"/><ellipse cx="153.25" cy="24" fill="#ADD1B2" rx="11" ry="11" style="stroke: #A80036; stroke-width: 1.0;"/><path d="M156.2188,29.6406 Q155.6406,29.9375 155,30.0781 Q154.3594,30.2344 153.6563,30.2344 Q151.1563,30.2344 149.8281,28.5938 Q148.5156,26.9375 148.5156,23.8125 Q148.5156,20.6875 149.8281,19.0313 Q151.1563,17.375 153.6563,17.375 Q154.3594,17.375 155,17.5313 Q155.6563,17.6875 156.2188,17.9844 L156.2188,20.7031 Q155.5938,20.125 155,19.8594 Q154.4063,19.5781 153.7813,19.5781 Q152.4375,19.5781 151.75,20.6563 Q151.0625,21.7188 151.0625,23.8125 Q151.0625,25.9063 151.75,26.9844 Q152.4375,28.0469 153.7813,28.0469 Q154.4063,28.0469 155,27.7813 Q155.5938,27.5 156.2188,26.9219 L156.2188,29.6406 Z "/><text fill="#000000" font-family="sans-serif" font-size="12" lengthAdjust="spacingAndGlyphs" textLength="68" x="173.75" y="28.1543">PingHelper</text><line style="stroke: #A80036; stroke-width: 1.5;" x1="7" x2="376" y1="40" y2="40"/><line style="stroke: #A80036; stroke-width: 1.5;" x1="7" x2="376" y1="48" y2="48"/><ellipse cx="17" cy="59" fill="#84BE84" rx="3" ry="3" style="stroke: #038048; stroke-width: 1.0;"/><text fill="#000000" font-family="sans-serif" font-size="11" lengthAdjust="spacingAndGlyphs" textLength="345" x="26" y="62.2104">AddListener(endpoint:IPEndPoint, callback:Action&lt;int&gt;) : void</text><ellipse cx="17" cy="71.8047" fill="#84BE84" rx="3" ry="3" style="stroke: #038048; stroke-width: 1.0;"/><text fill="#000000" font-family="sans-serif" font-size="11" lengthAdjust="spacingAndGlyphs" textLength="226" x="26" y="75.0151">ReceivePong(endpoint:IPEndPoint) : void</text><!--MD5=[085076096658226fe7d3ac7a26d9b629]
class Listener--><rect fill="#FEFECE" filter="url(#ffyhu8ar0u8dv)" height="53.9375" id="Listener" style="stroke: #A80036; stroke-width: 1.5;" width="82" x="150.5" y="142"/><ellipse cx="165.5" cy="160.9688" fill="#ADD1B2" rx="11" ry="11" style="stroke: #A80036; stroke-width: 1.0;"/><path d="M168.4688,166.6094 Q167.8906,166.9063 167.25,167.0469 Q166.6094,167.2031 165.9063,167.2031 Q163.4063,167.2031 162.0781,165.5625 Q160.7656,163.9063 160.7656,160.7813 Q160.7656,157.6563 162.0781,156 Q163.4063,154.3438 165.9063,154.3438 Q166.6094,154.3438 167.25,154.5 Q167.9063,154.6563 168.4688,154.9531 L168.4688,157.6719 Q167.8438,157.0938 167.25,156.8281 Q166.6563,156.5469 166.0313,156.5469 Q164.6875,156.5469 164,157.625 Q163.3125,158.6875 163.3125,160.7813 Q163.3125,162.875 164,163.9531 Q164.6875,165.0156 166.0313,165.0156 Q166.6563,165.0156 167.25,164.75 Q167.8438,164.4688 168.4688,163.8906 L168.4688,166.6094 Z "/><text fill="#000000" font-family="sans-serif" font-size="12" font-style="italic" lengthAdjust="spacingAndGlyphs" textLength="50" x="179.5" y="158.1387">«struct»</text><text fill="#000000" font-family="sans-serif" font-size="12" lengthAdjust="spacingAndGlyphs" textLength="50" x="179.5" y="172.1074">Listener</text><line style="stroke: #A80036; stroke-width: 1.5;" x1="151.5" x2="231.5" y1="179.9375" y2="179.9375"/><line style="stroke: #A80036; stroke-width: 1.5;" x1="151.5" x2="231.5" y1="187.9375" y2="187.9375"/><!--MD5=[a11544de820a927b3dbade298cf8c341]
class Action`1--><rect fill="#FEFECE" filter="url(#ffyhu8ar0u8dv)" height="48" id="Action`1" style="stroke: #A80036; stroke-width: 1.5;" width="96" x="79.5" y="256"/><ellipse cx="94.5" cy="272" fill="#ADD1B2" rx="11" ry="11" style="stroke: #A80036; stroke-width: 1.0;"/><path d="M97.4688,277.6406 Q96.8906,277.9375 96.25,278.0781 Q95.6094,278.2344 94.9063,278.2344 Q92.4063,278.2344 91.0781,276.5938 Q89.7656,274.9375 89.7656,271.8125 Q89.7656,268.6875 91.0781,267.0313 Q92.4063,265.375 94.9063,265.375 Q95.6094,265.375 96.25,265.5313 Q96.9063,265.6875 97.4688,265.9844 L97.4688,268.7031 Q96.8438,268.125 96.25,267.8594 Q95.6563,267.5781 95.0313,267.5781 Q93.6875,267.5781 93,268.6563 Q92.3125,269.7188 92.3125,271.8125 Q92.3125,273.9063 93,274.9844 Q93.6875,276.0469 95.0313,276.0469 Q95.6563,276.0469 96.25,275.7813 Q96.8438,275.5 97.4688,274.9219 L97.4688,277.6406 Z "/><text fill="#000000" font-family="sans-serif" font-size="12" lengthAdjust="spacingAndGlyphs" textLength="53" x="108.5" y="276.1543">Action`1</text><rect fill="#FFFFFF" height="15.9688" style="stroke: #000000; stroke-width: 1.0; stroke-dasharray: 2.0,2.0;" width="9" x="169.5" y="253"/><text fill="#000000" font-family="sans-serif" font-size="12" font-style="italic" lengthAdjust="spacingAndGlyphs" textLength="7" x="170.5" y="265.1387">T</text><line style="stroke: #A80036; stroke-width: 1.5;" x1="80.5" x2="174.5" y1="288" y2="288"/><line style="stroke: #A80036; stroke-width: 1.5;" x1="80.5" x2="174.5" y1="296" y2="296"/><!--MD5=[20ddef7090025b04fb973268620c0974]
class DateTime--><rect fill="#FEFECE" filter="url(#ffyhu8ar0u8dv)" height="48" id="DateTime" style="stroke: #A80036; stroke-width: 1.5;" width="91" x="211" y="256"/><ellipse cx="226" cy="272" fill="#ADD1B2" rx="11" ry="11" style="stroke: #A80036; stroke-width: 1.0;"/><path d="M228.9688,277.6406 Q228.3906,277.9375 227.75,278.0781 Q227.1094,278.2344 226.4063,278.2344 Q223.9063,278.2344 222.5781,276.5938 Q221.2656,274.9375 221.2656,271.8125 Q221.2656,268.6875 222.5781,267.0313 Q223.9063,265.375 226.4063,265.375 Q227.1094,265.375 227.75,265.5313 Q228.4063,265.6875 228.9688,265.9844 L228.9688,268.7031 Q228.3438,268.125 227.75,267.8594 Q227.1563,267.5781 226.5313,267.5781 Q225.1875,267.5781 224.5,268.6563 Q223.8125,269.7188 223.8125,271.8125 Q223.8125,273.9063 224.5,274.9844 Q225.1875,276.0469 226.5313,276.0469 Q227.1563,276.0469 227.75,275.7813 Q228.3438,275.5 228.9688,274.9219 L228.9688,277.6406 Z "/><text fill="#000000" font-family="sans-serif" font-size="12" lengthAdjust="spacingAndGlyphs" textLength="59" x="240" y="276.1543">DateTime</text><line style="stroke: #A80036; stroke-width: 1.5;" x1="212" x2="301" y1="288" y2="288"/><line style="stroke: #A80036; stroke-width: 1.5;" x1="212" x2="301" y1="296" y2="296"/><!--MD5=[dc62f9669bc254f9b4a0be2870579475]
reverse link PingHelper to Listener--><path d="M191.5,97.66 C191.5,112.86 191.5,128.86 191.5,141.74 " fill="none" id="PingHelper&lt;-Listener" style="stroke: #A80036; stroke-width: 1.0;"/><ellipse cx="191.5" cy="90.27" fill="#FFFFFF" rx="8" ry="8" style="stroke: #A80036; stroke-width: 1.0;"/><line style="stroke: #A80036; stroke-width: 1.0;" x1="191.5" x2="191.5" y1="98.27" y2="82.27"/><line style="stroke: #A80036; stroke-width: 1.0;" x1="183.5" x2="199.5" y1="90.27" y2="90.27"/><!--MD5=[160a92ac94ed19835977d674ccac44c3]
link Listener to Action`1--><path d="M176.17,196.11 C166.44,212.69 153.84,234.13 143.91,251.05 " fill="none" id="Listener-&gt;Action`1" style="stroke: #A80036; stroke-width: 1.0;"/><polygon fill="#A80036" points="141.18,255.7,149.1818,249.9579,143.7082,251.3863,142.2799,245.9127,141.18,255.7" style="stroke: #A80036; stroke-width: 1.0;"/><text fill="#000000" font-family="sans-serif" font-size="13" lengthAdjust="spacingAndGlyphs" textLength="89" x="44.6676" y="245.0318">callback&lt;int&gt;</text><!--MD5=[858555edd523aedda5b098c0581aca13]
link Listener to DateTime--><path d="M207.07,196.11 C216.96,212.69 229.74,234.13 239.84,251.05 " fill="none" id="Listener-&gt;DateTime" style="stroke: #A80036; stroke-width: 1.0;"/><polygon fill="#A80036" points="242.61,255.7,241.4478,245.92,240.0543,251.4025,234.5718,250.009,242.61,255.7" style="stroke: #A80036; stroke-width: 1.0;"/><text fill="#000000" font-family="sans-serif" font-size="13" lengthAdjust="spacingAndGlyphs" textLength="62" x="174.6805" y="244.9658">sendTime</text><!--MD5=[2fb4b58dfcfcfaf9153ec04230e19c96]
@startuml
class PingHelper {
    + AddListener(endpoint:IPEndPoint, callback:Action<int>) : void
    + ReceivePong(endpoint:IPEndPoint) : void
}
class Listener <<struct>> {
}
class "Action`1"<T> {
}
PingHelper +- - Listener
Listener - -> "callback<int>" "Action`1"
Listener - -> "sendTime" DateTime
@enduml

PlantUML version 1.2020.08(Sun Apr 26 14:08:22 GMT 2020)
(GPL source distribution)
Java Runtime: OpenJDK Runtime Environment
JVM: OpenJDK 64-Bit Server VM
Java Version: 15-ea+10
Operating System: Linux
Default Encoding: UTF-8
Language: en
Country: US
--></g></svg>