<?xml version="1.0" encoding="UTF-8" standalone="no"?><svg xmlns="http://www.w3.org/2000/svg" xmlns:xlink="http://www.w3.org/1999/xlink" contentScriptType="application/ecmascript" contentStyleType="text/css" height="194px" preserveAspectRatio="none" style="width:133px;height:194px;" version="1.1" viewBox="0 0 133 194" width="133px" zoomAndPan="magnify"><defs><filter height="300%" id="f1r7512ua6emc4" width="300%" x="-1" y="-1"><feGaussianBlur result="blurOut" stdDeviation="2.0"/><feColorMatrix in="blurOut" result="blurOut2" type="matrix" values="0 0 0 0 0 0 0 0 0 0 0 0 0 0 0 0 0 0 .4 0"/><feOffset dx="4.0" dy="4.0" in="blurOut2" result="blurOut3"/><feBlend in="SourceGraphic" in2="blurOut3" mode="normal"/></filter></defs><g><!--MD5=[578a600f3288d42eea84f7992ff1d771]
class WithPeer`1--><rect fill="#FEFECE" filter="url(#f1r7512ua6emc4)" height="66.7422" id="WithPeer`1" style="stroke: #A80036; stroke-width: 1.5;" width="113" x="6" y="8"/><ellipse cx="21" cy="26.9688" fill="#ADD1B2" rx="11" ry="11" style="stroke: #A80036; stroke-width: 1.0;"/><path d="M23.9688,32.6094 Q23.3906,32.9063 22.75,33.0469 Q22.1094,33.2031 21.4063,33.2031 Q18.9063,33.2031 17.5781,31.5625 Q16.2656,29.9063 16.2656,26.7813 Q16.2656,23.6563 17.5781,22 Q18.9063,20.3438 21.4063,20.3438 Q22.1094,20.3438 22.75,20.5 Q23.4063,20.6563 23.9688,20.9531 L23.9688,23.6719 Q23.3438,23.0938 22.75,22.8281 Q22.1563,22.5469 21.5313,22.5469 Q20.1875,22.5469 19.5,23.625 Q18.8125,24.6875 18.8125,26.7813 Q18.8125,28.875 19.5,29.9531 Q20.1875,31.0156 21.5313,31.0156 Q22.1563,31.0156 22.75,30.75 Q23.3438,30.4688 23.9688,29.8906 L23.9688,32.6094 Z "/><text fill="#000000" font-family="sans-serif" font-size="12" font-style="italic" lengthAdjust="spacingAndGlyphs" textLength="50" x="45" y="24.1387">«struct»</text><text fill="#000000" font-family="sans-serif" font-size="12" lengthAdjust="spacingAndGlyphs" textLength="70" x="35" y="38.1074">WithPeer`1</text><rect fill="#FFFFFF" height="15.9688" style="stroke: #000000; stroke-width: 1.0; stroke-dasharray: 2.0,2.0;" width="9" x="113" y="5"/><text fill="#000000" font-family="sans-serif" font-size="12" font-style="italic" lengthAdjust="spacingAndGlyphs" textLength="7" x="114" y="17.1387">T</text><line style="stroke: #A80036; stroke-width: 1.5;" x1="7" x2="118" y1="45.9375" y2="45.9375"/><ellipse cx="17" cy="56.9375" fill="none" rx="3" ry="3" style="stroke: #038048; stroke-width: 1.0;"/><text fill="#000000" font-family="sans-serif" font-size="11" lengthAdjust="spacingAndGlyphs" textLength="50" x="26" y="60.1479">Value : T</text><line style="stroke: #A80036; stroke-width: 1.5;" x1="7" x2="118" y1="66.7422" y2="66.7422"/><!--MD5=[b991c4c455cd9950cce3bc0314f50a5e]
class NetPeer--><rect fill="#FEFECE" filter="url(#f1r7512ua6emc4)" height="48" id="NetPeer" style="stroke: #A80036; stroke-width: 1.5;" width="83" x="21" y="135"/><ellipse cx="36" cy="151" fill="#ADD1B2" rx="11" ry="11" style="stroke: #A80036; stroke-width: 1.0;"/><path d="M38.9688,156.6406 Q38.3906,156.9375 37.75,157.0781 Q37.1094,157.2344 36.4063,157.2344 Q33.9063,157.2344 32.5781,155.5938 Q31.2656,153.9375 31.2656,150.8125 Q31.2656,147.6875 32.5781,146.0313 Q33.9063,144.375 36.4063,144.375 Q37.1094,144.375 37.75,144.5313 Q38.4063,144.6875 38.9688,144.9844 L38.9688,147.7031 Q38.3438,147.125 37.75,146.8594 Q37.1563,146.5781 36.5313,146.5781 Q35.1875,146.5781 34.5,147.6563 Q33.8125,148.7188 33.8125,150.8125 Q33.8125,152.9063 34.5,153.9844 Q35.1875,155.0469 36.5313,155.0469 Q37.1563,155.0469 37.75,154.7813 Q38.3438,154.5 38.9688,153.9219 L38.9688,156.6406 Z "/><text fill="#000000" font-family="sans-serif" font-size="12" lengthAdjust="spacingAndGlyphs" textLength="51" x="50" y="155.1543">NetPeer</text><line style="stroke: #A80036; stroke-width: 1.5;" x1="22" x2="103" y1="167" y2="167"/><line style="stroke: #A80036; stroke-width: 1.5;" x1="22" x2="103" y1="175" y2="175"/><!--MD5=[d1a7a1484facbcf45937711a4bc36ae8]
link WithPeer`1 to NetPeer--><path d="M62.5,75.29 C62.5,92.31 62.5,112.9 62.5,129.29 " fill="none" id="WithPeer`1-&gt;NetPeer" style="stroke: #A80036; stroke-width: 1.0;"/><polygon fill="#A80036" points="62.5,134.67,66.5,125.67,62.5,129.67,58.5,125.67,62.5,134.67" style="stroke: #A80036; stroke-width: 1.0;"/><text fill="#000000" font-family="sans-serif" font-size="13" lengthAdjust="spacingAndGlyphs" textLength="29" x="29.9656" y="123.9945">Peer</text><!--MD5=[1a3e3b82d457738c4c7062636f9c20ad]
@startuml
class "WithPeer`1"<T> <<struct>> {
    + Value : T
}
"WithPeer`1" - -> "Peer" NetPeer
@enduml

PlantUML version 1.2020.08(Sun Apr 26 14:08:22 GMT 2020)
(GPL source distribution)
Java Runtime: OpenJDK Runtime Environment
JVM: OpenJDK 64-Bit Server VM
Java Version: 15-ea+10
Operating System: Linux
Default Encoding: UTF-8
Language: en
Country: US
--></g></svg>